<svg width="66" height="23" viewBox="0 0 66 23" fill="none" xmlns="http://www.w3.org/2000/svg">
<g clip-path="url(#clip0_2888_15593)">
<path d="M28.5763 0.339424L17.6976 8.91259C17.1874 6.80214 16.0053 4.92593 14.338 3.5803C12.6708 2.23467 10.6134 1.49631 8.49082 1.48183H0.679688V21.198H8.48781C10.6211 21.2268 12.6993 20.5046 14.375 19.152C16.0506 17.7994 17.2221 15.8985 17.6936 13.7673L28.5743 22.3394L39.455 13.7673V21.198H51.7294V17.1966H43.6409V1.48183H39.1767V8.91053L28.8536 17.4847L26.621 15.483L31.6449 11.4815L36.9441 7.19487L33.8765 4.62189L23.5544 12.9069L21.3228 10.9061L31.6449 2.90623L28.5753 0.333252L28.5763 0.339424ZM4.86458 5.47612H8.2125C8.90677 5.47844 9.59232 5.63468 10.222 5.93411C10.8575 6.23859 11.4289 6.6672 11.904 7.1959C12.4067 7.74893 12.8034 8.39375 13.0736 9.09682C13.64 10.5897 13.6536 12.2433 13.1118 13.7457C12.8591 14.4471 12.4846 15.096 12.0065 15.661C11.5406 16.2149 10.9697 16.6662 10.3286 16.9876C9.66691 17.315 8.94125 17.4839 8.20647 17.4816H4.86458V5.47612ZM65.6787 17.1976V21.198H53.4013V1.48183H57.8645V17.1976H65.6757H65.6787Z" fill="#0076CE"></path>
</g>
<defs>
<clipPath id="clip0_2888_15593">
<rect width="65" height="22" fill="white" transform="translate(0.679688 0.339844)"></rect>
</clipPath>
</defs>
</svg>