<svg width="69" height="36" viewBox="0 0 69 36" fill="none" xmlns="http://www.w3.org/2000/svg">
<g clip-path="url(#clip0_543_38977)">
<g opacity="0.8">
<path d="M31.224 24.3985L31.3077 24.4091C31.8881 24.4649 32.458 24.596 33.0021 24.7986C33.4038 24.9563 33.7303 25.2523 33.9183 25.6289C34.0834 25.9172 34.1842 26.2355 34.2138 26.5635C34.2436 26.8915 34.2017 27.2219 34.0908 27.5333C33.9799 27.8449 33.8026 28.1305 33.5702 28.3719C33.3378 28.6133 33.0555 28.8052 32.7415 28.9351C32.2572 29.1546 31.7367 29.2906 31.2037 29.3369C30.2054 29.4298 29.1998 29.2567 28.2966 28.8367C27.6971 28.576 27.1864 28.1575 26.8233 27.6293C26.7043 27.431 26.6467 27.2041 26.6572 26.9752C26.6675 26.7464 26.7456 26.5252 26.8823 26.3377C27.164 26.0681 27.5058 25.8642 27.8818 25.7412C28.2578 25.6183 28.6579 25.5796 29.0517 25.628C29.7659 25.6706 30.4722 25.795 31.1558 25.9988C31.4305 26.0878 31.6944 26.2049 31.9431 26.3483C31.9786 26.3786 32.0048 26.4177 32.0188 26.4613C32.033 26.505 32.0345 26.5514 32.0232 26.5958C31.9017 26.9507 30.9965 27.1441 30.7341 27.1813C30.0342 27.2842 29.6715 27.0296 28.8767 26.7272C28.665 26.6414 28.4428 26.5818 28.2156 26.5496C27.8546 26.5169 27.4182 26.6135 27.35 26.9932C27.3159 27.1893 27.5535 27.372 27.7358 27.4492C28.1123 27.612 28.5203 27.6958 28.9329 27.6949C30.2129 27.7729 31.4866 27.4693 32.5812 26.8256C32.6574 26.7825 32.7221 26.7228 32.77 26.6513C32.818 26.5799 32.848 26.4986 32.8575 26.414C32.8575 26.0591 32.2128 25.8409 32.2128 25.8409C31.3708 25.5834 30.4983 25.429 29.6161 25.3814C28.9339 25.3246 27.8601 25.2395 27.6023 25.2039C27.3336 25.1755 27.07 25.1125 26.8187 25.0168C26.6946 24.9617 26.5837 24.8823 26.4936 24.7834C26.4033 24.6845 26.3355 24.5685 26.2947 24.4429C26.2466 24.2094 26.2476 23.969 26.2976 23.7358C26.3476 23.5027 26.4455 23.2816 26.5857 23.0855C27.2635 22.1471 28.8509 21.7904 30.0369 21.6485C31.4306 21.4392 32.8571 21.5923 34.1688 22.0921C34.3428 22.1808 34.4321 22.2695 34.3953 22.4469C34.3583 22.6024 34.2776 22.745 34.1621 22.8594C34.0466 22.9737 33.9008 23.0554 33.7405 23.0953C33.3041 23.1883 32.8595 23.242 32.4127 23.2559C30.971 23.2455 29.5315 23.3712 28.1152 23.6312C27.9957 23.6537 27.8822 23.6996 27.7819 23.7661C27.5793 23.978 28.1576 24.0383 28.2819 24.0632C28.3091 24.0699 28.3368 24.0744 28.3647 24.0764L31.2267 24.4011L31.224 24.3985ZM23.139 18.5615C23.139 18.5615 23.36 18.2421 23.5452 17.9999C23.9648 17.4793 24.4364 16.9994 24.9531 16.5673C25.094 16.4511 25.2597 16.3206 25.2597 16.3206C25.2597 16.3206 25 16.3463 24.8537 16.3756C24.4421 16.5 24.062 16.7058 23.7376 16.9797C23.3159 17.3275 22.8517 17.8925 23.0617 18.3991C23.0921 18.47 23.139 18.5659 23.139 18.5659V18.5615ZM25.4835 19.17C26.141 19.1259 26.78 18.9416 27.3546 18.6307C27.9246 18.3237 28.7625 17.7249 28.676 17.0206C28.6634 16.9155 28.6219 16.8155 28.5556 16.7311C28.4894 16.6467 28.4009 16.5809 28.2994 16.5406C28.1877 16.4912 28.0663 16.4657 27.9435 16.4657C27.8207 16.4657 27.6992 16.4912 27.5875 16.5406C27.3889 16.5907 27.1988 16.6681 27.0231 16.7704C26.2333 17.2492 25.5295 17.8483 24.9392 18.5446C24.8233 18.6919 24.7054 18.8568 24.6133 18.9695C24.5552 19.0396 24.5101 19.1035 24.5157 19.1203C24.8331 19.1872 25.1598 19.2031 25.4826 19.1673L25.4835 19.17ZM23.7863 20.3675C23.705 20.4825 23.6327 20.6032 23.57 20.7286C23.5264 20.7983 23.4711 20.8604 23.406 20.9123C23.3735 20.9429 23.3348 20.9669 23.2924 20.9828C23.25 20.9988 23.2047 21.0064 23.1591 21.0052C23.1136 21.004 23.0689 20.9938 23.0273 20.9756C22.9859 20.9574 22.9488 20.9313 22.9181 20.8989C22.8018 20.7952 22.7083 20.6701 22.6431 20.5309C22.5778 20.3919 22.5419 20.2415 22.5378 20.089C22.5458 19.9598 22.5434 19.8301 22.5304 19.7013C22.4418 19.502 22.327 19.3144 22.1888 19.1433C22.0564 18.8892 21.9767 18.6125 21.9539 18.329C21.9573 17.962 22.0376 17.5995 22.1903 17.2632C22.3427 16.9269 22.5643 16.6238 22.8416 16.3721C23.3997 15.8124 24.0714 15.3694 24.815 15.0707C25.6094 14.7224 26.5029 14.6433 27.35 14.8463C27.6523 14.9507 27.9227 15.1263 28.1364 15.3572C28.1663 15.4012 28.2027 15.441 28.2441 15.4753C28.308 15.4974 28.3745 15.5118 28.4421 15.5178C28.716 15.5796 28.9732 15.6969 29.1963 15.862C29.4686 16.065 29.6567 16.3551 29.7267 16.6799C29.7667 17.0272 29.7221 17.3788 29.5964 17.7066C29.4708 18.0344 29.2676 18.3295 29.0029 18.5686C28.2793 19.3213 27.3907 19.9092 26.4016 20.2895C25.8763 20.4902 25.3143 20.5859 24.7496 20.5707C24.5921 20.5582 24.4301 20.5184 24.2762 20.5086C24.1417 20.4881 24.0094 20.4554 23.8812 20.411C23.8435 20.3826 23.7947 20.3587 23.7891 20.3675H23.7863ZM24.699 21.8818C24.7398 21.8896 24.7798 21.9008 24.8187 21.9155C24.9795 21.9893 25.1182 22.1014 25.2218 22.241C25.3253 22.3807 25.3904 22.5434 25.4107 22.714C25.5964 23.809 25.7035 24.9152 25.7312 26.0245C25.7561 26.5523 25.7699 27.0713 25.7929 27.593C25.8375 28.0739 25.8243 28.5582 25.7533 29.0362C25.7148 29.203 25.6125 29.3495 25.4669 29.447C25.2242 29.5445 24.9563 29.5689 24.699 29.5171C24.1758 29.4132 24.0064 29.0885 23.9319 28.5908C23.7932 27.091 23.7963 25.582 23.9411 24.0827C23.9949 23.4727 24.1081 22.8689 24.279 22.2793C24.3389 22.132 24.4632 21.8357 24.6907 21.8774L24.699 21.8818ZM8.78884 23.8547C8.78884 23.8547 8.01074 23.9079 7.47482 23.9647C6.55889 24.0609 5.65454 24.2409 4.77402 24.5023C4.5521 24.5785 4.10182 24.7604 4.06314 24.9796C4.05855 25.0911 4.08036 25.2021 4.12695 25.3044C4.17354 25.4065 4.24367 25.4972 4.33203 25.5694C4.42411 25.6768 4.96003 26.1709 5.11013 26.2916C5.98082 26.9557 6.93343 27.5134 7.94628 27.9522C8.26857 28.0808 8.80081 28.2645 8.80081 28.2645C8.80081 28.2645 8.76122 26.8043 8.76858 25.3655C8.76858 24.6061 8.78976 23.8574 8.78976 23.8574L8.78884 23.8547ZM23.058 24.4385C23.0739 24.8507 23.0477 25.2633 22.9797 25.6706C22.9208 25.9456 22.8408 26.216 22.7403 26.4797C22.611 26.7644 22.4668 27.0427 22.3085 27.3135C21.9707 27.8459 21.5597 28.3316 21.0865 28.7577C19.5786 29.8629 17.7808 30.5415 15.8949 30.7172C14.6053 30.8645 13.3004 30.828 12.0218 30.609C11.5817 30.5318 10.927 30.3863 10.927 30.3863C10.927 30.3863 10.927 30.6383 10.9086 30.8167C10.8858 30.941 10.8494 31.0626 10.7999 31.1795C10.7565 31.2668 10.6908 31.3421 10.609 31.3984C10.5272 31.4546 10.432 31.4902 10.3322 31.5014C10.0676 31.5641 9.78972 31.5508 9.53287 31.4633C9.34979 31.3727 9.19533 31.2365 9.08566 31.0687C8.97599 30.9009 8.91514 30.7079 8.90947 30.5096C8.85238 30.1717 8.79252 29.5844 8.79252 29.5844C8.79252 29.5844 8.48865 29.4461 8.2345 29.3237C7.47496 28.9597 6.75021 28.532 6.06871 28.0453C5.88915 27.9167 5.11933 27.2948 4.94898 27.1405C4.46543 26.7281 4.04996 26.2471 3.71691 25.7141C3.58678 25.5275 3.5065 25.3129 3.48321 25.0893C3.45992 24.8656 3.49432 24.64 3.58339 24.4322C4.02563 23.7737 4.68703 23.2795 5.45912 23.0306C6.29892 22.705 7.16655 22.4503 8.05218 22.2695C8.345 22.2286 8.79989 22.1506 8.82752 22.1329C8.83764 22.1256 8.84691 22.1173 8.85514 22.108C8.86895 22.0885 8.89381 21.4525 8.88921 21.221C8.8846 20.9894 9.06508 19.4903 9.1231 19.1727C9.17441 18.8253 9.2764 18.4865 9.42606 18.1667C9.47309 18.1156 9.53869 18.0839 9.60931 18.0782C9.67992 18.0723 9.75014 18.0929 9.80543 18.1357C10.5163 18.5615 10.7327 20.0393 10.7861 20.7916C10.8174 21.2493 10.8331 21.9386 10.8331 21.9386C10.8331 21.9386 11.6489 21.9155 12.1508 21.9288C12.6643 21.9511 13.1759 22.0057 13.6821 22.0921C14.5891 22.2229 15.4751 22.4647 16.3185 22.8115C16.9137 23.0741 17.3889 23.5372 17.6545 24.1138C17.7418 24.313 17.777 24.5297 17.7573 24.7451C17.7376 24.9606 17.6634 25.168 17.5414 25.3495C17.401 25.5916 17.2021 25.7976 16.9618 25.9501C16.7213 26.1027 16.4463 26.1972 16.1601 26.2259C15.8234 26.2255 15.4909 26.1531 15.1868 26.0139C15.1535 25.9856 15.1333 25.9457 15.1302 25.9031C15.1271 25.8606 15.1414 25.8184 15.1702 25.7859C15.1904 25.761 15.4795 25.6139 15.65 25.5269C15.7305 25.4854 15.8053 25.4344 15.8727 25.3751C16.0146 25.2545 16.1417 25.1224 16.1278 24.9671C16.1085 24.7657 15.8866 24.6415 15.6757 24.5618C14.4053 24.1605 13.089 23.9094 11.7557 23.8139C11.3819 23.7926 10.8506 23.7748 10.8506 23.7748L10.9629 28.8535C10.9629 28.8535 11.4021 28.9342 11.7484 28.9883C11.9473 29.0176 12.7889 29.0903 13.0127 29.0956C14.7771 29.2057 16.5443 28.9271 18.1804 28.2812C18.8589 27.9966 19.4692 27.5801 19.9733 27.058C20.294 26.6971 20.5363 26.278 20.6858 25.8253C20.8353 25.3726 20.8889 24.8954 20.8434 24.4225C20.6257 23.2635 20.1024 22.1779 19.324 21.2697C17.4103 19.153 14.9908 17.5166 12.2741 16.5016C9.78824 15.4852 7.13245 14.9088 4.43424 14.8001C3.42494 14.7591 2.41412 14.8314 1.42221 15.0157C1.3117 15.0458 1.20028 15.0814 1.09715 15.1045C1.01124 15.1256 0.929025 15.1587 0.85313 15.2029C0.839368 15.2141 0.826444 15.2263 0.814455 15.2392C0.814455 15.2392 0.862339 15.265 0.906538 15.2837C0.988492 15.3182 1.33473 15.3386 1.51337 15.3723C1.59089 15.3823 1.66555 15.4071 1.73293 15.4453C1.8003 15.4836 1.85903 15.5344 1.90563 15.595C1.93929 15.6349 1.95766 15.6846 1.95766 15.736C1.95766 15.7875 1.93929 15.8372 1.90563 15.8771C1.72976 16.0829 1.0686 16.0483 0.777622 16.0039C0.48664 15.9596 0.09805 15.8682 0.0289878 15.6145C-0.0143695 15.3097 0.0668469 15.0005 0.255512 14.7522C0.409254 14.4957 0.618082 14.2738 0.868034 14.1012C1.11799 13.9286 1.4033 13.8095 1.7049 13.7516C2.70401 13.4948 3.72838 13.3399 4.76113 13.2894C6.77602 13.2463 8.78392 13.5325 10.6996 14.1357C11.9617 14.5133 13.195 14.9754 14.3903 15.5187C15.3128 15.9585 16.2104 16.4452 17.0791 16.9771C17.2955 17.1146 18.5653 18.0133 18.7623 18.1711C19.1739 18.4949 19.7118 18.9606 20.1013 19.3332C20.9461 20.1294 21.6688 21.0374 22.2476 22.03C22.3572 22.2393 22.442 22.446 22.5838 22.6882C22.6974 22.9232 22.7947 23.1654 22.8747 23.4129C22.9089 23.5549 22.9595 23.7677 22.9668 23.7722C23.0148 23.9929 23.0477 24.2163 23.0654 24.4411L23.058 24.4385ZM48.6727 23.318C47.526 23.4903 46.37 23.6002 45.2104 23.6471L44.8937 24.6016C45.6141 24.5442 46.3383 24.5404 47.0595 24.5901C47.0595 24.5901 47.355 24.5573 47.39 24.913C47.395 25.1428 47.3853 25.3728 47.3605 25.6014C47.3605 25.6014 47.3421 25.8169 47.0245 25.8676C46.681 25.9226 44.3227 26.0103 44.3227 26.0103L43.9405 27.2523C43.9405 27.2523 43.7988 27.5396 44.1165 27.4581C45.1333 27.2349 46.1655 27.0817 47.2049 26.9994C47.4056 27.0581 47.578 27.184 47.6909 27.3542C47.8039 27.5246 47.85 27.7281 47.821 27.9282C47.6893 28.4285 45.2233 29.9438 43.7215 29.8381C43.7215 29.8381 42.9322 29.887 42.2656 28.8623C41.644 27.8866 42.5013 26.0334 42.5013 26.0334C42.5013 26.0334 42.1091 25.1694 42.3936 24.8801C42.5909 24.7579 42.8221 24.696 43.0565 24.7027L43.6606 23.4981C43.4551 23.5063 43.2503 23.4707 43.0606 23.394C42.8709 23.3174 42.7011 23.2015 42.5631 23.0546C42.1819 22.5914 42.1495 22.3786 42.4424 22.2508C44.1285 21.845 45.8612 21.647 47.599 21.6619C47.599 21.6619 48.285 21.5971 48.879 22.7423C48.879 22.7423 49.1672 23.2054 48.6773 23.3172L48.6727 23.318ZM41.2573 27.9487C41.2045 28.1169 41.1158 28.2727 40.997 28.4061C40.8781 28.5394 40.7317 28.6475 40.567 28.7233C40.4023 28.799 40.2231 28.8407 40.0407 28.8459C39.8583 28.8511 39.6767 28.8196 39.5078 28.7532C38.6882 28.3727 37.3843 25.8001 37.3843 25.8001C37.3843 25.8001 36.8889 24.8411 36.794 24.866C36.794 24.866 36.6873 24.6788 36.6218 25.7274C36.5565 26.7759 36.6347 28.8065 36.2029 29.1267C36.1181 29.198 36.0182 29.2503 35.9101 29.2801C35.802 29.3099 35.6884 29.3164 35.5774 29.299C35.4664 29.2816 35.3607 29.2409 35.2681 29.1797C35.1752 29.1185 35.0976 29.0383 35.0408 28.9449C34.729 28.0461 34.659 27.0859 34.8373 26.1541C34.9873 24.6079 35.3594 22.9606 35.8364 22.4514C35.8925 22.3731 35.9675 22.309 36.0549 22.2646C36.1422 22.2202 36.2393 22.1967 36.3381 22.1962C36.4369 22.1957 36.5344 22.2181 36.6223 22.2616C36.71 22.3051 36.7858 22.3684 36.8429 22.446C37.495 23.1059 38.0609 23.8403 38.528 24.6326L38.7121 24.9343C39.0273 25.4689 39.3792 25.9824 39.7656 26.4717C39.7656 26.4717 39.8438 26.5426 39.9129 26.4911C40.0133 26.4637 39.9727 25.9696 39.9727 25.9696C39.7401 24.437 39.3832 22.9242 38.9055 21.4454C38.8291 21.224 38.8145 20.9872 38.8632 20.7587C38.9552 20.4235 39.3005 20.5813 39.3005 20.5813C40.3161 21.2182 41.0345 22.2109 41.3034 23.349C41.7797 24.8504 41.7646 26.4567 41.26 27.9495L41.2573 27.9487ZM55.7686 26.6827C55.1553 27.7145 53.4224 29.8763 51.1203 29.3644C50.2289 31.3609 49.6349 33.4688 49.356 35.6256C49.356 35.6256 49.2759 36.148 48.8247 35.9662C48.4645 35.7824 48.1554 35.5179 47.9237 35.1949C47.692 34.8719 47.5443 34.4999 47.4931 34.1104C47.3329 32.8099 47.9343 30.6126 49.1617 28.0924C48.707 27.3357 48.5665 26.4413 48.7685 25.589C49.1272 24.0169 50.0116 22.6017 51.2861 21.5607C51.2861 21.5607 51.5512 21.3407 51.7041 21.4081C51.8735 21.4765 51.7962 22.1656 51.6608 22.501C51.5255 22.8364 50.5383 24.4748 50.5383 24.4748C50.2014 25.0825 50.0485 25.7692 50.0973 26.4566C51.2557 24.7409 53.8892 21.2804 55.5219 22.3759C55.8097 22.6431 56.0312 22.9694 56.1699 23.3305C56.3086 23.6916 56.3609 24.0782 56.3229 24.4615C56.3308 25.2355 56.141 25.9995 55.7705 26.6863L55.7686 26.6827ZM55.2944 23.9691C55.2944 23.9691 55.2024 23.2869 54.5117 24.0383C53.5156 25.0729 52.6636 26.2281 51.9776 27.475C52.7231 27.3848 53.43 27.1039 54.0246 26.6615C54.4403 26.3398 54.7718 25.9286 54.9926 25.461C55.2133 24.9934 55.317 24.4825 55.2953 23.9691H55.2944ZM68.4539 23.8139H64.2145C64.1305 22.4332 63.9537 21.0591 63.685 19.7004C63.6717 19.631 63.6335 19.5682 63.5771 19.523C63.5208 19.4778 63.4498 19.453 63.3766 19.4529H62.4041C62.3623 19.4538 62.3211 19.4634 62.2836 19.4812C62.246 19.4988 62.2129 19.5242 62.1866 19.5556C62.1603 19.587 62.1414 19.6235 62.1312 19.6626C62.1211 19.7017 62.12 19.7425 62.1279 19.7821C62.4023 21.113 62.582 22.4603 62.6657 23.8148H58.6029C58.5123 23.8148 58.4253 23.8494 58.3611 23.9112C58.2968 23.9728 58.2607 24.0565 58.2605 24.1439V24.9893C58.2605 25.0769 58.2965 25.1609 58.3606 25.2229C58.4249 25.285 58.512 25.3199 58.6029 25.3201H62.7199C62.7199 25.5287 62.7245 25.7158 62.7245 25.8906C62.7291 27.0111 62.6676 28.1309 62.5404 29.2447C62.5358 29.2874 62.5405 29.3306 62.5542 29.3716C62.568 29.4125 62.5904 29.4502 62.6201 29.4823C62.6499 29.5144 62.6862 29.5401 62.7269 29.5578C62.7675 29.5756 62.8116 29.5849 62.8563 29.5853H63.7587C63.8434 29.5855 63.9251 29.5552 63.988 29.5004C64.0508 29.4456 64.0903 29.3702 64.0984 29.289C64.2211 28.1604 64.2799 27.0262 64.2744 25.8915C64.2744 25.7141 64.2744 25.5295 64.2744 25.321H68.4365C68.5274 25.3208 68.6146 25.2858 68.6788 25.2238C68.7429 25.1618 68.7791 25.0778 68.7791 24.9902V24.1447C68.7788 24.0573 68.7426 23.9735 68.6784 23.9117C68.6143 23.8499 68.5273 23.815 68.4365 23.8148" fill="#101C50"></path>
<path d="M12.0151 12.4801C11.9856 12.522 11.9668 12.5701 11.96 12.6203C11.9531 12.6704 11.9584 12.7214 11.9754 12.7693C11.9925 12.8174 12.0207 12.8609 12.0578 12.8969C12.095 12.9329 12.1402 12.9602 12.19 12.9769L12.946 13.2217C12.9897 13.2354 13.0353 13.2425 13.0813 13.2429C13.1503 13.2433 13.2183 13.2273 13.2793 13.1964C13.3403 13.1654 13.3925 13.1205 13.4313 13.0655C15.954 9.4833 19.349 6.55059 23.3196 4.52364C27.29 2.49668 31.7154 1.43714 36.2089 1.43757C41.6212 1.43926 46.9133 2.97655 51.4244 5.85757C55.9355 8.73861 59.4659 12.8357 61.575 17.6376C61.6055 17.7073 61.6568 17.7667 61.7223 17.8083C61.7879 17.8498 61.8648 17.8716 61.9433 17.871H62.8467C62.8982 17.8707 62.949 17.8585 62.9944 17.835C63.04 17.8116 63.0787 17.7778 63.1076 17.7365C63.1364 17.6954 63.1543 17.648 63.1597 17.5986C63.1651 17.5492 63.1579 17.4993 63.1385 17.4531C61.1479 12.7385 57.861 8.63565 53.6313 5.58567C49.4016 2.53569 44.3889 0.653922 39.1323 0.142638C33.8756 -0.368648 28.5738 0.509891 23.7966 2.68381C19.0194 4.85773 14.9476 8.24482 12.0187 12.481" fill="url(#paint0_linear_543_38977)"></path>
</g>
</g>
<defs>
<linearGradient id="paint0_linear_543_38977" x1="63.1614" y1="17.871" x2="33.0547" y2="-9.15995" gradientUnits="userSpaceOnUse">
<stop stop-color="#101C50"></stop>
<stop offset="0.236" stop-color="#0D267A"></stop>
<stop offset="0.497" stop-color="#085AA4"></stop>
<stop offset="0.655" stop-color="#058BBF"></stop>
<stop offset="1" stop-color="#B1FFFF"></stop>
</linearGradient>
<clipPath id="clip0_543_38977">
<rect width="69" height="36" fill="white"></rect>
</clipPath>
</defs>
</svg>