<svg width="24" height="24" xmlns="http://www.w3.org/2000/svg"><path d="M12 9C12.8333 9 13.5417 8.70833 14.125 8.125C14.7083 7.54167 15 6.83333 15 6C15 5.16667 14.7083 4.45833 14.125 3.875C13.5417 3.29167 12.8333 3 12 3C11.1667 3 10.4583 3.29167 9.875 3.875C9.29167 4.45833 9 5.16667 9 6C9 6.83333 9.29167 7.54167 9.875 8.125C10.4583 8.70833 11.1667 9 12 9ZM6 13.75C6.75 12.8667 7.65 12.1875 8.7 11.7125C9.75 11.2375 10.85 11 12 11C13.15 11 14.25 11.2375 15.3 11.7125C16.35 12.1875 17.25 12.8667 18 13.75V2H6V13.75ZM6 16C5.45 16 4.97917 15.8042 4.5875 15.4125C4.19583 15.0208 4 14.55 4 14V2C4 1.45 4.19583 0.979167 4.5875 0.5875C4.97917 0.195833 5.45 0 6 0H18C18.55 0 19.0208 0.195833 19.4125 0.5875C19.8042 0.979167 20 1.45 20 2V14C20 14.55 19.8042 15.0208 19.4125 15.4125C19.0208 15.8042 18.55 16 18 16H6ZM2 20C1.45 20 0.979167 19.8042 0.5875 19.4125C0.195833 19.0208 0 18.55 0 18V4H2V18H16V20H2ZM12 7C11.7167 7 11.4792 6.90417 11.2875 6.7125C11.0958 6.52083 11 6.28333 11 6C11 5.71667 11.0958 5.47917 11.2875 5.2875C11.4792 5.09583 11.7167 5 12 5C12.2833 5 12.5208 5.09583 12.7125 5.2875C12.9042 5.47917 13 5.71667 13 6C13 6.28333 12.9042 6.52083 12.7125 6.7125C12.5208 6.90417 12.2833 7 12 7ZM8.7 14H15.3C14.8167 13.6667 14.2917 13.4167 13.725 13.25C13.1583 13.0833 12.5833 13 12 13C11.4167 13 10.8417 13.0833 10.275 13.25C9.70833 13.4167 9.18333 13.6667 8.7 14Z" fill="#2B6FDF"></path></svg>