<svg width="386" height="322" viewBox="0 0 386 322" fill="none" xmlns="http://www.w3.org/2000/svg">
<g clip-path="url(#clip0_3406_17370)">
<path d="M20.9149 113.768C18.9476 112.5 27.7044 112.233 27.7044 112.233L28.4608 115.778C28.4608 115.778 21.4964 114.144 20.9149 113.768Z" fill="#DDDDDD"></path>
<path d="M57.2976 122.728L52.1738 82.8855C52.1738 82.8855 99.7178 84.3105 109.712 84.4373L113.152 123.301C113.152 123.301 90.1084 123.454 57.2976 122.733V122.728Z" fill="#EFEFEF"></path>
<path d="M95.1404 117.448L106.931 176.808C106.931 176.808 75.8386 176.026 54.7444 173.141C30.8347 169.867 30.6161 166.925 30.6161 166.925L20.6221 113.435C20.727 114.004 25.8027 115.429 49.7255 116.447C73.5609 117.461 95.1404 117.453 95.1404 117.453V117.448Z" fill="#646464"></path>
<path opacity="0.05" d="M72.573 174.994L69.7007 159.136L85.0022 159.73L86.6941 175.855L72.573 174.994Z" fill="black"></path>
<path d="M73.5215 155.35L80.2148 188.615C80.2148 188.615 106.778 191.609 140.031 191.535L134.028 158.039C134.321 158.056 97.0508 157.728 73.5215 155.355V155.35Z" fill="#1E1E1E"></path>
<path d="M38.1446 22.7212C38.1446 22.7212 25.663 20.5881 14.9869 17.5939L23.4158 58.2149C23.4158 58.2149 9.68382 59.1197 10.3746 61.891C11.0653 64.6623 46.8315 66.7954 46.8315 66.7954L38.1446 22.7256V22.7212Z" fill="#EFEFEF"></path>
<path d="M17.2557 28.5173C17.2557 28.5173 31.3943 31.6077 35.7181 31.9662L41.2135 61.2572C41.2135 61.2572 14.2435 60.2474 12.145 55.3605C10.0465 50.4736 8.84863 28.5173 8.84863 28.5173H17.2557Z" fill="#B3DDFF"></path>
<path d="M23.4158 58.2104L14.9869 17.5894L11.7604 2.04565C11.7604 2.04565 -1.18902 4.1744 0.0875672 10.3027L10.3745 61.8866C9.67942 59.1153 23.4158 58.2104 23.4158 58.2104Z" fill="#646464"></path>
<path d="M65.2283 41.1237L70.3346 74.5804C70.3346 74.5804 93.6147 75.7212 125.73 76.5168L123.068 44.166C123.068 44.166 101.279 43.6983 65.2283 41.1237Z" fill="#EFEFEF"></path>
<path d="M142.929 89.3286L140.944 53.6863H200.27L201.022 89.3286H142.929Z" fill="#EFEFEF"></path>
<path opacity="0.6" d="M146.986 85.7617L145.093 56.9297H196.261L197.149 86.1027C197.149 86.1027 161.291 85.9934 146.986 85.7661V85.7617Z" fill="#2B6FDF"></path>
<mask id="mask0_3406_17370" style="mask-type:luminance" maskUnits="userSpaceOnUse" x="145" y="56" width="53" height="31">
<path d="M146.986 85.7617L145.093 56.9297H196.261L197.149 86.1027C197.149 86.1027 161.291 85.9934 146.986 85.7661V85.7617Z" fill="white"></path>
</mask>
<g mask="url(#mask0_3406_17370)">
<path d="M165.759 80.442L155.822 87.4271L171.285 91.1513L185.244 86.142L176.811 80.3677L165.759 80.442Z" fill="#1E1E1E"></path>
<path d="M166.367 74.7158H176.208V79.9481C176.208 82.6626 174.004 84.87 171.285 84.87C168.57 84.87 166.362 82.6669 166.362 79.9481V74.7158H166.367Z" fill="#FF8438"></path>
<path d="M163.779 71.4025C163.822 69.571 164.793 69.6803 165.444 70.7949C165.453 70.8124 165.462 70.8255 165.471 70.843C165.497 72.3642 165.68 75.5639 165.217 75.5726C165.217 75.5726 164.15 75.2885 163.827 72.4079C163.783 72.0232 163.77 71.691 163.774 71.4025H163.779Z" fill="#FF8438"></path>
<path d="M168.942 75.035C169.667 75.0481 169.711 74.235 169.711 74.235C169.711 74.235 170.253 74.2438 172.116 74.2744C173.974 74.305 173.764 73.0592 173.759 71.5774C173.755 70.4015 173.716 68.4302 173.698 67.6652C173.191 67.9362 172.61 68.0848 171.989 68.0717C170.616 68.0499 169.444 67.25 168.872 66.1003C168.631 66.9527 166.297 67.6128 165.431 67.8051C165.256 67.8444 165.073 67.8663 164.885 67.8619C164.989 69.9775 165.099 72.4866 165.116 74.0427L168.233 74.0646C168.233 74.0646 168.216 75.0175 168.942 75.0262V75.035Z" fill="#FF8438"></path>
<path d="M179.495 66.1965C179.517 64.8589 178.643 63.7137 177.423 63.3334C177.48 63.0842 177.515 62.822 177.519 62.5553C177.554 60.4965 175.911 58.8005 173.851 58.7699C173.148 58.7568 172.483 58.9491 171.919 59.277C171.285 58.5776 170.376 58.1274 169.357 58.1099C168.164 58.0924 167.097 58.6694 166.445 59.5655C165.283 59.6179 164.347 60.5621 164.329 61.7379C164.329 61.7423 164.329 61.7467 164.329 61.751C162.983 61.8647 161.912 62.9837 161.89 64.3606C161.881 64.9157 162.043 65.4315 162.323 65.8643C162.196 66.1309 162.122 66.4282 162.117 66.7473C162.1 67.9449 163.053 68.9328 164.251 68.9503C164.483 68.9503 164.714 68.9022 164.924 68.8367C164.924 68.8367 164.867 67.8532 164.876 67.8532C165.064 67.8532 166.887 67.8357 167.062 67.7963C167.928 67.604 168.623 66.944 168.863 66.0916C169.436 67.2412 170.607 68.0411 171.98 68.063C172.597 68.0717 173.178 67.9231 173.69 67.6565C173.707 68.4214 173.746 70.3928 173.751 71.5686C173.76 73.0504 173.969 74.2962 172.107 74.2656L169.703 74.2263C169.703 74.2263 169.659 75.0393 168.933 75.0262C168.207 75.0131 168.225 74.0645 168.225 74.0645L164.644 74.0427C164.644 74.3399 164.644 74.6066 164.644 74.8251C164.609 76.8883 165.396 80.4377 169.187 80.4377C175.325 80.4377 176.037 75.5551 176.037 75.5551C175.351 75.542 176.326 72.3467 176.352 70.8255L174.957 70.7469C174.957 70.7469 176.335 70.8168 176.352 70.8255C177.314 69.7153 177.047 70.0649 177.48 71.3981C178.228 71.2102 178.787 70.5414 178.8 69.7327C178.809 69.2563 178.621 68.8192 178.315 68.4957C179.01 67.9668 179.469 67.1363 179.487 66.1965H179.495Z" fill="#FFC302"></path>
<path d="M177.489 71.4025C177.445 69.571 176.474 69.6803 175.823 70.7949C175.814 70.8124 175.806 70.8255 175.797 70.843C175.771 72.3642 175.587 75.5639 176.05 75.5726C176.05 75.5726 177.117 75.2885 177.441 72.4079C177.484 72.0232 177.497 71.691 177.493 71.4025H177.489Z" fill="#FF8438"></path>
<path d="M165.212 67.8619H164.657V74.3225H165.212V67.8619Z" fill="#FFC302"></path>
<path opacity="0.15" d="M171.989 68.0717C170.616 68.0499 169.444 67.25 168.872 66.1003C168.631 66.9527 167.936 67.6128 167.07 67.8051C166.939 67.8357 165.475 67.8532 164.666 67.8619H164.657V68.2422C165.033 68.2335 165.654 68.2291 166.625 68.2291C168.592 68.2291 168.924 67.0664 168.924 67.0664C170.476 69.0334 172.946 68.4782 173.711 68.2422C173.707 68.0149 173.703 67.8138 173.698 67.6652C173.191 67.9362 172.61 68.0848 171.989 68.0717Z" fill="black"></path>
<path opacity="0.5" d="M166.927 69.6011L166.922 69.6012C165.966 69.6132 165.201 70.3978 165.213 71.3538L165.213 71.3581C165.225 72.314 166.01 73.0792 166.966 73.0672L166.97 73.0672C167.926 73.0551 168.692 72.2705 168.68 71.3146L168.68 71.3102C168.668 70.3543 167.883 69.5891 166.927 69.6011Z" fill="url(#paint0_linear_3406_17370)"></path>
<path opacity="0.5" d="M171.617 69.5422L171.612 69.5422C170.656 69.5542 169.891 70.3389 169.903 71.2948L169.903 71.2992C169.915 72.2551 170.7 73.0203 171.656 73.0083L171.66 73.0082C172.616 72.9962 173.382 72.2115 173.37 71.2556L173.369 71.2512C173.357 70.2953 172.573 69.5301 171.617 69.5422Z" fill="url(#paint1_linear_3406_17370)"></path>
<path d="M166.944 73.3215C165.855 73.3215 164.968 72.4429 164.955 71.3545C164.946 70.8212 165.147 70.3185 165.519 69.9382C165.89 69.5579 166.389 69.3437 166.918 69.3394C168.019 69.3263 168.92 70.2092 168.933 71.3064C168.942 71.8397 168.741 72.3423 168.369 72.7226C167.997 73.1029 167.499 73.3171 166.97 73.3215C166.961 73.3215 166.953 73.3215 166.944 73.3215ZM166.944 69.8552C166.944 69.8552 166.931 69.8552 166.926 69.8552C166.533 69.8595 166.166 70.0169 165.89 70.301C165.615 70.5852 165.466 70.9567 165.47 71.3501C165.479 72.1631 166.144 72.8144 166.966 72.8057C167.359 72.8013 167.726 72.644 168.002 72.3598C168.277 72.0757 168.426 71.7042 168.421 71.3108C168.413 70.5021 167.753 69.8552 166.948 69.8552H166.944Z" fill="#1E1E1E"></path>
<path d="M171.639 73.2646C170.551 73.2646 169.663 72.386 169.65 71.2976C169.641 70.7643 169.842 70.2616 170.214 69.8813C170.586 69.501 171.084 69.2869 171.613 69.2825C172.701 69.2694 173.615 70.1523 173.628 71.2495C173.637 71.7828 173.436 72.2855 173.064 72.6658C172.693 73.046 172.194 73.2602 171.665 73.2646C171.665 73.2646 171.648 73.2646 171.639 73.2646ZM171.639 69.7983C171.639 69.7983 171.626 69.7983 171.622 69.7983C171.228 69.8027 170.861 69.96 170.586 70.2441C170.31 70.5283 170.161 70.8998 170.166 71.2932C170.175 72.1063 170.843 72.7575 171.661 72.7488C172.054 72.7444 172.422 72.5871 172.697 72.303C172.973 72.0188 173.121 71.6473 173.117 71.2539C173.108 70.4452 172.448 69.7983 171.643 69.7983H171.639Z" fill="#1E1E1E"></path>
<path d="M168.679 71.5687C168.539 71.5687 168.421 71.455 168.421 71.3152C168.421 71.1709 168.535 71.0573 168.675 71.0529L169.903 71.0354C170.03 71.0354 170.161 71.1491 170.166 71.2889C170.166 71.4332 170.052 71.5468 169.912 71.5512L168.684 71.5687H168.679Z" fill="#1E1E1E"></path>
<path d="M173.37 71.5074C173.261 71.5074 173.161 71.4374 173.126 71.3282C173.082 71.1927 173.156 71.0484 173.292 71.0003L175.368 70.3184C175.504 70.2747 175.648 70.349 175.696 70.4845C175.74 70.62 175.666 70.7643 175.53 70.8124L173.453 71.4943C173.427 71.503 173.401 71.5074 173.375 71.5074H173.37Z" fill="#1E1E1E"></path>
<path d="M169.152 76.9976C168.684 76.9976 168.212 76.9146 167.77 76.7528C167.346 76.5955 167.127 76.1234 167.281 75.6994C167.438 75.2754 167.906 75.0568 168.33 75.2098C168.811 75.389 169.344 75.4022 169.834 75.2535C170.266 75.1224 170.726 75.3628 170.861 75.7955C170.992 76.2283 170.752 76.6873 170.319 76.8228C169.939 76.9408 169.545 76.9976 169.147 76.9976H169.152Z" fill="#FF8438"></path>
<path d="M171.285 86.3255C167.783 86.3255 164.937 83.4799 164.937 79.9786C164.937 79.524 165.304 79.1569 165.759 79.1569C166.214 79.1569 166.581 79.524 166.581 79.9786C166.581 82.5751 168.692 84.682 171.285 84.682C173.877 84.682 175.989 82.5707 175.989 79.9786C175.989 79.524 176.356 79.1569 176.811 79.1569C177.266 79.1569 177.633 79.524 177.633 79.9786C177.633 83.4799 174.787 86.3255 171.285 86.3255Z" fill="#646464"></path>
</g>
<path opacity="0.1" d="M186.766 53.6863V63.2897H200.472L200.271 53.6863H186.766Z" fill="black"></path>
<path opacity="0.1" d="M156.023 81.9501L156.058 89.3286H176.466L176.387 81.7971L156.023 81.9501Z" fill="black"></path>
<path d="M137.478 104.44H178.945L179.592 130.767L139.091 130.833L137.478 104.44Z" fill="#EFEFEF"></path>
<path d="M151.201 82.584L151.612 93.7828H173.222L172.815 82.584H151.201Z" fill="#EFEFEF"></path>
<path d="M231.088 95.693H192.209V108.033H231.088V95.693Z" fill="#EFEFEF"></path>
<path d="M254.892 82.4353L228.027 82.5708V70.3403L254.892 70.2048V82.4353Z" fill="#EFEFEF"></path>
<path d="M212.516 150.188C212.516 150.188 231.682 150.232 261.525 150.879L262.084 118.375H212.516V150.188Z" fill="#EFEFEF"></path>
<path d="M277.875 69.9426L278.688 41.928C278.688 41.928 305.212 41.3291 321.826 40.1708L319.233 69.2695C319.233 69.2695 306.786 69.6716 277.875 69.9426Z" fill="#EFEFEF"></path>
<path d="M267.492 84.3542C267.492 84.3542 294.479 84.5903 315.342 84.3542L314.122 111.337C314.122 111.337 279.536 111.241 267.081 111.036L267.488 84.3499L267.492 84.3542Z" fill="#EFEFEF"></path>
<path d="M289.102 120.394C289.102 120.394 314.529 120.473 329.918 120.932L327.915 144.523C327.915 144.523 306.673 143.544 288.228 143.286L289.102 120.394Z" fill="#EFEFEF"></path>
<path d="M331.26 102.639C330.88 102.639 333.052 77.1724 333.052 77.1724C333.052 77.1724 357.439 77.0938 371.818 77.0938L368.316 103.915C368.316 103.915 356.604 102.634 331.26 102.634V102.639Z" fill="#EFEFEF"></path>
<path d="M372.329 53.3803L376.286 12.4358C357.08 15.041 337.236 15.8934 337.236 15.8934L334.504 62.5422C351.834 62.175 379.928 60.3741 380.356 57.5591C380.784 54.744 372.329 53.3759 372.329 53.3759V53.3803Z" fill="#EFEFEF"></path>
<path d="M377.024 4.80383L376.356 11.7146L372.329 53.3803C372.329 53.3803 380.78 54.7441 380.356 57.5635L385.991 8.8078C386.302 5.81794 377.024 4.80383 377.024 4.80383Z" fill="#646464"></path>
<path d="M182.162 60.4267L181.345 27.0137H240.26V60.4267H182.162Z" fill="#EFEFEF"></path>
<path d="M186.748 41.8581L186.503 31.8525H199.107L199.287 41.8581H186.748Z" fill="#B3DDFF"></path>
<path d="M200.559 41.858L200.472 37.4912H204.887L204.948 41.858H200.559Z" fill="#B3DDFF"></path>
<path opacity="0.7" d="M281.46 48.5721L281.583 44.5375L285.946 44.4326L285.858 48.4366L281.46 48.5721Z" fill="#AAAAAA"></path>
<path opacity="0.7" d="M286.667 48.4017L286.789 44.3671L291.192 44.2622L291.065 48.2662L286.667 48.4017Z" fill="#AAAAAA"></path>
<path d="M291.419 20.6886L255.413 21.3093V1.26763L291.419 0V20.6886Z" fill="#EFEFEF"></path>
<path opacity="0.1" d="M97.3569 43.1169L98.1395 49.0835L123.732 50.2026L123.068 44.166L97.3569 43.1169Z" fill="black"></path>
<path d="M87.293 1.72227L93.2999 45.709C93.2999 45.709 135.908 47.5974 154.869 47.5974L152.294 6.55675C152.294 6.55675 121.472 5.15361 87.293 1.7179V1.72227Z" fill="#EFEFEF"></path>
<path opacity="0.7" d="M258.324 7.22551L258.302 3.99961L261.887 3.88159L261.874 7.11624L258.324 7.22551Z" fill="#AAAAAA"></path>
<path d="M187.666 221.682H148.744L150.221 221.429H188.34L187.666 221.682Z" fill="url(#paint2_linear_3406_17370)"></path>
<path d="M188.34 221.429L195.208 247.437L194.762 247.778L187.666 221.682L188.34 221.429Z" fill="#7F7F7F"></path>
<path d="M234.799 33.4786C234.747 33.4786 234.695 33.4568 234.655 33.4174L233.234 31.9968C233.156 31.9181 233.156 31.787 233.234 31.7083C233.313 31.6296 233.444 31.6296 233.523 31.7083L234.944 33.1289C235.022 33.2076 235.022 33.3387 234.944 33.4174C234.904 33.4568 234.852 33.4786 234.799 33.4786Z" fill="#CDCDCD"></path>
<path d="M233.379 33.4786C233.326 33.4786 233.274 33.4568 233.234 33.4174C233.156 33.3387 233.156 33.2076 233.234 33.1289L234.655 31.7083C234.734 31.6296 234.865 31.6296 234.944 31.7083C235.022 31.787 235.022 31.9181 234.944 31.9968L233.523 33.4174C233.484 33.4568 233.431 33.4786 233.379 33.4786Z" fill="#CDCDCD"></path>
<path d="M231.52 33.4218C231.048 33.4218 230.659 33.0372 230.659 32.5607C230.659 32.0842 231.044 31.6996 231.52 31.6996C231.997 31.6996 232.382 32.0842 232.382 32.5607C232.382 33.0372 231.997 33.4218 231.52 33.4218ZM231.52 32.1105C231.271 32.1105 231.07 32.3115 231.07 32.5607C231.07 32.8099 231.271 33.0109 231.52 33.0109C231.77 33.0109 231.971 32.8099 231.971 32.5607C231.971 32.3115 231.77 32.1105 231.52 32.1105Z" fill="#CDCDCD"></path>
<path d="M251.994 74.1477C251.942 74.1477 251.889 74.1258 251.85 74.0865L250.429 72.6659C250.35 72.5872 250.35 72.4561 250.429 72.3774C250.508 72.2987 250.639 72.2987 250.717 72.3774L252.138 73.798C252.217 73.8767 252.217 74.0078 252.138 74.0865C252.099 74.1258 252.046 74.1477 251.994 74.1477Z" fill="#CDCDCD"></path>
<path d="M250.573 74.1477C250.521 74.1477 250.468 74.1258 250.429 74.0865C250.35 74.0078 250.35 73.8767 250.429 73.798L251.85 72.3774C251.928 72.2987 252.06 72.2987 252.138 72.3774C252.217 72.4561 252.217 72.5872 252.138 72.6659L250.717 74.0865C250.678 74.1258 250.626 74.1477 250.573 74.1477Z" fill="#CDCDCD"></path>
<path d="M248.715 74.0909C248.243 74.0909 247.854 73.7062 247.854 73.2298C247.854 72.7533 248.238 72.3687 248.715 72.3687C249.192 72.3687 249.576 72.7533 249.576 73.2298C249.576 73.7062 249.192 74.0909 248.715 74.0909ZM248.715 72.7795C248.466 72.7795 248.265 72.9806 248.265 73.2298C248.265 73.4789 248.466 73.68 248.715 73.68C248.964 73.68 249.165 73.4789 249.165 73.2298C249.165 72.9806 248.964 72.7795 248.715 72.7795Z" fill="#CDCDCD"></path>
<path d="M146.903 13.0347C146.851 13.0347 146.798 13.0129 146.759 12.9735L145.36 11.531C145.281 11.4524 145.286 11.3212 145.364 11.2425C145.443 11.1639 145.574 11.1682 145.653 11.2469L147.052 12.6894C147.13 12.7681 147.126 12.8992 147.047 12.9779C147.008 13.0172 146.956 13.0347 146.907 13.0347H146.903Z" fill="#CDCDCD"></path>
<path d="M145.482 13.0128C145.43 13.0128 145.377 12.991 145.338 12.9516C145.259 12.873 145.264 12.7418 145.343 12.6632L146.785 11.2644C146.864 11.1857 146.995 11.1901 147.074 11.2688C147.152 11.3474 147.148 11.4786 147.069 11.5573L145.627 12.956C145.587 12.9954 145.535 13.0128 145.487 13.0128H145.482Z" fill="#CDCDCD"></path>
<path d="M143.637 12.9298C143.637 12.9298 143.629 12.9298 143.624 12.9298C143.152 12.921 142.772 12.532 142.776 12.0555C142.781 11.5791 143.174 11.1988 143.651 11.2075C144.123 11.2163 144.503 11.6053 144.499 12.0818C144.499 12.3134 144.403 12.5276 144.236 12.685C144.075 12.8424 143.865 12.9254 143.637 12.9254V12.9298ZM143.637 11.6184C143.393 11.6184 143.191 11.8151 143.187 12.0643C143.187 12.3134 143.384 12.5189 143.633 12.5233C143.755 12.5233 143.869 12.4795 143.957 12.3965C144.044 12.3134 144.092 12.1998 144.092 12.0774C144.092 11.8282 143.895 11.6228 143.646 11.6184C143.646 11.6184 143.642 11.6184 143.637 11.6184Z" fill="#CDCDCD"></path>
<path d="M170.341 86.3038C170.288 86.3038 170.236 86.282 170.196 86.2426L168.776 84.822C168.697 84.7433 168.697 84.6122 168.776 84.5335C168.854 84.4548 168.985 84.4548 169.064 84.5335L170.485 85.9541C170.564 86.0328 170.564 86.1639 170.485 86.2426C170.446 86.282 170.393 86.3038 170.341 86.3038Z" fill="#CDCDCD"></path>
<path d="M168.92 86.3038C168.867 86.3038 168.815 86.282 168.776 86.2426C168.697 86.1639 168.697 86.0328 168.776 85.9541L170.196 84.5335C170.275 84.4548 170.406 84.4548 170.485 84.5335C170.564 84.6122 170.564 84.7433 170.485 84.822L169.064 86.2426C169.025 86.282 168.972 86.3038 168.92 86.3038Z" fill="#CDCDCD"></path>
<path d="M167.062 86.247C166.59 86.247 166.2 85.8623 166.2 85.3859C166.2 84.9094 166.585 84.5248 167.062 84.5248C167.538 84.5248 167.923 84.9094 167.923 85.3859C167.923 85.8623 167.538 86.247 167.062 86.247ZM167.062 84.9357C166.812 84.9357 166.611 85.1367 166.611 85.3859C166.611 85.6351 166.812 85.8361 167.062 85.8361C167.311 85.8361 167.512 85.6351 167.512 85.3859C167.512 85.1367 167.311 84.9357 167.062 84.9357Z" fill="#CDCDCD"></path>
<path d="M229.147 98.7572C229.094 98.7572 229.042 98.7353 229.002 98.696L227.581 97.2754C227.503 97.1967 227.503 97.0655 227.581 96.9869C227.66 96.9082 227.791 96.9082 227.87 96.9869L229.291 98.4075C229.37 98.4862 229.37 98.6173 229.291 98.696C229.252 98.7353 229.199 98.7572 229.147 98.7572Z" fill="#CDCDCD"></path>
<path d="M227.726 98.7572C227.673 98.7572 227.621 98.7353 227.581 98.696C227.503 98.6173 227.503 98.4862 227.581 98.4075L229.002 96.9869C229.081 96.9082 229.212 96.9082 229.291 96.9869C229.37 97.0655 229.37 97.1967 229.291 97.2754L227.87 98.696C227.831 98.7353 227.778 98.7572 227.726 98.7572Z" fill="#CDCDCD"></path>
<path d="M225.868 98.7048C225.395 98.7048 225.006 98.3201 225.006 97.8437C225.006 97.3672 225.391 96.9825 225.868 96.9825C226.344 96.9825 226.729 97.3672 226.729 97.8437C226.729 98.3201 226.344 98.7048 225.868 98.7048ZM225.868 97.3934C225.618 97.3934 225.417 97.5945 225.417 97.8437C225.417 98.0928 225.618 98.2939 225.868 98.2939C226.117 98.2939 226.318 98.0928 226.318 97.8437C226.318 97.5945 226.117 97.3934 225.868 97.3934Z" fill="#CDCDCD"></path>
<path d="M311.04 89.0969C310.988 89.0969 310.935 89.075 310.896 89.0357L309.475 87.6151C309.396 87.5364 309.396 87.4053 309.475 87.3266C309.554 87.2479 309.685 87.2479 309.764 87.3266L311.184 88.7472C311.263 88.8259 311.263 88.957 311.184 89.0357C311.145 89.075 311.093 89.0969 311.04 89.0969Z" fill="#CDCDCD"></path>
<path d="M309.619 89.0969C309.567 89.0969 309.514 89.075 309.475 89.0357C309.396 88.957 309.396 88.8259 309.475 88.7472L310.896 87.3266C310.975 87.2479 311.106 87.2479 311.184 87.3266C311.263 87.4053 311.263 87.5364 311.184 87.6151L309.764 89.0357C309.724 89.075 309.672 89.0969 309.619 89.0969Z" fill="#CDCDCD"></path>
<path d="M307.761 89.0401C307.289 89.0401 306.9 88.6554 306.9 88.179C306.9 87.7025 307.285 87.3179 307.761 87.3179C308.238 87.3179 308.622 87.7025 308.622 88.179C308.622 88.6554 308.238 89.0401 307.761 89.0401ZM307.761 87.7288C307.512 87.7288 307.311 87.9298 307.311 88.179C307.311 88.4281 307.512 88.6292 307.761 88.6292C308.01 88.6292 308.211 88.4281 308.211 88.179C308.211 87.9298 308.01 87.7288 307.761 87.7288Z" fill="#CDCDCD"></path>
<path d="M326.254 125.701C326.202 125.701 326.145 125.679 326.106 125.635L324.733 124.167C324.654 124.084 324.659 123.957 324.742 123.878C324.825 123.799 324.951 123.804 325.03 123.887L326.403 125.356C326.482 125.439 326.477 125.565 326.394 125.644C326.355 125.679 326.307 125.701 326.254 125.701Z" fill="#CDCDCD"></path>
<path d="M324.838 125.653C324.785 125.653 324.729 125.631 324.689 125.587C324.611 125.504 324.615 125.377 324.698 125.299L326.167 123.926C326.25 123.847 326.377 123.852 326.455 123.935C326.534 124.018 326.53 124.145 326.447 124.223L324.978 125.596C324.938 125.631 324.89 125.653 324.838 125.653Z" fill="#CDCDCD"></path>
<path d="M323.002 125.535C323.002 125.535 322.984 125.535 322.971 125.535C322.744 125.526 322.529 125.43 322.372 125.264C322.215 125.098 322.132 124.879 322.14 124.647C322.149 124.42 322.245 124.206 322.411 124.049C322.577 123.891 322.8 123.808 323.028 123.817C323.5 123.834 323.876 124.232 323.858 124.704C323.841 125.168 323.461 125.535 323.002 125.535ZM323.002 124.223C322.888 124.223 322.779 124.267 322.691 124.346C322.604 124.429 322.551 124.538 322.547 124.661C322.547 124.783 322.586 124.897 322.669 124.984C322.752 125.071 322.862 125.124 322.984 125.128C323.238 125.133 323.443 124.94 323.452 124.691C323.461 124.442 323.264 124.232 323.015 124.223C323.01 124.223 323.006 124.223 322.997 124.223H323.002Z" fill="#CDCDCD"></path>
<path d="M317.323 45.3025C317.274 45.3025 317.222 45.285 317.187 45.25L315.705 43.8906C315.622 43.8163 315.617 43.6852 315.692 43.6021C315.766 43.5191 315.897 43.5147 315.98 43.589L317.462 44.9484C317.545 45.0227 317.55 45.1539 317.476 45.2369C317.436 45.2806 317.379 45.3025 317.327 45.3025H317.323Z" fill="#CDCDCD"></path>
<path d="M315.902 45.3637C315.854 45.3637 315.801 45.3463 315.766 45.3113C315.683 45.237 315.679 45.1058 315.753 45.0228L317.113 43.541C317.187 43.4579 317.318 43.4535 317.401 43.5279C317.484 43.6022 317.489 43.7333 317.414 43.8163L316.055 45.2982C316.015 45.3419 315.959 45.3637 315.906 45.3637H315.902Z" fill="#CDCDCD"></path>
<path d="M314.017 45.3899C313.803 45.3899 313.598 45.3112 313.436 45.1626C313.265 45.0053 313.169 44.7954 313.156 44.5681C313.134 44.0961 313.506 43.6939 313.978 43.6721C314.446 43.6502 314.852 44.0217 314.874 44.4938C314.896 44.9659 314.525 45.3681 314.052 45.3899C314.039 45.3899 314.026 45.3899 314.013 45.3899H314.017ZM314.017 44.0786C314.017 44.0786 314.004 44.0786 313.996 44.0786C313.746 44.0873 313.554 44.3015 313.563 44.5507C313.567 44.673 313.62 44.7823 313.707 44.8654C313.794 44.9484 313.913 44.9878 314.031 44.9834C314.28 44.9747 314.472 44.7605 314.463 44.5113C314.455 44.2709 314.254 44.0786 314.013 44.0786H314.017Z" fill="#CDCDCD"></path>
<path d="M368.438 82.5621C368.386 82.5621 368.329 82.5402 368.29 82.4965L366.904 81.0409C366.825 80.9579 366.829 80.8311 366.913 80.7524C366.996 80.6737 367.122 80.6781 367.201 80.7612L368.587 82.2168C368.666 82.2998 368.661 82.4266 368.578 82.5052C368.539 82.5446 368.486 82.5621 368.438 82.5621Z" fill="#CDCDCD"></path>
<path d="M367.017 82.5228C366.965 82.5228 366.908 82.5009 366.869 82.4572C366.79 82.3742 366.794 82.2474 366.877 82.1687L368.333 80.7831C368.416 80.7044 368.543 80.7088 368.622 80.7918C368.7 80.8749 368.696 81.0016 368.613 81.0803L367.157 82.466C367.118 82.5053 367.065 82.5228 367.017 82.5228Z" fill="#CDCDCD"></path>
<path d="M365.177 82.4222C365.177 82.4222 365.164 82.4222 365.155 82.4222C364.928 82.4179 364.713 82.3217 364.552 82.1556C364.394 81.9895 364.311 81.7709 364.316 81.5436C364.32 81.312 364.416 81.1022 364.582 80.9404C364.748 80.7831 364.967 80.7 365.194 80.7044C365.667 80.7175 366.042 81.1109 366.034 81.5874C366.029 81.819 365.933 82.0288 365.767 82.1906C365.605 82.3436 365.395 82.4266 365.177 82.4266V82.4222ZM365.177 81.1109C365.059 81.1109 364.95 81.1546 364.866 81.2333C364.779 81.3163 364.731 81.43 364.727 81.548C364.722 81.666 364.766 81.7841 364.849 81.8715C364.932 81.9589 365.046 82.007 365.164 82.0114C365.286 82.0114 365.4 81.972 365.487 81.889C365.575 81.8059 365.623 81.6923 365.627 81.5742C365.632 81.3251 365.435 81.1153 365.186 81.1109C365.186 81.1109 365.177 81.1109 365.172 81.1109H365.177Z" fill="#CDCDCD"></path>
<path d="M288.04 4.62904C287.992 4.62904 287.939 4.61155 287.904 4.57658L286.422 3.21716C286.339 3.14285 286.335 3.01172 286.409 2.92866C286.483 2.84561 286.615 2.84124 286.698 2.91555L288.18 4.27498C288.263 4.34928 288.267 4.48042 288.193 4.56347C288.153 4.60718 288.097 4.62904 288.044 4.62904H288.04Z" fill="#CDCDCD"></path>
<path d="M286.619 4.69027C286.571 4.69027 286.518 4.67279 286.483 4.63782C286.4 4.56351 286.396 4.43237 286.47 4.34932L287.83 2.86751C287.904 2.78446 288.036 2.78008 288.119 2.85439C288.202 2.9287 288.206 3.05984 288.132 3.14289L286.772 4.6247C286.733 4.66842 286.676 4.69027 286.623 4.69027H286.619Z" fill="#CDCDCD"></path>
<path d="M284.73 4.71646C284.516 4.71646 284.311 4.63778 284.149 4.48916C283.978 4.33617 283.882 4.12198 283.869 3.89468C283.847 3.4226 284.219 3.02045 284.691 2.9986C285.159 2.97674 285.565 3.34829 285.587 3.82037C285.609 4.29245 285.237 4.6946 284.765 4.71646C284.752 4.71646 284.739 4.71646 284.726 4.71646H284.73ZM284.73 3.40511C284.73 3.40511 284.717 3.40511 284.708 3.40511C284.459 3.41386 284.267 3.62804 284.276 3.8772C284.28 3.99959 284.333 4.10887 284.42 4.19192C284.507 4.27497 284.625 4.31431 284.743 4.30994C284.993 4.3012 285.185 4.08701 285.176 3.83786C285.168 3.59744 284.966 3.40511 284.726 3.40511H284.73Z" fill="#CDCDCD"></path>
<path d="M177.156 107.84C177.104 107.84 177.051 107.819 177.012 107.779L175.591 106.359C175.513 106.28 175.513 106.149 175.591 106.07C175.67 105.991 175.801 105.991 175.88 106.07L177.301 107.491C177.379 107.569 177.379 107.701 177.301 107.779C177.261 107.819 177.209 107.84 177.156 107.84Z" fill="#CDCDCD"></path>
<path d="M175.736 107.84C175.683 107.84 175.631 107.819 175.591 107.779C175.513 107.701 175.513 107.569 175.591 107.491L177.012 106.07C177.091 105.991 177.222 105.991 177.301 106.07C177.379 106.149 177.379 106.28 177.301 106.359L175.88 107.779C175.84 107.819 175.788 107.84 175.736 107.84Z" fill="#CDCDCD"></path>
<path d="M173.877 107.784C173.405 107.784 173.016 107.399 173.016 106.923C173.016 106.446 173.401 106.061 173.877 106.061C174.354 106.061 174.739 106.446 174.739 106.923C174.739 107.399 174.354 107.784 173.877 107.784ZM173.877 106.472C173.628 106.472 173.427 106.673 173.427 106.923C173.427 107.172 173.628 107.373 173.877 107.373C174.127 107.373 174.328 107.172 174.328 106.923C174.328 106.673 174.127 106.472 173.877 106.472Z" fill="#CDCDCD"></path>
<path d="M105.856 91.7633C105.803 91.7633 105.751 91.7414 105.712 91.7021L104.291 90.2815C104.212 90.2028 104.212 90.0717 104.291 89.993C104.369 89.9143 104.501 89.9143 104.579 89.993L106 91.4136C106.079 91.4923 106.079 91.6234 106 91.7021C105.961 91.7414 105.908 91.7633 105.856 91.7633Z" fill="#CDCDCD"></path>
<path d="M104.435 91.7633C104.383 91.7633 104.33 91.7414 104.291 91.7021C104.212 91.6234 104.212 91.4923 104.291 91.4136L105.712 89.993C105.79 89.9143 105.921 89.9143 106 89.993C106.079 90.0717 106.079 90.2028 106 90.2815L104.579 91.7021C104.54 91.7414 104.487 91.7633 104.435 91.7633Z" fill="#CDCDCD"></path>
<path d="M102.577 91.7109C102.105 91.7109 101.716 91.3262 101.716 90.8498C101.716 90.3733 102.1 89.9886 102.577 89.9886C103.053 89.9886 103.438 90.3733 103.438 90.8498C103.438 91.3262 103.053 91.7109 102.577 91.7109ZM102.577 90.3995C102.328 90.3995 102.127 90.6006 102.127 90.8498C102.127 91.0989 102.328 91.3 102.577 91.3C102.826 91.3 103.027 91.0989 103.027 90.8498C103.027 90.6006 102.826 90.3995 102.577 90.3995Z" fill="#CDCDCD"></path>
<path d="M34.9792 27.4682C34.9268 27.4682 34.8787 27.4507 34.835 27.4114L33.1649 25.7853C33.0862 25.7066 33.0819 25.5799 33.1649 25.4968C33.2436 25.4181 33.3704 25.4138 33.4535 25.4968L35.1235 27.1229C35.2022 27.2016 35.2066 27.3283 35.1235 27.4114C35.0842 27.4507 35.0317 27.4726 34.9792 27.4726V27.4682Z" fill="#CDCDCD"></path>
<path d="M33.5585 27.2934C33.5104 27.2934 33.4579 27.2759 33.4229 27.241C33.3399 27.1667 33.3355 27.0355 33.4098 26.9525L34.5815 25.6761C34.6558 25.593 34.787 25.5887 34.87 25.663C34.9531 25.7373 34.9575 25.8684 34.8831 25.9515L33.7115 27.2279C33.6721 27.2716 33.6153 27.2934 33.5628 27.2934H33.5585Z" fill="#CDCDCD"></path>
<path d="M31.7703 27.0136C31.7353 27.0136 31.7003 27.0136 31.6654 27.0092C31.2151 26.9524 30.7954 26.5503 30.7167 26.0913C30.6729 25.8465 30.7342 25.6192 30.8872 25.4619C31.0358 25.3089 31.2457 25.2389 31.4817 25.2652C31.932 25.322 32.3517 25.7241 32.4304 26.1831C32.4741 26.4279 32.4129 26.6552 32.2599 26.8125C32.1331 26.9437 31.9626 27.0136 31.7659 27.0136H31.7703ZM31.3812 25.6629C31.2981 25.6629 31.2282 25.6892 31.1801 25.7372C31.1189 25.8028 31.097 25.899 31.1189 26.017C31.167 26.3011 31.4424 26.5678 31.7134 26.5984C31.8184 26.6115 31.9102 26.5852 31.967 26.5284C32.0282 26.4629 32.0501 26.3667 32.0282 26.2487C31.9801 25.9645 31.7091 25.6979 31.4336 25.6673C31.4162 25.6673 31.3987 25.6673 31.3812 25.6673V25.6629Z" fill="#CDCDCD"></path>
<path d="M257.551 124.267C257.498 124.267 257.446 124.245 257.406 124.206L255.986 122.785C255.907 122.707 255.907 122.575 255.986 122.497C256.064 122.418 256.195 122.418 256.274 122.497L257.695 123.917C257.774 123.996 257.774 124.127 257.695 124.206C257.656 124.245 257.603 124.267 257.551 124.267Z" fill="#CDCDCD"></path>
<path d="M256.13 124.267C256.077 124.267 256.025 124.245 255.986 124.206C255.907 124.127 255.907 123.996 255.986 123.917L257.406 122.497C257.485 122.418 257.616 122.418 257.695 122.497C257.774 122.575 257.774 122.707 257.695 122.785L256.274 124.206C256.235 124.245 256.182 124.267 256.13 124.267Z" fill="#CDCDCD"></path>
<path d="M254.272 124.215C253.799 124.215 253.41 123.83 253.41 123.354C253.41 122.877 253.795 122.492 254.272 122.492C254.748 122.492 255.133 122.877 255.133 123.354C255.133 123.83 254.748 124.215 254.272 124.215ZM254.272 122.903C254.022 122.903 253.821 123.104 253.821 123.354C253.821 123.603 254.022 123.804 254.272 123.804C254.521 123.804 254.722 123.603 254.722 123.354C254.722 123.104 254.521 122.903 254.272 122.903Z" fill="#CDCDCD"></path>
<path d="M235.075 72.5784H230.685V75.4939H235.075V72.5784Z" fill="#BBBBBB"></path>
<path d="M275.803 87.379H271.414V88.839H275.803V87.379Z" fill="#BBBBBB"></path>
<g opacity="0.6">
<path d="M231.901 77.9679H230.685V80.8529H231.901V77.9679Z" fill="#2B6FDF"></path>
<path d="M234.755 79.4104H233.54V80.8529H234.755V79.4104Z" fill="#2B6FDF"></path>
<path d="M240.465 78.9646H239.25V80.8529H240.465V78.9646Z" fill="#2B6FDF"></path>
<path d="M243.32 77.9679H242.105V80.8529H243.32V77.9679Z" fill="#2B6FDF"></path>
<path d="M246.179 76.6915H244.964V80.8529H246.179V76.6915Z" fill="#2B6FDF"></path>
<path d="M249.034 75.4939H247.819V80.8529H249.034V75.4939Z" fill="#2B6FDF"></path>
<path d="M251.889 75.4939H250.673V80.8529H251.889V75.4939Z" fill="#2B6FDF"></path>
<path d="M237.61 79.9612H236.395V80.8485H237.61V79.9612Z" fill="#2B6FDF"></path>
</g>
<path opacity="0.3" d="M187.977 81.8102C189.833 81.8102 191.339 80.3053 191.339 78.4488C191.339 76.5924 189.833 75.0874 187.977 75.0874C186.12 75.0874 184.615 76.5924 184.615 78.4488C184.615 80.3053 186.12 81.8102 187.977 81.8102Z" fill="black"></path>
<path d="M187.426 78.156C187.596 78.1079 187.697 77.933 187.653 77.7626L187.561 77.4129C187.505 77.1987 187.29 77.0676 187.076 77.1156C186.893 77.155 186.761 77.308 186.748 77.4959V77.579C186.713 78.1341 186.928 78.6718 187.325 79.0521L187.557 79.2706C187.959 79.6553 188.515 79.8389 189.065 79.7777C189.245 79.7427 189.385 79.5984 189.406 79.4192C189.433 79.2094 189.301 79.0127 189.096 78.9603L188.755 78.8685C188.58 78.8204 188.405 78.9253 188.362 79.1001L188.244 79.0564C187.841 78.9078 187.535 78.5712 187.426 78.156Z" fill="white"></path>
<path d="M157.667 84.9355H153.544C153.43 84.9355 153.339 84.8438 153.339 84.7301C153.339 84.6165 153.43 84.5247 153.544 84.5247H157.667C157.78 84.5247 157.872 84.6165 157.872 84.7301C157.872 84.8438 157.78 84.9355 157.667 84.9355Z" fill="#CDCDCD"></path>
<path d="M162.476 86.3038H153.548C153.435 86.3038 153.343 86.212 153.343 86.0984C153.343 85.9847 153.435 85.8929 153.548 85.8929H162.476C162.589 85.8929 162.681 85.9847 162.681 86.0984C162.681 86.212 162.589 86.3038 162.476 86.3038Z" fill="#CDCDCD"></path>
<path d="M157.378 87.6676H153.548C153.435 87.6676 153.343 87.5758 153.343 87.4622C153.343 87.3485 153.435 87.2567 153.548 87.2567H157.378C157.492 87.2567 157.583 87.3485 157.583 87.4622C157.583 87.5758 157.492 87.6676 157.378 87.6676Z" fill="#CDCDCD"></path>
<path d="M157.994 91.3131H153.548C153.435 91.3131 153.343 91.2213 153.343 91.1077C153.343 90.994 153.435 90.9022 153.548 90.9022H157.994C158.108 90.9022 158.2 90.994 158.2 91.1077C158.2 91.2213 158.108 91.3131 157.994 91.3131Z" fill="#CDCDCD"></path>
<path opacity="0.1" d="M105.13 7.76316L93.1643 6.82336L94.642 17.1043L106.608 17.9129L105.13 7.76316Z" fill="black"></path>
<mask id="mask1_3406_17370" style="mask-type:luminance" maskUnits="userSpaceOnUse" x="93" y="6" width="14" height="12">
<path d="M105.13 7.76316L93.1643 6.82336L94.642 17.1043L106.608 17.9129L105.13 7.76316Z" fill="white"></path>
</mask>
<g mask="url(#mask1_3406_17370)">
<path opacity="0.6" d="M105.134 17.7993C104.903 16.335 103.832 15.0149 102.485 14.3374C102.914 13.8347 103.115 13.131 102.988 12.331C102.726 10.67 101.147 9.22754 99.4685 9.11389C97.7897 8.99587 96.6399 10.2504 96.9022 11.9114C97.029 12.7113 97.4618 13.4588 98.0608 14.0314C96.8978 14.5341 96.2289 15.7318 96.4607 17.2005L97.0159 20.7149L105.69 21.3137L105.134 17.7993Z" fill="#2B6FDF"></path>
</g>
<path d="M120.502 25.4619C120.502 25.4619 120.493 25.4619 120.488 25.4619L95.8749 24.1593C95.7612 24.1549 95.6782 24.0588 95.6825 23.9451C95.6869 23.8315 95.7831 23.7441 95.8968 23.7528L120.51 25.0554C120.624 25.0598 120.707 25.1559 120.703 25.2696C120.698 25.3789 120.606 25.4619 120.497 25.4619H120.502Z" fill="#CDCDCD"></path>
<path d="M118.56 28.3599H118.552L96.3907 27.2278C96.2771 27.2234 96.1896 27.1273 96.1984 27.0136C96.2027 26.9 96.2989 26.8125 96.4126 26.8213L118.574 27.9534C118.687 27.9578 118.775 28.0539 118.766 28.1676C118.762 28.2769 118.67 28.3599 118.56 28.3599Z" fill="#CDCDCD"></path>
<path d="M116.615 31.2624H116.606L96.9022 30.3008C96.7885 30.2964 96.7011 30.2003 96.7098 30.0866C96.7142 29.973 96.8104 29.8855 96.924 29.8943L116.628 30.8559C116.742 30.8603 116.829 30.9565 116.82 31.0701C116.816 31.1794 116.724 31.2624 116.615 31.2624Z" fill="#CDCDCD"></path>
<path d="M114.674 34.1605C114.674 34.1605 114.669 34.1605 114.665 34.1605L97.4181 33.3693C97.3044 33.3649 97.217 33.2687 97.2257 33.1551C97.2301 33.0414 97.3263 32.954 97.4399 32.9628L114.687 33.7539C114.801 33.7583 114.888 33.8545 114.879 33.9681C114.875 34.0774 114.783 34.1648 114.674 34.1648V34.1605Z" fill="#CDCDCD"></path>
<path d="M112.728 37.0586C112.728 37.0586 112.724 37.0586 112.72 37.0586L97.9296 36.4379C97.8159 36.4335 97.7285 36.3374 97.7328 36.2237C97.7372 36.1101 97.8334 36.0226 97.947 36.027L112.737 36.6477C112.851 36.6521 112.938 36.7483 112.934 36.8619C112.929 36.9712 112.838 37.0586 112.728 37.0586Z" fill="#CDCDCD"></path>
<path opacity="0.7" d="M126.307 25.2564L127.392 37.8453C127.392 37.8453 141.884 38.313 148.368 38.5141L147.611 26.1307L126.307 25.2521V25.2564Z" fill="#AAAAAA"></path>
<path opacity="0.1" d="M223.752 121.876H216.284V128.367L223.752 128.354V121.876Z" fill="black"></path>
<mask id="mask2_3406_17370" style="mask-type:luminance" maskUnits="userSpaceOnUse" x="216" y="121" width="8" height="8">
<path d="M223.752 121.876H216.284V128.367L223.752 128.354V121.876Z" fill="white"></path>
</mask>
<g mask="url(#mask2_3406_17370)">
<path opacity="0.6" d="M221.5 126.26C221.824 125.919 222.025 125.465 222.025 124.958C222.025 123.909 221.177 123.061 220.127 123.061C219.078 123.061 218.23 123.909 218.23 124.958C218.23 125.465 218.431 125.919 218.755 126.26C217.972 126.632 217.426 127.423 217.426 128.35V130.566H222.834V128.35C222.834 127.423 222.287 126.632 221.504 126.26H221.5Z" fill="#2B6FDF"></path>
</g>
<path opacity="0.1" d="M232.544 121.876H225.076V128.367L232.544 128.354V121.876Z" fill="black"></path>
<mask id="mask3_3406_17370" style="mask-type:luminance" maskUnits="userSpaceOnUse" x="225" y="121" width="8" height="8">
<path d="M232.544 121.876H225.076V128.367L232.544 128.354V121.876Z" fill="white"></path>
</mask>
<g mask="url(#mask3_3406_17370)">
<path opacity="0.6" d="M230.292 126.26C230.616 125.919 230.817 125.465 230.817 124.958C230.817 123.909 229.969 123.061 228.919 123.061C227.87 123.061 227.022 123.909 227.022 124.958C227.022 125.465 227.223 125.919 227.547 126.26C226.764 126.632 226.218 127.423 226.218 128.35V130.566H231.626V128.35C231.626 127.423 231.079 126.632 230.296 126.26H230.292Z" fill="#2B6FDF"></path>
</g>
<path d="M226.182 134.609H216.249C216.136 134.609 216.044 134.517 216.044 134.404C216.044 134.29 216.136 134.198 216.249 134.198H226.182C226.296 134.198 226.388 134.29 226.388 134.404C226.388 134.517 226.296 134.609 226.182 134.609Z" fill="#CDCDCD"></path>
<path d="M226.182 136.812H216.249C216.136 136.812 216.044 136.72 216.044 136.607C216.044 136.493 216.136 136.401 216.249 136.401H226.182C226.296 136.401 226.388 136.493 226.388 136.607C226.388 136.72 226.296 136.812 226.182 136.812Z" fill="#CDCDCD"></path>
<path d="M220.626 139.011H216.254C216.14 139.011 216.048 138.919 216.048 138.806C216.048 138.692 216.14 138.6 216.254 138.6H220.626C220.739 138.6 220.831 138.692 220.831 138.806C220.831 138.919 220.739 139.011 220.626 139.011Z" fill="#CDCDCD"></path>
<path d="M225.732 141.214H216.254C216.14 141.214 216.048 141.122 216.048 141.009C216.048 140.895 216.14 140.803 216.254 140.803H225.732C225.846 140.803 225.937 140.895 225.937 141.009C225.937 141.122 225.846 141.214 225.732 141.214Z" fill="#CDCDCD"></path>
<path d="M241.178 134.609H231.245C231.131 134.609 231.04 134.517 231.04 134.404C231.04 134.29 231.131 134.198 231.245 134.198H241.178C241.292 134.198 241.383 134.29 241.383 134.404C241.383 134.517 241.292 134.609 241.178 134.609Z" fill="#CDCDCD"></path>
<path d="M235.989 136.812H231.249C231.136 136.812 231.044 136.72 231.044 136.607C231.044 136.493 231.136 136.401 231.249 136.401H235.989C236.102 136.401 236.194 136.493 236.194 136.607C236.194 136.72 236.102 136.812 235.989 136.812Z" fill="#CDCDCD"></path>
<path d="M237.995 139.011H231.249C231.136 139.011 231.044 138.919 231.044 138.806C231.044 138.692 231.136 138.6 231.249 138.6H237.995C238.109 138.6 238.201 138.692 238.201 138.806C238.201 138.919 238.109 139.011 237.995 139.011Z" fill="#CDCDCD"></path>
<path d="M240.728 141.214H231.249C231.136 141.214 231.044 141.122 231.044 141.009C231.044 140.895 231.136 140.803 231.249 140.803H240.728C240.841 140.803 240.933 140.895 240.933 141.009C240.933 141.122 240.841 141.214 240.728 141.214Z" fill="#CDCDCD"></path>
<path d="M252.994 134.609H246.244C246.131 134.609 246.039 134.517 246.039 134.404C246.039 134.29 246.131 134.198 246.244 134.198H252.994C253.108 134.198 253.2 134.29 253.2 134.404C253.2 134.517 253.108 134.609 252.994 134.609Z" fill="#CDCDCD"></path>
<path d="M256.173 136.812H246.24C246.127 136.812 246.035 136.72 246.035 136.607C246.035 136.493 246.127 136.401 246.24 136.401H256.173C256.287 136.401 256.379 136.493 256.379 136.607C256.379 136.72 256.287 136.812 256.173 136.812Z" fill="#CDCDCD"></path>
<path d="M252.754 139.011H246.245C246.131 139.011 246.039 138.919 246.039 138.806C246.039 138.692 246.131 138.6 246.245 138.6H252.754C252.868 138.6 252.96 138.692 252.96 138.806C252.96 138.919 252.868 139.011 252.754 139.011Z" fill="#CDCDCD"></path>
<path d="M250.061 141.214H246.24C246.127 141.214 246.035 141.122 246.035 141.009C246.035 140.895 246.127 140.803 246.24 140.803H250.061C250.175 140.803 250.267 140.895 250.267 141.009C250.267 141.122 250.175 141.214 250.061 141.214Z" fill="#CDCDCD"></path>
<path d="M258.211 146.236C235.556 145.817 216.477 145.76 216.289 145.76C216.175 145.76 216.083 145.668 216.083 145.55C216.083 145.437 216.175 145.345 216.289 145.345C216.477 145.345 235.56 145.402 258.219 145.821C258.333 145.821 258.425 145.917 258.421 146.031C258.421 146.145 258.324 146.236 258.215 146.236H258.211Z" fill="#CDCDCD"></path>
<path d="M219.008 46.4215H186.897C186.783 46.4215 186.691 46.3297 186.691 46.2161C186.691 46.1024 186.783 46.0106 186.897 46.0106H219.008C219.122 46.0106 219.213 46.1024 219.213 46.2161C219.213 46.3297 219.122 46.4215 219.008 46.4215Z" fill="#CDCDCD"></path>
<path d="M202.22 48.6245H186.892C186.779 48.6245 186.687 48.5327 186.687 48.4191C186.687 48.3054 186.779 48.2136 186.892 48.2136H202.22C202.334 48.2136 202.426 48.3054 202.426 48.4191C202.426 48.5327 202.334 48.6245 202.22 48.6245Z" fill="#CDCDCD"></path>
<path d="M208.717 50.8232H186.897C186.783 50.8232 186.691 50.7314 186.691 50.6178C186.691 50.5041 186.783 50.4124 186.897 50.4124H208.717C208.83 50.4124 208.922 50.5041 208.922 50.6178C208.922 50.7314 208.83 50.8232 208.717 50.8232Z" fill="#CDCDCD"></path>
<path d="M217.548 53.0262H186.897C186.783 53.0262 186.691 52.9344 186.691 52.8208C186.691 52.7071 186.783 52.6154 186.897 52.6154H217.548C217.662 52.6154 217.753 52.7071 217.753 52.8208C217.753 52.9344 217.662 53.0262 217.548 53.0262Z" fill="#CDCDCD"></path>
<path d="M198.627 105.231C196.935 105.231 195.558 103.854 195.558 102.162C195.558 100.471 196.935 99.0938 198.627 99.0938C200.319 99.0938 201.696 100.471 201.696 102.162C201.696 103.854 200.319 105.231 198.627 105.231ZM198.627 99.5046C197.158 99.5046 195.964 100.698 195.964 102.167C195.964 103.635 197.158 104.829 198.627 104.829C200.096 104.829 201.289 103.635 201.289 102.167C201.289 100.698 200.096 99.5046 198.627 99.5046Z" fill="#CDCDCD"></path>
<path d="M144.547 127.2C143.441 127.2 142.54 126.3 142.54 125.194C142.54 124.088 143.441 123.188 144.547 123.188C145.653 123.188 146.553 124.088 146.553 125.194C146.553 126.3 145.653 127.2 144.547 127.2ZM144.547 123.598C143.664 123.598 142.951 124.315 142.951 125.194C142.951 126.072 143.668 126.789 144.547 126.789C145.425 126.789 146.142 126.072 146.142 125.194C146.142 124.315 145.425 123.598 144.547 123.598Z" fill="#CDCDCD"></path>
<path d="M149.4 127.2C148.293 127.2 147.393 126.3 147.393 125.194C147.393 124.088 148.293 123.188 149.4 123.188C150.506 123.188 151.406 124.088 151.406 125.194C151.406 126.3 150.506 127.2 149.4 127.2ZM149.4 123.598C148.516 123.598 147.804 124.315 147.804 125.194C147.804 126.072 148.521 126.789 149.4 126.789C150.278 126.789 150.995 126.072 150.995 125.194C150.995 124.315 150.278 123.598 149.4 123.598Z" fill="#CDCDCD"></path>
<path d="M205.853 105.231C204.161 105.231 202.784 103.854 202.784 102.162C202.784 100.471 204.161 99.0938 205.853 99.0938C207.545 99.0938 208.922 100.471 208.922 102.162C208.922 103.854 207.545 105.231 205.853 105.231ZM205.853 99.5046C204.384 99.5046 203.191 100.698 203.191 102.167C203.191 103.635 204.384 104.829 205.853 104.829C207.322 104.829 208.516 103.635 208.516 102.167C208.516 100.698 207.322 99.5046 205.853 99.5046Z" fill="#CDCDCD"></path>
<path d="M213.145 105.231C211.454 105.231 210.076 103.854 210.076 102.162C210.076 100.471 211.454 99.0938 213.145 99.0938C214.837 99.0938 216.215 100.471 216.215 102.162C216.215 103.854 214.837 105.231 213.145 105.231ZM213.145 99.5046C211.677 99.5046 210.483 100.698 210.483 102.167C210.483 103.635 211.677 104.829 213.145 104.829C214.614 104.829 215.808 103.635 215.808 102.167C215.808 100.698 214.614 99.5046 213.145 99.5046Z" fill="#CDCDCD"></path>
<path d="M229.247 101.275H218.785C218.667 101.275 218.571 101.179 218.571 101.061C218.571 100.943 218.667 100.847 218.785 100.847H229.247C229.365 100.847 229.461 100.943 229.461 101.061C229.461 101.179 229.365 101.275 229.247 101.275Z" fill="#CDCDCD"></path>
<path d="M229.247 103.478H218.785C218.667 103.478 218.571 103.382 218.571 103.264C218.571 103.146 218.667 103.05 218.785 103.05H229.247C229.365 103.05 229.461 103.146 229.461 103.264C229.461 103.382 229.365 103.478 229.247 103.478Z" fill="#CDCDCD"></path>
<path opacity="0.6" d="M280.73 67.0183L281.373 49.866C281.373 49.866 296.005 49.4813 304.277 49.2977L303.11 66.6512L280.726 67.014L280.73 67.0183Z" fill="#2B6FDF"></path>
<path d="M282.815 51.7062C282.715 51.7062 282.632 51.6231 282.627 51.5226C282.627 51.4177 282.706 51.3346 282.811 51.3303L288.989 51.1816C289.093 51.1816 289.177 51.2603 289.181 51.3652C289.185 51.4701 289.102 51.5532 288.997 51.5576L282.82 51.7062C282.82 51.7062 282.82 51.7062 282.815 51.7062Z" fill="#CDCDCD"></path>
<path d="M282.772 53.258C282.671 53.258 282.588 53.1749 282.584 53.0744C282.584 52.9695 282.662 52.8864 282.767 52.8821L299.28 52.4886C299.389 52.4886 299.468 52.5673 299.472 52.6722C299.477 52.7771 299.394 52.8602 299.289 52.8646L282.776 53.258C282.776 53.258 282.776 53.258 282.772 53.258Z" fill="#CDCDCD"></path>
<path d="M282.732 54.8097C282.632 54.8097 282.549 54.7267 282.544 54.6261C282.544 54.5212 282.623 54.4382 282.728 54.4338L296.604 54.106C296.705 54.106 296.792 54.1846 296.797 54.2895C296.797 54.3945 296.718 54.4775 296.613 54.4819L282.737 54.8097C282.737 54.8097 282.737 54.8097 282.732 54.8097Z" fill="#CDCDCD"></path>
<path d="M282.693 56.3615C282.593 56.3615 282.509 56.2784 282.505 56.1779C282.505 56.073 282.584 55.9899 282.689 55.9856L289.71 55.8195C289.815 55.8195 289.898 55.8981 289.902 56.003C289.902 56.108 289.824 56.191 289.719 56.1954L282.697 56.3615C282.697 56.3615 282.697 56.3615 282.693 56.3615Z" fill="#CDCDCD"></path>
<path d="M282.649 57.9088C282.549 57.9088 282.466 57.8258 282.461 57.7252C282.461 57.6203 282.54 57.5373 282.645 57.5329L286.051 57.4542C286.156 57.4542 286.239 57.5329 286.243 57.6378C286.247 57.7427 286.164 57.8258 286.059 57.8301L282.654 57.9088C282.654 57.9088 282.654 57.9088 282.649 57.9088Z" fill="#CDCDCD"></path>
<path d="M282.61 59.4606C282.51 59.4606 282.426 59.3776 282.422 59.277C282.422 59.1721 282.501 59.0891 282.606 59.0847L287.445 58.9711C287.55 58.9711 287.633 59.0497 287.638 59.1547C287.642 59.2596 287.559 59.3426 287.454 59.347L282.614 59.4606C282.614 59.4606 282.614 59.4606 282.61 59.4606Z" fill="#CDCDCD"></path>
<path d="M282.566 61.0123C282.466 61.0123 282.383 60.9292 282.378 60.8287C282.378 60.7238 282.457 60.6407 282.562 60.6364L299.73 60.2299C299.839 60.2299 299.918 60.3085 299.922 60.4135C299.927 60.5184 299.844 60.6014 299.739 60.6058L282.571 61.0123C282.571 61.0123 282.571 61.0123 282.566 61.0123Z" fill="#CDCDCD"></path>
<path d="M282.527 62.5641C282.426 62.5641 282.343 62.481 282.339 62.3805C282.339 62.2756 282.418 62.1925 282.522 62.1882L290.798 61.9915C290.903 61.9915 290.986 62.0701 290.991 62.175C290.995 62.2799 290.912 62.363 290.807 62.3674L282.531 62.5641C282.531 62.5641 282.531 62.5641 282.527 62.5641Z" fill="#CDCDCD"></path>
<path d="M282.488 64.1159C282.387 64.1159 282.304 64.0328 282.3 63.9323C282.3 63.8274 282.378 63.7443 282.483 63.7399L296.359 63.4121C296.464 63.4121 296.547 63.4908 296.552 63.5957C296.556 63.7006 296.473 63.7836 296.368 63.788L282.492 64.1159C282.492 64.1159 282.492 64.1159 282.488 64.1159Z" fill="#CDCDCD"></path>
<path d="M282.444 65.6676C282.343 65.6676 282.26 65.5846 282.256 65.484C282.256 65.3791 282.335 65.2961 282.439 65.2917L292.447 65.0557C292.556 65.0557 292.635 65.1343 292.639 65.2393C292.643 65.3442 292.56 65.4272 292.455 65.4316L282.448 65.6676C282.448 65.6676 282.448 65.6676 282.444 65.6676Z" fill="#CDCDCD"></path>
<path d="M288.989 59.2727C288.888 59.2727 288.805 59.1896 288.801 59.0891C288.801 58.9842 288.879 58.9011 288.984 58.8967L293.824 58.7831C293.933 58.7831 294.012 58.8618 294.016 58.9667C294.021 59.0716 293.937 59.1546 293.833 59.159L288.993 59.2727C288.993 59.2727 288.993 59.2727 288.989 59.2727Z" fill="#CDCDCD"></path>
<path opacity="0.6" d="M271.37 91.064L311.001 91.1077L310.319 107.735L271.02 107.582L271.37 91.064Z" fill="#2B6FDF"></path>
<path d="M290.803 102.709C292.631 102.709 294.112 101.227 294.112 99.3998C294.112 97.5723 292.631 96.0908 290.803 96.0908C288.975 96.0908 287.493 97.5723 287.493 99.3998C287.493 101.227 288.975 102.709 290.803 102.709Z" fill="#E8E8E8"></path>
<path opacity="0.6" d="M289.802 98.556V100.243C289.802 100.405 289.964 100.514 290.112 100.453L292.128 99.6095C292.311 99.5308 292.311 99.2729 292.128 99.1942L290.112 98.3506C289.964 98.2894 289.802 98.3987 289.802 98.5604V98.556Z" fill="#2B6FDF"></path>
<path d="M284.721 90.0323H271.418C271.304 90.0323 271.212 89.9406 271.212 89.8269C271.212 89.7133 271.304 89.6215 271.418 89.6215H284.721C284.835 89.6215 284.927 89.7133 284.927 89.8269C284.927 89.9406 284.835 90.0323 284.721 90.0323Z" fill="#CDCDCD"></path>
<path opacity="0.7" d="M291.856 131.41L291.913 123.205L302.24 123.349L302.126 131.554L291.856 131.41Z" fill="#AAAAAA"></path>
<path opacity="0.1" d="M303.171 131.567L303.21 123.327L305.895 123.38L305.833 131.619L303.171 131.567Z" fill="black"></path>
<path opacity="0.1" d="M306.782 131.567L306.826 123.45L309.506 123.502L309.444 131.619L306.782 131.567Z" fill="black"></path>
<path d="M318.171 135.523L291.861 135.151C291.769 135.151 291.695 135.073 291.695 134.981C291.695 134.889 291.782 134.819 291.865 134.815L318.175 135.186C318.267 135.186 318.341 135.265 318.341 135.357C318.341 135.449 318.267 135.523 318.175 135.523H318.171Z" fill="#CDCDCD"></path>
<path d="M304.364 137.131L291.808 136.952C291.716 136.952 291.642 136.873 291.642 136.782C291.642 136.69 291.721 136.616 291.813 136.616L304.369 136.795C304.46 136.795 304.535 136.873 304.535 136.965C304.535 137.057 304.46 137.131 304.369 137.131H304.364Z" fill="#CDCDCD"></path>
<path d="M309.628 139.011L291.752 138.757C291.66 138.757 291.585 138.679 291.585 138.587C291.585 138.495 291.677 138.421 291.756 138.421L309.632 138.674C309.724 138.674 309.799 138.753 309.799 138.845C309.799 138.937 309.724 139.011 309.632 139.011H309.628Z" fill="#CDCDCD"></path>
<path d="M316.807 141.092L291.695 140.563C291.603 140.563 291.529 140.484 291.533 140.392C291.533 140.301 291.62 140.231 291.703 140.231L316.815 140.759C316.907 140.759 316.981 140.838 316.977 140.93C316.977 141.022 316.903 141.092 316.811 141.092H316.807Z" fill="#CDCDCD"></path>
<path opacity="0.6" d="M71.6548 46.6576L72.9663 54.7049L88.2678 55.3605L87.035 47.5974L71.6548 46.6576Z" fill="#2B6FDF"></path>
<path opacity="0.6" d="M74.8069 65.7682L75.5457 70.8518L105.537 71.9402L104.82 67.1407L74.8069 65.7682Z" fill="#2B6FDF"></path>
<path d="M88.9628 58.7C88.9628 58.7 88.9585 58.7 88.9541 58.7L73.5389 58.0662C73.4253 58.0618 73.3378 57.9657 73.3422 57.8564C73.3466 57.7428 73.4428 57.6553 73.5521 57.6597L88.9672 58.2935C89.0809 58.2979 89.1683 58.3941 89.1639 58.5033C89.1596 58.6126 89.0678 58.7 88.9585 58.7H88.9628Z" fill="#CDCDCD"></path>
<path d="M92.5957 60.077C92.5957 60.077 92.5914 60.077 92.587 60.077L73.753 59.2421C73.6394 59.2377 73.5519 59.1416 73.5563 59.0279C73.5607 58.9143 73.6569 58.8268 73.7705 58.8312L92.6045 59.6661C92.7182 59.6705 92.8056 59.7666 92.8012 59.8803C92.7969 59.9896 92.705 60.077 92.5957 60.077Z" fill="#CDCDCD"></path>
<path d="M96.2289 61.4582C96.2289 61.4582 96.2245 61.4582 96.2201 61.4582L73.9674 60.4179C73.8537 60.4135 73.7663 60.3173 73.775 60.2037C73.7794 60.09 73.8756 60.0026 73.9892 60.0113L96.242 61.0517C96.3557 61.056 96.4431 61.1522 96.4344 61.2659C96.43 61.3751 96.3382 61.4626 96.2289 61.4626V61.4582Z" fill="#CDCDCD"></path>
<path d="M99.8618 62.8395H99.853L74.1815 61.5938C74.0678 61.5894 73.9804 61.4932 73.9891 61.3796C73.9935 61.2659 74.0897 61.1785 74.2033 61.1872L99.8749 62.433C99.9886 62.4374 100.076 62.5336 100.067 62.6472C100.063 62.7565 99.9711 62.8395 99.8618 62.8395Z" fill="#CDCDCD"></path>
<path d="M103.495 64.2164H103.486L74.3958 62.7651C74.2822 62.7608 74.1947 62.6646 74.2035 62.551C74.2122 62.4373 74.304 62.3499 74.4177 62.3586L103.508 63.8098C103.622 63.8142 103.709 63.9104 103.7 64.024C103.696 64.1333 103.604 64.2164 103.495 64.2164Z" fill="#CDCDCD"></path>
<path d="M167.228 113.636H141.945C141.832 113.636 141.74 113.545 141.74 113.431C141.74 113.317 141.832 113.226 141.945 113.226H167.228C167.342 113.226 167.433 113.317 167.433 113.431C167.433 113.545 167.342 113.636 167.228 113.636Z" fill="#CDCDCD"></path>
<path d="M145.985 115.284C145.902 115.284 141.911 115.201 141.906 115.118C141.88 115.118 141.854 115.092 141.854 115.062C141.854 114.948 141.941 114.856 142.059 114.856L164.946 114.874C165.06 114.874 165.151 114.965 165.151 115.079C165.151 115.193 165.06 115.284 164.946 115.284H145.985Z" fill="#CDCDCD"></path>
<path d="M150.029 116.932C149.972 116.932 142.081 116.854 142.077 116.797C142.02 116.797 141.976 116.749 141.976 116.692C141.976 116.578 142.064 116.486 142.182 116.486L162.672 116.521C162.786 116.521 162.878 116.613 162.878 116.727C162.878 116.841 162.786 116.932 162.672 116.932H150.029Z" fill="#CDCDCD"></path>
<path d="M154.073 118.58C154.047 118.58 142.247 118.502 142.247 118.475C142.164 118.475 142.094 118.405 142.094 118.318C142.094 118.204 142.177 118.108 142.299 118.117L160.395 118.174C160.508 118.174 160.6 118.266 160.596 118.379C160.596 118.493 160.504 118.58 160.39 118.58H154.069H154.073Z" fill="#CDCDCD"></path>
<path d="M158.113 120.228L142.413 120.154C142.299 120.154 142.208 120.062 142.212 119.948C142.212 119.835 142.295 119.739 142.418 119.747L158.117 119.822C158.231 119.822 158.322 119.913 158.318 120.027C158.318 120.141 158.226 120.228 158.113 120.228Z" fill="#CDCDCD"></path>
<path d="M108.645 109.987L59.8332 109.187C59.7195 109.187 59.6321 109.091 59.6321 108.981C59.6321 108.868 59.7414 108.776 59.8376 108.78L108.649 109.58C108.763 109.58 108.85 109.676 108.85 109.786C108.85 109.895 108.759 109.987 108.645 109.987Z" fill="#CDCDCD"></path>
<path d="M108.846 111.368L60.0431 110.647C59.9295 110.647 59.842 110.55 59.842 110.441C59.842 110.328 59.947 110.236 60.0475 110.24L108.851 110.961C108.964 110.961 109.052 111.058 109.052 111.167C109.052 111.28 108.96 111.368 108.846 111.368Z" fill="#CDCDCD"></path>
<path d="M109.047 112.745L60.2573 112.107C60.1436 112.107 60.0562 112.015 60.0562 111.901C60.0562 111.788 60.1567 111.696 60.2616 111.7L109.052 112.338C109.165 112.338 109.253 112.43 109.253 112.544C109.253 112.657 109.161 112.745 109.047 112.745Z" fill="#CDCDCD"></path>
<path d="M109.248 114.126L60.4714 113.571C60.3577 113.571 60.2703 113.479 60.2703 113.365C60.2703 113.252 60.3664 113.164 60.4757 113.164L109.253 113.72C109.366 113.72 109.454 113.811 109.454 113.925C109.454 114.039 109.362 114.126 109.248 114.126Z" fill="#CDCDCD"></path>
<path d="M109.454 115.503L60.6901 115.027C60.5765 115.027 60.489 114.935 60.489 114.821C60.489 114.707 60.5808 114.62 60.6945 114.62L109.458 115.096C109.572 115.096 109.659 115.188 109.659 115.302C109.659 115.416 109.567 115.503 109.454 115.503Z" fill="#CDCDCD"></path>
<path d="M186.005 132.83H164.596V144.86H186.005V132.83Z" fill="#EFEFEF"></path>
<path d="M110.774 72.0102C110.153 72.0102 109.48 71.761 108.916 71.2671C108.413 70.8256 108.068 70.2574 107.954 69.6629C107.836 69.0509 107.967 68.487 108.326 68.0762C108.684 67.6653 109.227 67.4598 109.852 67.4948C110.455 67.5298 111.063 67.7964 111.565 68.2335C112.619 69.1558 112.886 70.5896 112.156 71.4244C111.815 71.8135 111.316 72.0058 110.774 72.0058V72.0102ZM109.707 67.9013C109.266 67.9013 108.886 68.0587 108.632 68.3472C108.357 68.6619 108.256 69.1034 108.352 69.5886C108.453 70.0912 108.746 70.5808 109.183 70.9611C110.07 71.7348 111.264 71.8266 111.85 71.1578C112.431 70.4934 112.186 69.3176 111.299 68.5439C110.862 68.1636 110.341 67.9363 109.826 67.9013C109.786 67.9013 109.747 67.9013 109.707 67.9013Z" fill="#CDCDCD"></path>
<path opacity="0.7" d="M62.0075 93.1079C62.9706 92.24 62.8419 90.5275 61.72 89.283C60.5981 88.0386 58.9079 87.7333 57.9448 88.6013C56.9817 89.4692 57.1104 91.1817 58.2323 92.4262C59.3542 93.6706 61.0444 93.9759 62.0075 93.1079Z" fill="#AAAAAA"></path>
<path opacity="0.7" d="M69.1347 93.3681C70.0978 92.5001 69.9691 90.7876 68.8472 89.5432C67.7253 88.2987 66.0351 87.9935 65.072 88.8614C64.1089 89.7294 64.2376 91.4418 65.3595 92.6863C66.4814 93.9308 68.1716 94.236 69.1347 93.3681Z" fill="#AAAAAA"></path>
<path opacity="0.7" d="M76.1137 93.5232C77.0768 92.6553 76.9481 90.9428 75.8262 89.6983C74.7043 88.4538 73.0141 88.1486 72.051 89.0166C71.0879 89.8845 71.2166 91.597 72.3385 92.8414C73.4604 94.0859 75.1506 94.3912 76.1137 93.5232Z" fill="#AAAAAA"></path>
<path d="M116.558 72.303C116.51 72.303 116.462 72.303 116.414 72.2987C115.81 72.2637 115.203 71.9971 114.7 71.5599C113.646 70.6376 113.38 69.2039 114.11 68.369C114.468 67.9581 115.01 67.7527 115.636 67.7876C116.239 67.8226 116.847 68.0893 117.354 68.5264C117.856 68.9679 118.202 69.5361 118.316 70.1306C118.434 70.7425 118.302 71.3064 117.944 71.7173C117.612 72.0976 117.126 72.303 116.562 72.303H116.558ZM114.416 68.6356C113.834 69.3001 114.079 70.4759 114.967 71.2496C115.404 71.6299 115.924 71.8572 116.44 71.8921C116.934 71.9227 117.358 71.7654 117.634 71.4507C117.909 71.1359 118.009 70.6944 117.913 70.2093C117.813 69.7066 117.52 69.217 117.083 68.8367C116.645 68.4564 116.125 68.2291 115.609 68.1942C115.115 68.1636 114.691 68.3209 114.416 68.6356Z" fill="#CDCDCD"></path>
<path d="M97.357 46.0893C97.357 46.0893 97.3526 46.0893 97.3482 46.0893L93.1206 45.9057L92.7447 43.1432C92.7315 43.0295 92.8059 42.929 92.9195 42.9115C93.0288 42.894 93.1338 42.9727 93.1469 43.0863L93.4791 45.5123L97.3657 45.6784C97.4794 45.6828 97.5668 45.779 97.5624 45.8926C97.5581 46.0019 97.4663 46.0893 97.357 46.0893Z" fill="#CDCDCD"></path>
<path d="M151.45 89.5341C151.345 89.5341 151.253 89.451 151.249 89.3461L151.004 85.8361C150.995 85.7225 151.083 85.6263 151.192 85.6175C151.306 85.6088 151.402 85.6962 151.411 85.8055L151.655 89.3155C151.664 89.4292 151.577 89.5253 151.467 89.5341C151.463 89.5341 151.459 89.5341 151.454 89.5341H151.45Z" fill="#CDCDCD"></path>
<path d="M167.228 111.337H141.644L141.482 108.61H167.062L167.228 111.337Z" fill="#B3DDFF"></path>
<path opacity="0.6" d="M58.115 96.0558L59.4703 105.699L108.413 106.525L107.167 96.895L58.115 96.0558Z" fill="#2B6FDF"></path>
<path opacity="0.15" d="M198.443 322C240.002 322 273.691 319.593 273.691 316.623C273.691 313.654 240.002 311.247 198.443 311.247C156.884 311.247 123.195 313.654 123.195 316.623C123.195 319.593 156.884 322 198.443 322Z" fill="black"></path>
<path d="M185.721 284.963V304.73L166.694 311.326C165.899 311.601 165.344 312.318 165.274 313.153L164.74 319.552C164.718 319.841 164.941 320.085 165.234 320.085H167.28C167.529 320.085 167.744 319.897 167.77 319.648L168.356 314.499C168.391 314.189 168.618 313.931 168.924 313.856L188.436 309.131L212.581 314.193C212.87 314.254 213.102 314.468 213.185 314.753L214.645 319.727C214.706 319.937 214.899 320.081 215.117 320.081H216.953C217.277 320.081 217.517 319.771 217.43 319.456L215.786 313.424C215.572 312.633 214.96 312.007 214.173 311.776L190.539 304.786V284.959H185.725L185.721 284.963Z" fill="#646464"></path>
<path d="M185.721 304.729L163.179 305.717C162.082 305.765 161.164 306.578 160.985 307.663L160.067 313.223C160.019 313.524 160.25 313.795 160.552 313.795H161.601C161.829 313.795 162.025 313.642 162.078 313.424L163.175 309.131C163.289 308.694 163.687 308.397 164.137 308.414L173.96 308.808L185.716 304.734L185.721 304.729Z" fill="#444444"></path>
<path d="M190.534 304.791L207.532 306.299C208.384 306.373 209.075 307.024 209.206 307.872L209.595 310.43L207.108 309.695L206.972 309.118C206.916 308.869 206.693 308.694 206.439 308.69L203.501 308.633L190.534 304.795V304.791Z" fill="#444444"></path>
<path d="M207.58 313.153L207.799 314.276C207.842 314.508 208.048 314.674 208.284 314.674H209.39C209.687 314.674 209.919 314.412 209.88 314.114L209.814 313.62L207.58 313.153Z" fill="url(#paint3_linear_3406_17370)"></path>
<path d="M167.713 272.186C167.713 272.186 172.247 286.034 187.483 286.537C202.719 287.04 204.795 281.471 206.623 277.489L202.911 276.781C202.911 276.781 201.774 284.902 187.859 284.146C173.947 283.39 170.922 271.557 170.922 271.557L167.713 272.186Z" fill="#646464"></path>
<path d="M225.557 229.629C225.557 229.629 222.781 235.858 221.273 242.214C219.76 248.574 221.426 259.545 221.797 264.415C222.169 269.284 219.948 275.758 219.948 275.758L215.878 277.917H209.901L198.858 275.39L173.576 272.838L174.809 261.088C174.809 261.088 215.629 233.755 215.939 233.55C216.249 233.344 225.557 229.629 225.557 229.629Z" fill="#646464"></path>
<path opacity="0.3" d="M187.898 273.646C187.898 273.646 209.185 279.648 214.391 269.992C218.09 263.129 216.153 254.514 216.153 254.514L194.311 256.092C194.311 256.092 183.806 272.02 187.902 273.646H187.898Z" fill="black"></path>
<path d="M121.223 226.268C121.223 226.268 122.049 224.117 123.732 224.388C125.415 224.663 136.73 231.893 140.721 234.892C144.717 237.89 125.214 237.737 125.214 237.737L121.218 233.742C121.218 233.742 120.068 230.232 121.218 226.263L121.223 226.268Z" fill="#1E1E1E"></path>
<path opacity="0.3" d="M123.417 225.205C123.186 225.249 122.976 225.354 122.783 225.494L126.054 226.923C125.332 225.721 124.349 225.022 123.417 225.205Z" fill="#B93DFD"></path>
<path d="M126.945 229.301C126.766 228.396 126.451 227.583 126.054 226.923L122.783 225.494L119.575 224.091L119.448 233.782L124.698 235.167V234.442C124.882 234.468 125.066 234.468 125.249 234.433C126.692 234.149 127.453 231.85 126.945 229.301Z" fill="white"></path>
<path opacity="0.3" d="M126.946 229.301C126.766 228.396 126.452 227.583 126.054 226.923L124.13 226.084C124.742 227.142 125.756 229.883 124.231 235.045L124.703 235.167V234.442C124.886 234.468 125.07 234.468 125.254 234.433C126.696 234.149 127.457 231.85 126.95 229.301H126.946Z" fill="black"></path>
<path d="M120.322 242.109L116.462 242.218L114.411 232.846L116.746 233.196L120.322 237.357C120.322 237.357 122.289 241.344 120.322 242.109Z" fill="white"></path>
<g opacity="0.3">
<path d="M120.322 237.357L116.746 233.196L115.649 233.034C116.501 234.599 118.355 238.376 118.691 242.157L120.322 242.109C122.29 241.344 120.322 237.357 120.322 237.357Z" fill="black"></path>
</g>
<path d="M266.718 189.021C266.718 189.021 267.649 187.679 268.113 186.766C268.493 186.023 268.646 182.325 268.69 180.987C268.699 180.703 268.9 180.458 269.175 180.388C269.516 180.305 269.861 180.515 269.949 180.856L270.5 183.09C270.526 183.199 270.679 183.216 270.727 183.111L273.713 176.795C273.844 176.52 274.168 176.397 274.448 176.524C274.71 176.642 274.841 176.939 274.754 177.215L272.939 182.683C272.913 182.757 273.009 182.805 273.057 182.749L277.001 177.814C277.211 177.551 277.591 177.512 277.849 177.717C278.089 177.91 278.146 178.251 277.98 178.513L274.71 183.684C274.666 183.75 274.754 183.824 274.815 183.771L279.13 180.008C279.353 179.811 279.689 179.82 279.908 180.021C280.135 180.231 280.157 180.585 279.956 180.821L276.376 185.061C276.327 185.118 276.393 185.201 276.463 185.166L280.061 183.138C280.275 183.015 280.551 183.076 280.691 183.282C280.83 183.483 280.795 183.763 280.607 183.924L276.843 187.146C276.205 187.758 272.039 191.605 270.828 193.292C269.617 194.979 265.905 190.267 266.718 189.026V189.021Z" fill="#FF8438"></path>
<path d="M171.709 171.69C171.709 171.69 171.687 169.045 171.853 167.336C172.015 165.627 171.691 164.263 170.979 162.921C170.59 162.191 170.109 161.479 169.746 160.98C169.475 160.609 168.946 160.556 168.605 160.867C168.378 161.076 168.299 161.4 168.404 161.688L168.977 163.271C169.125 163.686 169.016 164.154 168.688 164.455L168.413 164.709L166.804 162.921L168.093 158.196C168.159 157.951 168.05 157.693 167.827 157.571C167.556 157.427 167.223 157.531 167.084 157.807L163.757 164.372C163.411 165.059 163.416 165.867 163.77 166.549L165.383 169.635L166.353 174.129L171.705 171.69H171.709Z" fill="#FF8438"></path>
<path d="M171.709 171.69C171.709 171.69 171.687 169.045 171.853 167.336C172.015 165.627 171.691 164.263 170.979 162.921C170.59 162.191 170.109 161.479 169.746 160.98C169.475 160.609 168.946 160.556 168.605 160.867C168.378 161.076 168.299 161.4 168.404 161.688L168.977 163.271C169.125 163.686 169.016 164.154 168.688 164.455L168.413 164.709L166.804 162.921L168.093 158.196C168.159 157.951 168.05 157.693 167.827 157.571C167.556 157.427 167.223 157.531 167.084 157.807L163.757 164.372C163.411 165.059 163.416 165.867 163.77 166.549L165.383 169.635L166.353 174.129L171.705 171.69H171.709Z" fill="#FF8438"></path>
<path opacity="0.3" d="M168.907 164.534C168.907 164.534 170.013 165.824 169.628 166.505C169.243 167.187 168.054 169.648 166.332 168.333C164.609 167.017 168.902 164.538 168.902 164.538L168.907 164.534Z" fill="black"></path>
<path d="M166.996 162.222L168.579 163.992L168.793 162.777L168.399 161.688C168.295 161.4 168.373 161.076 168.601 160.867C168.745 160.731 168.928 160.67 169.112 160.666L169.379 158.9C169.405 158.72 169.287 158.55 169.108 158.515L168.373 158.366C168.198 158.331 168.023 158.436 167.98 158.611L167.726 159.538L166.996 162.217V162.222Z" fill="#1E1E1E"></path>
<path d="M169.112 158.519L173.222 136.275L172.776 136.126L168.373 158.375L169.112 158.519Z" fill="#1850AF"></path>
<path d="M166.021 176.537C166.021 176.537 165.169 173.657 165.435 172.87C165.702 172.083 166.677 170.614 168.872 170.426C171.066 170.238 172.063 170.811 172.474 172.122C172.885 173.434 173.051 175.112 173.051 175.112L166.017 176.541L166.021 176.537Z" fill="#3EAAFF"></path>
<path d="M264.528 190.416C264.528 190.416 265.529 188.991 266.465 188.414C267.4 187.837 269.201 187.99 270.762 189.283C272.318 190.573 272.764 192.334 272.187 193.156C271.61 193.978 270.74 195.447 270.74 195.447L264.528 190.416Z" fill="#3EAAFF"></path>
<path d="M178.984 245.029C178.984 245.029 168.159 237.235 161.995 236.439C158.886 236.037 150.038 235.508 140.721 234.896C138.137 234.726 135.519 234.551 132.974 234.367C130.648 234.201 128.384 234.031 126.268 233.856C122.508 233.546 119.22 233.222 116.895 232.89C115.64 232.711 116.178 233.13 116.178 233.13C116.178 233.13 120.602 236.658 120.305 242.581L151.467 248.438C151.467 248.438 160.919 261.84 169.772 267.343C178.625 272.847 193.756 276.313 202.911 266.325C202.911 266.325 201.713 253.137 178.984 245.033V245.029Z" fill="#1E1E1E"></path>
<path d="M269.424 190.551C265.118 187.5 262.832 191.517 259.544 195.167C256.252 198.817 244.662 211.782 244.662 211.782C244.662 211.782 231.861 218.421 226.239 219.855C220.617 221.289 217.386 220.152 213.5 218.002C209.613 215.847 199.365 215.37 197.311 215.488C197.311 215.488 189.096 208.49 185.445 204.425C181.795 200.36 181.078 199.879 180.479 197.908C179.88 195.936 174.616 177.993 173.838 175.064C173.06 172.135 170.008 171.475 167.975 172.192C165.942 172.909 165.103 175.003 165.462 177.097C165.82 179.19 171.503 201.378 172.4 203.708C173.296 206.042 178.8 213.574 181.55 216.804C184.3 220.034 185.437 226.613 186.215 231.338C186.993 236.063 178.979 245.033 178.979 245.033C201.709 253.137 202.907 266.325 202.907 266.325C212.057 256.337 218.636 242.917 221.268 234.735C221.268 234.735 245.073 225.717 247.884 224.519C250.695 223.322 264.274 207.354 267.265 202.572C270.255 197.785 273.726 193.602 269.42 190.551H269.424Z" fill="#2B6FDF"></path>
<g opacity="0.3">
<path d="M202.911 266.32C206.067 262.876 208.922 259.021 211.41 255.113H196.318C202.426 261.044 202.911 266.32 202.911 266.32Z" fill="black"></path>
</g>
<path d="M201.626 214.57C201.626 214.57 198.504 213.604 198.443 217.6C198.382 221.595 200.756 223.273 204.026 224.025C207.296 224.777 212.127 222.404 212.848 219.492C213.569 216.581 212.546 215.86 211.06 215.668C209.578 215.471 201.621 214.57 201.621 214.57H201.626Z" fill="#3EAAFF"></path>
<path d="M143.978 255.602C144.595 255.913 159.21 269.538 163.708 270.215C168.207 270.893 184.4 272.484 184.4 272.484L178.568 266.316C178.568 266.316 160.81 255.047 160.626 255.108C160.443 255.17 143.978 255.602 143.978 255.602Z" fill="#1E1E1E"></path>
<path d="M152.613 268.777V270.377C152.613 270.67 152.831 270.923 153.124 270.958L201.818 277.484V273.664L153.269 268.191C152.919 268.152 152.613 268.423 152.613 268.777Z" fill="#A3A3A3"></path>
<path opacity="0.3" d="M161.623 269.135L163.503 272.353L201.818 277.489L196.034 273.017L161.623 269.135Z" fill="black"></path>
<path d="M201.818 273.668C201.818 273.668 212.918 277.554 217.049 275.578C221.181 273.603 220.8 265.14 219.393 256.219C217.985 247.297 221.662 250.672 222.252 256.219C222.846 261.766 225.435 272.986 220.626 276.811C215.817 280.631 209.552 278.525 201.818 277.489" fill="#1E1E1E"></path>
<path d="M203.829 201.37C203.829 201.37 200.485 199.083 199.313 196.426C198.141 193.768 201.573 194.083 201.573 194.083C201.573 194.083 198.701 190.796 201.451 189.707C204.205 188.623 214.636 188.505 217.924 193.252C221.413 198.292 219.611 205.714 215.012 207.371C210.409 209.028 203.833 201.37 203.833 201.37H203.829Z" fill="#1E1E1E"></path>
<path d="M200.878 215.174C199.995 217.206 201.25 219.72 203.23 220.742C205.665 222.001 208.752 220.878 210.12 218.233C210.251 217.984 210.339 217.722 210.448 217.473C210.841 216.577 212.157 211.9 212.778 210.816C213.535 209.5 213.373 209.408 213.373 209.408C213.373 209.408 214.763 209.627 215.83 207.865C216.896 206.103 216.853 205.019 215.786 204.757C214.719 204.495 213.591 206.366 213.591 206.366C213.591 206.366 212.678 206.278 212.415 205.889C212.153 205.5 213.504 202.869 214.697 201.391C214.697 201.391 212.306 199.306 213.46 196.915C213.46 196.915 208.026 196.872 205.066 196.653C205.066 196.653 203.283 199.805 201.652 203.219C200.021 206.632 200.087 207.782 201.123 209.299C201.516 209.876 202.614 211.222 202.181 212.197C201.748 213.172 201.276 214.269 200.878 215.178V215.174Z" fill="#FF8438"></path>
<path opacity="0.3" d="M211.978 209.893C212.009 209.815 211.908 209.758 211.851 209.819C210.798 210.947 209.211 211.436 207.816 209.819C206.317 208.079 204.773 207.45 203.143 207.428C201.613 207.406 200.275 208.232 201.451 209.767C201.914 210.435 202.517 211.428 202.176 212.197C201.744 213.176 201.272 214.269 200.874 215.178C200.537 215.952 200.511 216.795 200.721 217.604C209.63 214.487 211.576 210.982 211.978 209.898V209.893Z" fill="black"></path>
<path d="M205.621 200.2L205.603 200.536L206.979 200.608L206.996 200.272L205.621 200.2Z" fill="#1E1E1E"></path>
<path opacity="0.5" d="M204.192 201.518L201.455 201.326C200.979 201.291 200.708 200.963 200.856 200.587L201.272 199.521C201.42 199.145 201.923 198.869 202.404 198.904L205.141 199.097C205.617 199.132 205.888 199.459 205.74 199.835L205.324 200.902C205.176 201.278 204.673 201.553 204.192 201.518Z" fill="url(#paint4_linear_3406_17370)"></path>
<path opacity="0.5" d="M209.993 201.859L207.257 201.667C206.78 201.632 206.509 201.304 206.658 200.928L207.073 199.862C207.222 199.486 207.724 199.21 208.205 199.245L210.942 199.438C211.419 199.472 211.69 199.8 211.541 200.176L211.126 201.243C210.977 201.619 210.474 201.894 209.993 201.859Z" fill="url(#paint5_linear_3406_17370)"></path>
<path d="M204.271 201.689C204.24 201.689 204.209 201.689 204.179 201.689L201.442 201.496C201.132 201.474 200.878 201.343 200.742 201.129C200.629 200.95 200.616 200.74 200.699 200.53L201.114 199.464C201.289 199.018 201.862 198.699 202.412 198.738L205.149 198.93C205.46 198.952 205.713 199.083 205.849 199.298C205.962 199.477 205.976 199.687 205.892 199.896L205.477 200.963C205.311 201.383 204.795 201.689 204.271 201.689ZM204.201 201.352C204.603 201.378 205.044 201.147 205.162 200.841L205.578 199.774C205.621 199.665 205.617 199.56 205.56 199.472C205.486 199.354 205.324 199.276 205.123 199.263L202.386 199.07C201.984 199.04 201.542 199.276 201.42 199.582L201.005 200.648C200.961 200.758 200.965 200.863 201.022 200.95C201.097 201.068 201.258 201.147 201.459 201.16L204.196 201.352H204.201Z" fill="#1E1E1E"></path>
<path d="M210.072 202.03C210.041 202.03 210.011 202.03 209.98 202.03L207.243 201.837C206.933 201.815 206.679 201.684 206.544 201.47C206.43 201.291 206.417 201.081 206.5 200.871L206.916 199.805C207.09 199.359 207.659 199.044 208.214 199.079L210.951 199.271C211.261 199.293 211.515 199.424 211.65 199.639C211.764 199.818 211.777 200.028 211.698 200.237L211.283 201.304C211.117 201.724 210.601 202.03 210.076 202.03H210.072ZM208.127 199.411C207.742 199.411 207.344 199.639 207.23 199.927L206.815 200.994C206.771 201.103 206.776 201.208 206.832 201.295C206.907 201.413 207.069 201.492 207.27 201.505L210.006 201.697C210.413 201.728 210.85 201.492 210.973 201.186L211.388 200.119C211.432 200.01 211.427 199.905 211.37 199.818C211.296 199.7 211.134 199.621 210.933 199.608L208.197 199.416C208.175 199.416 208.153 199.416 208.131 199.416L208.127 199.411Z" fill="#1E1E1E"></path>
<path d="M213.163 202.969C213.115 202.969 213.062 202.948 213.032 202.904L211.261 200.657C211.204 200.583 211.217 200.478 211.287 200.421C211.362 200.364 211.467 200.377 211.523 200.447L213.294 202.694C213.351 202.768 213.338 202.873 213.268 202.93C213.237 202.956 213.202 202.965 213.163 202.965V202.969Z" fill="#1E1E1E"></path>
<path d="M214.496 204.766C214.453 204.766 214.409 204.744 214.383 204.709L213.744 203.839C213.701 203.778 213.714 203.691 213.775 203.643C213.836 203.599 213.924 203.612 213.972 203.673L214.61 204.543C214.654 204.604 214.641 204.692 214.58 204.74C214.553 204.757 214.527 204.766 214.496 204.766Z" fill="#FF8438"></path>
<path d="M165.204 162.799L165.942 162.427C166.445 162.174 167.057 162.292 167.433 162.711L168.692 164.119C168.963 164.425 168.977 164.879 168.723 165.198L168.509 165.465C168.408 165.592 168.216 165.596 168.107 165.474L167.932 165.268" fill="#FF8438"></path>
<path d="M168.312 165.788C168.172 165.788 168.041 165.727 167.949 165.622L167.774 165.417C167.696 165.325 167.704 165.19 167.796 165.107C167.888 165.028 168.023 165.037 168.107 165.128L168.281 165.334H168.347L168.561 165.063C168.749 164.827 168.74 164.49 168.539 164.267L167.28 162.86C166.97 162.514 166.463 162.418 166.047 162.624L165.309 162.995C165.199 163.048 165.068 163.004 165.016 162.899C164.963 162.79 165.007 162.659 165.112 162.606L165.851 162.235C166.441 161.937 167.162 162.077 167.604 162.571L168.863 163.979C169.208 164.363 169.221 164.936 168.902 165.338L168.688 165.605C168.601 165.719 168.465 165.784 168.325 165.788H168.316H168.312Z" fill="#1E1E1E"></path>
<path d="M165.094 163.668L165.536 163.581C165.969 163.498 166.419 163.642 166.721 163.966L168.041 165.382C168.343 165.705 168.382 166.191 168.142 166.562L167.687 167.157L167.569 167.021" fill="#FF8438"></path>
<path d="M167.7 167.506L167.407 167.17C167.329 167.078 167.337 166.942 167.429 166.859C167.499 166.798 167.591 166.789 167.669 166.829L167.971 166.431C168.15 166.156 168.115 165.784 167.884 165.531L166.563 164.114C166.31 163.843 165.943 163.725 165.58 163.795L165.138 163.883C165.02 163.905 164.906 163.83 164.88 163.708C164.858 163.59 164.933 163.476 165.055 163.45L165.497 163.362C166.008 163.262 166.528 163.432 166.883 163.813L168.203 165.229C168.574 165.627 168.623 166.221 168.33 166.676L167.704 167.498L167.7 167.506Z" fill="#1E1E1E"></path>
<path d="M164.885 164.967H165.103C165.549 164.967 165.969 165.159 166.262 165.496L167.473 166.894C167.779 167.249 167.748 167.782 167.403 168.097C167.21 168.271 166.952 168.354 166.694 168.315L166.135 168.236C165.934 168.206 165.755 168.088 165.65 167.913L165.58 167.795C165.448 167.576 165.562 167.292 165.811 167.227L166.222 167.122L165.094 166.964" fill="#FF8438"></path>
<path d="M166.821 168.547C166.769 168.547 166.716 168.547 166.668 168.534L166.109 168.455C165.842 168.416 165.606 168.263 165.466 168.031L165.396 167.913C165.296 167.747 165.282 167.555 165.352 167.375C165.374 167.323 165.401 167.279 165.431 167.235L165.064 167.183C164.946 167.165 164.863 167.056 164.876 166.934C164.893 166.816 165.003 166.733 165.125 166.746L166.253 166.903C166.358 166.916 166.437 167.004 166.441 167.109C166.445 167.214 166.38 167.305 166.275 167.332L165.864 167.436C165.811 167.45 165.772 167.485 165.755 167.533C165.733 167.581 165.737 167.633 165.768 167.681L165.838 167.799C165.908 167.917 166.03 168 166.17 168.018L166.73 168.097C166.922 168.123 167.114 168.066 167.259 167.93C167.516 167.694 167.538 167.297 167.311 167.03L166.1 165.631C165.851 165.343 165.488 165.177 165.108 165.177H164.889C164.767 165.177 164.67 165.08 164.67 164.958C164.67 164.836 164.767 164.74 164.889 164.74H165.108C165.615 164.74 166.096 164.958 166.432 165.343L167.643 166.741C168.028 167.187 167.993 167.847 167.556 168.25C167.355 168.437 167.092 168.534 166.821 168.534V168.547Z" fill="#1E1E1E"></path>
<path d="M325.305 252.39H55.7673V257.027H325.305V252.39Z" fill="#A3A3A3"></path>
<path d="M325.305 252.39H55.7673V253.133H325.305V252.39Z" fill="url(#paint6_linear_3406_17370)"></path>
<path d="M325.301 252.39L312.229 242.109H68.9135L55.7673 252.39H325.301Z" fill="url(#paint7_linear_3406_17370)"></path>
<path opacity="0.1" d="M108.645 242.109L106.734 242.441C106.459 242.489 106.253 242.729 106.253 243.009C106.253 243.276 106.433 243.507 106.691 243.569L123.964 247.861C124.611 248.023 125.271 248.101 125.936 248.101H128.764C131.208 248.101 133.193 246.121 133.193 243.673L161.623 242.83V242.1H108.645V242.109Z" fill="black"></path>
<path opacity="0.1" d="M199.855 245.562L200.817 245.92L196.659 249.242L201.748 252.389H159.822L155.839 249.089L199.855 245.562Z" fill="black"></path>
<path d="M210.291 244.163L213.381 249.548L229.527 249.019L225.832 243.678L210.291 244.163Z" fill="white"></path>
<path d="M194.762 247.778H155.839V249.085H194.762V247.778Z" fill="#7F7F7F"></path>
<path d="M199.855 244.25L194.762 247.778H155.839L160.932 244.25H199.855Z" fill="#CCCCCC"></path>
<path d="M187.666 221.682L194.762 247.778H155.839L148.744 221.682H187.666Z" fill="url(#paint8_linear_3406_17370)"></path>
<path opacity="0.15" d="M263.75 249.242C269.24 249.242 273.691 248.499 273.691 247.581C273.691 246.664 269.24 245.92 263.75 245.92C258.259 245.92 253.808 246.664 253.808 247.581C253.808 248.499 258.259 249.242 263.75 249.242Z" fill="black"></path>
<path d="M204.223 244.596C204.021 244.674 203.925 244.902 204.008 245.103L205.005 247.581L205.727 247.288L204.73 244.81C204.651 244.609 204.424 244.513 204.223 244.596Z" fill="#1E1E1E"></path>
<path d="M199.855 244.25L194.762 247.778V249.089L199.855 245.562V244.25Z" fill="#A3A3A3"></path>
<path d="M214.278 238.061C214.212 238.061 214.151 238.022 214.125 237.96C214.09 237.877 214.125 237.777 214.212 237.742L221.57 234.621C221.653 234.586 221.754 234.621 221.789 234.708C221.824 234.791 221.789 234.892 221.701 234.927L214.343 238.048C214.343 238.048 214.3 238.061 214.278 238.061Z" fill="#1E1E1E"></path>
<path d="M116.567 242.519L120.322 242.109L118.171 241.073L116.658 241.68L116.567 242.519Z" fill="white"></path>
<g opacity="0.3">
<path d="M118.586 241.274C118.626 241.658 118.6 242.008 118.543 242.305L120.322 242.109L118.586 241.274Z" fill="black"></path>
</g>
<path d="M102.918 218.233C102.476 217.67 100.622 217.884 100.553 218.583C100.483 219.278 101.178 226.976 103.858 233.865C106.538 240.754 107.399 243.118 108.724 243.083C110.048 243.048 116.173 243.114 116.658 242.734C117.144 242.353 116.44 239.473 116.064 237.746C115.692 236.02 115.063 233.2 114.647 232.121C114.228 231.041 109.253 227.317 109.253 227.317C109.253 227.317 103.648 219.173 102.918 218.233Z" fill="#3EAAFF"></path>
<g opacity="0.3">
<path d="M107.438 238.026C105.65 234.289 102.66 225.227 101.72 221.424C100.78 217.63 100.553 218.579 100.614 219.794C100.845 222.351 101.72 228.361 103.858 233.86C106.166 239.792 107.123 242.367 108.19 242.948C108.898 243.197 108.955 241.204 107.438 238.026Z" fill="#1E1E1E"></path>
</g>
<path d="M123.278 231.596C122.827 229.24 122.276 225.253 121.197 222.819C120.117 220.384 114.717 210.545 113.812 208.905C112.908 207.271 110.577 206.471 109.043 207.515C107.513 208.56 106.083 212.735 108.208 221.123C110.332 229.511 113.148 233.821 115.063 233.86C116.978 233.9 121.293 233.546 122.198 233.34C123.103 233.13 123.387 232.19 123.273 231.6L123.278 231.596Z" fill="#3EAAFF"></path>
<path opacity="0.3" d="M117.258 225.175C116.562 219.973 114.123 213.425 113.012 210.676C111.902 207.926 110.647 206.637 109.043 207.507C107.513 208.551 106.083 212.726 108.208 221.114C110.332 229.502 113.148 233.812 115.063 233.851C118.403 233.851 117.953 230.372 117.258 225.17V225.175Z" fill="#1E1E1E"></path>
<path d="M177.847 270.796C177.821 270.796 177.799 270.796 177.773 270.783C175.119 269.813 172.321 268.497 170.476 267.348C167.04 265.21 162.139 261.565 158.694 257.735C158.615 257.644 158.62 257.508 158.711 257.425C158.803 257.346 158.939 257.351 159.022 257.443C162.436 261.237 167.298 264.856 170.708 266.976C172.531 268.108 175.298 269.411 177.926 270.372C178.039 270.412 178.096 270.538 178.057 270.652C178.026 270.74 177.939 270.796 177.851 270.796H177.847Z" fill="white"></path>
<path d="M196.502 260.599C196.445 260.599 196.388 260.577 196.349 260.533C195.649 259.834 192.576 257.22 192.545 257.193C192.453 257.115 192.44 256.979 192.519 256.887C192.598 256.796 192.733 256.783 192.825 256.861C192.952 256.971 195.938 259.51 196.655 260.223C196.742 260.31 196.742 260.446 196.655 260.533C196.611 260.577 196.554 260.599 196.502 260.599Z" fill="white"></path>
<path d="M140.721 235.115C140.721 235.115 140.712 235.115 140.708 235.115C138.124 234.944 135.506 234.769 132.961 234.586C130.421 234.402 128.226 234.236 126.255 234.074C126.132 234.066 126.045 233.961 126.054 233.838C126.062 233.716 126.167 233.629 126.29 233.637C128.261 233.799 130.452 233.97 132.992 234.149C135.536 234.332 138.155 234.507 140.734 234.678C140.857 234.686 140.944 234.791 140.94 234.909C140.931 235.023 140.835 235.115 140.721 235.115Z" fill="white"></path>
<path d="M263.75 223.789C263.671 223.789 263.597 223.732 263.584 223.649C263.566 223.557 263.627 223.47 263.719 223.457L264.663 223.295C264.755 223.278 264.843 223.339 264.856 223.431C264.873 223.523 264.812 223.61 264.72 223.623L263.776 223.785C263.776 223.785 263.758 223.785 263.745 223.785L263.75 223.789Z" fill="#1E1E1E"></path>
<path d="M262.744 220.353C262.692 220.353 262.639 220.327 262.609 220.283C262.556 220.209 262.574 220.104 262.648 220.052L263.33 219.567C263.404 219.514 263.509 219.532 263.562 219.606C263.614 219.68 263.597 219.785 263.522 219.838L262.84 220.323C262.81 220.345 262.775 220.353 262.744 220.353Z" fill="#1E1E1E"></path>
<path d="M259.129 220.157C259.072 220.157 259.015 220.126 258.984 220.074L258.481 219.204C258.433 219.125 258.464 219.02 258.543 218.976C258.621 218.928 258.726 218.959 258.77 219.038L259.273 219.908C259.321 219.986 259.29 220.091 259.212 220.135C259.185 220.148 259.155 220.157 259.129 220.157Z" fill="#1E1E1E"></path>
<path d="M257.625 225.538C257.594 225.538 257.563 225.529 257.537 225.511L256.759 225.026C256.68 224.978 256.658 224.873 256.707 224.794C256.755 224.716 256.86 224.694 256.938 224.742L257.716 225.227C257.795 225.275 257.817 225.38 257.769 225.459C257.738 225.511 257.681 225.538 257.625 225.538Z" fill="#1E1E1E"></path>
<path d="M270.543 235.25C270.543 234.311 266.508 233.554 261.529 233.554C256.549 233.554 252.514 234.315 252.514 235.25C252.514 235.294 252.527 235.338 252.54 235.377L255.019 246.668C255.019 247.345 257.935 247.892 261.529 247.892C265.122 247.892 268.038 247.341 268.038 246.668L270.517 235.377C270.535 235.333 270.543 235.294 270.543 235.25Z" fill="#F8F8F8"></path>
<path d="M261.529 236.439C265.648 236.439 268.987 235.907 268.987 235.25C268.987 234.594 265.648 234.061 261.529 234.061C257.41 234.061 254.07 234.594 254.07 235.25C254.07 235.907 257.41 236.439 261.529 236.439Z" fill="#1E1E1E"></path>
<path d="M264.231 234.144V222.447C264.231 220.515 262.665 218.95 260.733 218.95C258.801 218.95 257.236 220.515 257.236 222.447V234.28C258.451 234.144 259.929 234.061 261.524 234.061C262.477 234.061 263.391 234.092 264.231 234.144Z" fill="#80A8EB"></path>
<path d="M261.529 234.061C259.933 234.061 258.455 234.14 257.24 234.28V236.225C258.455 236.361 259.933 236.444 261.529 236.444C262.482 236.444 263.396 236.413 264.235 236.361V234.144C263.396 234.092 262.486 234.061 261.529 234.061Z" fill="#80A8EB"></path>
<path d="M264.484 232.282H263.299C262.32 232.282 261.524 231.487 261.524 230.508C261.524 229.529 262.32 228.733 263.299 228.733H264.484C264.637 228.733 264.764 228.606 264.764 228.453V225.616C264.764 224.637 265.56 223.842 266.539 223.842C267.518 223.842 268.314 224.637 268.314 225.616V228.453C268.314 230.564 266.596 232.278 264.489 232.278L264.484 232.282Z" fill="#80A8EB"></path>
<path d="M257.778 232.055C257.778 232.055 257.734 232.055 257.716 232.042L256.641 231.605C256.553 231.57 256.514 231.474 256.549 231.386C256.584 231.299 256.68 231.259 256.768 231.294L257.843 231.732C257.931 231.767 257.97 231.863 257.935 231.95C257.909 232.016 257.848 232.055 257.778 232.055Z" fill="#1E1E1E"></path>
<path d="M259.277 227.972C259.225 227.972 259.172 227.946 259.142 227.902L258.394 226.866C258.342 226.792 258.359 226.687 258.433 226.635C258.508 226.582 258.613 226.6 258.665 226.674L259.413 227.71C259.465 227.784 259.448 227.889 259.373 227.942C259.343 227.964 259.308 227.972 259.277 227.972Z" fill="#1E1E1E"></path>
<path d="M257.778 229.17C257.747 229.17 257.716 229.161 257.69 229.144L256.615 228.497C256.536 228.449 256.51 228.348 256.558 228.265C256.606 228.186 256.706 228.16 256.79 228.208L257.865 228.855C257.944 228.903 257.97 229.004 257.922 229.087C257.891 229.139 257.834 229.17 257.778 229.17Z" fill="#1E1E1E"></path>
<path d="M257.778 222.364C257.725 222.364 257.677 222.342 257.642 222.299L256.938 221.363C256.881 221.289 256.899 221.184 256.973 221.127C257.047 221.07 257.152 221.088 257.209 221.162L257.913 222.098C257.97 222.172 257.952 222.277 257.878 222.334C257.848 222.355 257.813 222.369 257.778 222.369V222.364Z" fill="#1E1E1E"></path>
<path d="M260.737 219.724C260.737 219.724 260.716 219.724 260.702 219.724C260.611 219.707 260.554 219.619 260.571 219.527L260.829 218.242C260.847 218.15 260.934 218.094 261.026 218.111C261.118 218.129 261.175 218.216 261.157 218.308L260.899 219.593C260.882 219.672 260.812 219.728 260.733 219.728L260.737 219.724Z" fill="#1E1E1E"></path>
<path d="M263.522 221.896C263.452 221.896 263.387 221.853 263.365 221.783C263.334 221.695 263.382 221.599 263.47 221.569L264.865 221.101C264.952 221.07 265.048 221.118 265.079 221.206C265.109 221.293 265.061 221.389 264.974 221.42L263.579 221.888C263.579 221.888 263.544 221.896 263.527 221.896H263.522Z" fill="#1E1E1E"></path>
<path d="M259.894 222.102C259.837 222.102 259.78 222.071 259.749 222.019L259.229 221.11C259.185 221.031 259.212 220.926 259.29 220.882C259.369 220.834 259.474 220.865 259.518 220.944L260.038 221.853C260.082 221.931 260.055 222.036 259.977 222.08C259.95 222.093 259.92 222.102 259.894 222.102Z" fill="#1E1E1E"></path>
<path d="M261.524 223.431C261.498 223.431 261.476 223.426 261.45 223.413C261.367 223.374 261.332 223.273 261.371 223.19L261.848 222.22C261.887 222.137 261.988 222.102 262.071 222.141C262.154 222.181 262.189 222.281 262.15 222.364L261.673 223.335C261.642 223.396 261.586 223.426 261.524 223.426V223.431Z" fill="#1E1E1E"></path>
<path d="M259.99 225.087C259.933 225.087 259.876 225.057 259.845 225.004L259.229 223.933C259.181 223.855 259.212 223.75 259.29 223.706C259.369 223.658 259.474 223.689 259.518 223.767L260.134 224.838C260.182 224.917 260.152 225.022 260.073 225.066C260.047 225.079 260.016 225.087 259.99 225.087Z" fill="#1E1E1E"></path>
<path d="M262.875 226.123C262.832 226.123 262.788 226.106 262.753 226.071C262.687 226.005 262.692 225.896 262.757 225.835L263.632 225.009C263.697 224.943 263.806 224.948 263.868 225.013C263.933 225.079 263.929 225.188 263.863 225.249L262.989 226.075C262.958 226.106 262.915 226.123 262.875 226.123Z" fill="#1E1E1E"></path>
<path d="M261.529 227.452C261.459 227.452 261.393 227.404 261.367 227.334L261.157 226.661C261.131 226.574 261.179 226.477 261.266 226.451C261.354 226.425 261.45 226.473 261.476 226.561L261.686 227.234C261.712 227.321 261.664 227.417 261.577 227.443C261.559 227.448 261.542 227.452 261.529 227.452Z" fill="#1E1E1E"></path>
<path d="M259.684 230.63C259.684 230.63 259.662 230.63 259.653 230.63L259.312 230.564C259.22 230.547 259.163 230.459 259.181 230.368C259.198 230.276 259.286 230.219 259.378 230.237L259.719 230.302C259.81 230.32 259.867 230.407 259.85 230.499C259.837 230.578 259.762 230.634 259.684 230.634V230.63Z" fill="#1E1E1E"></path>
<path d="M260.217 233.353C260.178 233.353 260.139 233.34 260.108 233.31C260.038 233.248 260.034 233.143 260.095 233.073L260.615 232.492C260.676 232.422 260.781 232.418 260.851 232.479C260.921 232.54 260.925 232.645 260.864 232.715L260.344 233.296C260.309 233.336 260.265 233.353 260.217 233.353Z" fill="#1E1E1E"></path>
<path d="M263.75 233.72C263.667 233.72 263.597 233.659 263.584 233.576C263.57 233.484 263.632 233.401 263.723 233.384L264.895 233.209C264.987 233.196 265.07 233.257 265.087 233.349C265.101 233.441 265.039 233.524 264.948 233.541L263.776 233.716C263.776 233.716 263.758 233.716 263.75 233.716V233.72Z" fill="#1E1E1E"></path>
<path d="M205.368 247.826C205.583 247.826 205.757 247.652 205.757 247.437C205.757 247.222 205.583 247.048 205.368 247.048C205.153 247.048 204.979 247.222 204.979 247.437C204.979 247.652 205.153 247.826 205.368 247.826Z" fill="#7F7F7F"></path>
<path d="M197.306 215.654H194.762C194.67 215.654 194.596 215.58 194.596 215.488C194.596 215.397 194.67 215.322 194.762 215.322H197.306C197.398 215.322 197.472 215.397 197.472 215.488C197.472 215.58 197.398 215.654 197.306 215.654Z" fill="#1E1E1E"></path>
<path d="M173.475 236.128C173.664 235.161 172.803 234.179 171.552 233.934C170.301 233.69 169.133 234.275 168.944 235.241C168.755 236.208 169.616 237.19 170.867 237.435C172.118 237.68 173.286 237.094 173.475 236.128Z" fill="#CCCCCC"></path>
<path opacity="0.15" d="M238.345 246.288C240.624 246.288 242.472 245.82 242.472 245.243C242.472 244.666 240.624 244.198 238.345 244.198C236.066 244.198 234.218 244.666 234.218 245.243C234.218 245.82 236.066 246.288 238.345 246.288Z" fill="black"></path>
<path d="M237.825 239.455C236.059 239.455 234.629 239.731 234.629 240.067V244.967C234.629 245.304 236.059 245.807 237.825 245.807C239.591 245.807 241.021 245.304 241.021 244.967V240.067C241.021 239.731 239.591 239.455 237.825 239.455Z" fill="url(#paint9_linear_3406_17370)"></path>
<path d="M240.142 240.198C239.788 240.05 238.887 239.941 237.825 239.941C236.762 239.941 235.862 240.05 235.508 240.198C235.862 240.347 236.762 240.456 237.825 240.456C238.887 240.456 239.788 240.347 240.142 240.198Z" fill="#1E1E1E"></path>
<path opacity="0.15" d="M240.115 242.061L241.029 242.974V241.934L240.115 242.061Z" fill="black"></path>
<path opacity="0.15" d="M240.115 244.342L241.029 244.924V244.216L240.115 244.342Z" fill="black"></path>
<path d="M240.916 244.434H240.4C240.12 244.434 239.888 244.207 239.888 243.923C239.888 243.639 240.116 243.411 240.4 243.411H240.916C241.099 243.411 241.243 243.263 241.243 243.083V242.467C241.243 242.284 241.095 242.139 240.916 242.139H240.4C240.12 242.139 239.888 241.912 239.888 241.628C239.888 241.344 240.116 241.116 240.4 241.116H240.916C241.659 241.116 242.266 241.72 242.266 242.467V243.083C242.266 243.827 241.663 244.434 240.916 244.434Z" fill="#E7E7E7"></path>
<path opacity="0.6" d="M258.329 15.4651L258.281 19.045L261.389 18.9926L261.358 15.3951L258.329 15.4651Z" fill="#2B6FDF"></path>
<path opacity="0.6" d="M262.757 13.5679L262.718 18.94L265.826 18.8876L265.787 13.4149L262.757 13.5679Z" fill="#2B6FDF"></path>
<path opacity="0.6" d="M267.177 9.90494L267.155 18.8352L270.268 18.7827L270.207 9.75195L267.177 9.90494Z" fill="#2B6FDF"></path>
<path opacity="0.6" d="M271.628 12.6544L271.593 18.7303L274.706 18.6779L274.662 12.4971L271.628 12.6544Z" fill="#2B6FDF"></path>
<path opacity="0.6" d="M276.039 6.64408L276.03 18.6297L279.143 18.5773L279.069 6.49109L276.039 6.64408Z" fill="#2B6FDF"></path>
<path d="M281.211 11.8589C281.102 11.8589 281.01 11.7715 281.005 11.6622C281.005 11.5486 281.088 11.4568 281.202 11.4524L288.337 11.2076C288.446 11.2076 288.542 11.2907 288.547 11.4043C288.547 11.518 288.464 11.6098 288.35 11.6142L281.215 11.8589C281.215 11.8589 281.211 11.8589 281.206 11.8589H281.211Z" fill="#CDCDCD"></path>
<path d="M281.189 13.485C281.08 13.485 280.988 13.3976 280.984 13.2883C280.984 13.1747 281.071 13.0829 281.18 13.0785L288.241 12.873C288.355 12.873 288.446 12.9605 288.451 13.0697C288.451 13.1834 288.363 13.2752 288.254 13.2796L281.193 13.485C281.193 13.485 281.193 13.485 281.189 13.485Z" fill="#CDCDCD"></path>
<path d="M281.172 15.111C281.062 15.111 280.97 15.0236 280.966 14.91C280.966 14.7963 281.054 14.7045 281.163 14.7001L288.153 14.5297C288.267 14.5297 288.359 14.6171 288.363 14.7264C288.363 14.84 288.276 14.9318 288.167 14.9362L281.176 15.1067C281.176 15.1067 281.176 15.1067 281.172 15.1067V15.111Z" fill="#CDCDCD"></path>
<path d="M281.15 16.7371C281.041 16.7371 280.949 16.6497 280.944 16.536C280.944 16.4224 281.032 16.3306 281.145 16.3306L288.062 16.1995C288.175 16.1995 288.267 16.2869 288.267 16.4005C288.267 16.5142 288.18 16.606 288.066 16.606L281.15 16.7371Z" fill="#CDCDCD"></path>
<path d="M281.128 18.3632C281.019 18.3632 280.927 18.2758 280.922 18.1621C280.922 18.0485 281.01 17.9567 281.123 17.9567L287.965 17.8649C288.079 17.8649 288.171 17.9523 288.171 18.0659C288.171 18.1796 288.083 18.2714 287.97 18.2714L281.128 18.3632Z" fill="#CDCDCD"></path>
<path opacity="0.6" d="M336.288 80.6606L335.588 88.5549C335.588 88.5549 352.765 88.6467 357.885 88.9046L358.444 80.6606H336.288Z" fill="#2B6FDF"></path>
<path d="M334.779 99.9636C334.779 99.9636 334.766 99.9636 334.762 99.9636C334.648 99.9549 334.565 99.8543 334.578 99.7407L335.055 94.2986C335.064 94.1849 335.164 94.1019 335.278 94.115C335.391 94.1238 335.475 94.2243 335.461 94.3379L334.985 99.78C334.976 99.8849 334.889 99.968 334.784 99.968L334.779 99.9636Z" fill="#CDCDCD"></path>
<path d="M338.19 100.064C338.19 100.064 338.176 100.064 338.168 100.064C338.054 100.051 337.975 99.9548 337.984 99.8411L338.714 92.4277C338.727 92.314 338.823 92.2353 338.937 92.2441C339.051 92.2572 339.129 92.3533 339.121 92.467L338.391 99.8805C338.382 99.9854 338.29 100.064 338.19 100.064Z" fill="#CDCDCD"></path>
<path d="M341.599 100.086C341.599 100.086 341.586 100.086 341.582 100.086C341.468 100.077 341.39 99.9766 341.398 99.863L341.604 97.6949C341.613 97.5812 341.713 97.5025 341.827 97.5113C341.94 97.52 342.019 97.6206 342.01 97.7342L341.805 99.9023C341.796 100.007 341.704 100.086 341.604 100.086H341.599Z" fill="#CDCDCD"></path>
<path d="M345.005 100.186C345.005 100.186 344.992 100.186 344.983 100.186C344.87 100.173 344.791 100.073 344.8 99.9636L345.158 96.4754C345.171 96.3617 345.268 96.2831 345.381 96.2918C345.495 96.3049 345.574 96.4055 345.565 96.5147L345.206 100.003C345.198 100.108 345.106 100.186 345.005 100.186Z" fill="#CDCDCD"></path>
<path d="M348.415 100.204C348.415 100.204 348.402 100.204 348.393 100.204C348.28 100.191 348.201 100.09 348.214 99.9811L348.909 93.503C348.922 93.3894 349.023 93.3107 349.132 93.3238C349.246 93.3369 349.325 93.4375 349.311 93.5467L348.616 100.025C348.603 100.13 348.516 100.208 348.415 100.208V100.204Z" fill="#CDCDCD"></path>
<path d="M351.825 100.309C351.825 100.309 351.808 100.309 351.803 100.309C351.69 100.296 351.611 100.195 351.624 100.082L352.577 91.8988C352.59 91.7851 352.691 91.7065 352.805 91.7196C352.918 91.7327 352.997 91.8332 352.984 91.9469L352.031 100.13C352.018 100.235 351.93 100.309 351.83 100.309H351.825Z" fill="#CDCDCD"></path>
<path d="M355.235 100.409C355.235 100.409 355.218 100.409 355.209 100.409C355.095 100.392 355.021 100.291 355.034 100.178L355.882 94.0276C355.9 93.9183 356 93.8396 356.114 93.8527C356.228 93.8702 356.302 93.9708 356.289 94.0844L355.441 100.235C355.428 100.335 355.34 100.409 355.24 100.409H355.235Z" fill="#CDCDCD"></path>
<path d="M358.641 100.593C358.641 100.593 358.624 100.593 358.61 100.593C358.501 100.575 358.422 100.475 358.436 100.361L359.1 95.6099C359.118 95.5006 359.218 95.4219 359.332 95.435C359.445 95.4525 359.52 95.553 359.507 95.6667L358.842 100.418C358.829 100.519 358.742 100.593 358.641 100.593Z" fill="#CDCDCD"></path>
<path d="M362.051 100.777C362.051 100.777 362.034 100.777 362.025 100.777C361.911 100.759 361.837 100.659 361.85 100.545L363.096 91.5972C363.113 91.4879 363.214 91.4092 363.328 91.4223C363.441 91.4398 363.516 91.5403 363.502 91.654L362.256 100.602C362.243 100.702 362.156 100.777 362.055 100.777H362.051Z" fill="#CDCDCD"></path>
<path d="M365.461 100.877C365.461 100.877 365.444 100.877 365.43 100.877C365.321 100.86 365.242 100.759 365.256 100.645L365.955 95.7454C365.973 95.6361 366.073 95.5574 366.187 95.5705C366.296 95.588 366.375 95.6885 366.362 95.8022L365.662 100.702C365.649 100.803 365.562 100.877 365.461 100.877Z" fill="#CDCDCD"></path>
<path opacity="0.7" d="M353.984 31.9685C356.023 27.9271 355.245 23.4249 352.246 21.9124C349.248 20.3999 345.164 22.4499 343.125 26.4912C341.086 30.5326 341.863 35.0348 344.862 36.5473C347.861 38.0598 351.945 36.0098 353.984 31.9685Z" fill="#AAAAAA"></path>
<path opacity="0.7" d="M368.871 30.4132C370.98 26.2339 370.307 21.6445 367.369 20.1624C364.431 18.6804 360.339 20.8669 358.23 25.0462C356.122 29.2255 356.794 33.8148 359.733 35.2969C362.671 36.7789 366.762 34.5924 368.871 30.4132Z" fill="#AAAAAA"></path>
</g>
<defs>
<linearGradient id="paint0_linear_3406_17370" x1="166.961" y1="72.6607" x2="166.929" y2="70.1169" gradientUnits="userSpaceOnUse">
<stop stop-color="#FF8438"></stop>
<stop offset="1" stop-color="#F4F4F4"></stop>
</linearGradient>
<linearGradient id="paint1_linear_3406_17370" x1="171.651" y1="72.6018" x2="171.619" y2="70.058" gradientUnits="userSpaceOnUse">
<stop stop-color="#FF8438"></stop>
<stop offset="1" stop-color="#F4F4F4"></stop>
</linearGradient>
<linearGradient id="paint2_linear_3406_17370" x1="188.392" y1="221.556" x2="153.946" y2="221.556" gradientUnits="userSpaceOnUse">
<stop stop-color="#F4F4F4"></stop>
<stop offset="1" stop-color="#D0D0D0"></stop>
</linearGradient>
<linearGradient id="paint3_linear_3406_17370" x1="208.734" y1="286.497" x2="208.734" y2="319.911" gradientUnits="userSpaceOnUse">
<stop stop-color="#F4F4F4"></stop>
<stop offset="1" stop-color="#D0D0D0"></stop>
</linearGradient>
<linearGradient id="paint4_linear_3406_17370" x1="203.296" y1="201.61" x2="203.296" y2="199.324" gradientUnits="userSpaceOnUse">
<stop stop-color="#FF8438"></stop>
<stop offset="1" stop-color="#F4F4F4"></stop>
</linearGradient>
<linearGradient id="paint5_linear_3406_17370" x1="209.097" y1="201.61" x2="209.097" y2="199.324" gradientUnits="userSpaceOnUse">
<stop stop-color="#FF8438"></stop>
<stop offset="1" stop-color="#F4F4F4"></stop>
</linearGradient>
<linearGradient id="paint6_linear_3406_17370" x1="317.244" y1="252.765" x2="126.64" y2="252.765" gradientUnits="userSpaceOnUse">
<stop stop-color="#F4F4F4"></stop>
<stop offset="1" stop-color="#D0D0D0"></stop>
</linearGradient>
<linearGradient id="paint7_linear_3406_17370" x1="27.0879" y1="247.249" x2="297.662" y2="247.249" gradientUnits="userSpaceOnUse">
<stop stop-color="#F4F4F4"></stop>
<stop offset="1" stop-color="#D0D0D0"></stop>
</linearGradient>
<linearGradient id="paint8_linear_3406_17370" x1="171.753" y1="258.448" x2="171.753" y2="219.322" gradientUnits="userSpaceOnUse">
<stop stop-color="#F4F4F4"></stop>
<stop offset="1" stop-color="#D0D0D0"></stop>
</linearGradient>
<linearGradient id="paint9_linear_3406_17370" x1="237.825" y1="236.807" x2="237.825" y2="252.634" gradientUnits="userSpaceOnUse">
<stop stop-color="#F4F4F4"></stop>
<stop offset="1" stop-color="#D0D0D0"></stop>
</linearGradient>
<clipPath id="clip0_3406_17370">
<rect width="386" height="322" fill="white"></rect>
</clipPath>
</defs>
</svg>