<svg width="389" height="303" viewBox="0 0 389 303" fill="none" xmlns="http://www.w3.org/2000/svg">
<g clip-path="url(#clip0_3406_17224)">
<path d="M385.379 141.076H275.057C273.057 141.076 271.436 142.701 271.436 144.705V232.781C271.436 234.785 273.057 236.41 275.057 236.41H385.379C387.379 236.41 389 234.785 389 232.781V144.705C389 142.701 387.379 141.076 385.379 141.076Z" fill="#F4F4F4"></path>
<path d="M117.508 139.494H3.77073C1.68821 139.494 0 141.186 0 143.274V235.814C0 237.901 1.68821 239.594 3.77073 239.594H117.508C119.59 239.594 121.278 237.901 121.278 235.814V143.274C121.278 141.186 119.59 139.494 117.508 139.494Z" fill="#F4F4F4"></path>
<path d="M157.622 0H16.2886C13.9156 0 11.9919 1.92824 11.9919 4.30685V129.23C11.9919 131.608 13.9156 133.537 16.2886 133.537H157.622C159.995 133.537 161.919 131.608 161.919 129.23V4.30685C161.919 1.92824 159.995 0 157.622 0Z" fill="#F4F4F4"></path>
<path d="M129.645 117.493H38.6581C38.2778 117.493 37.9744 117.185 37.9744 116.808C37.9744 116.431 38.2819 116.123 38.6581 116.123H129.645C130.025 116.123 130.329 116.431 130.329 116.808C130.329 117.185 130.021 117.493 129.645 117.493Z" fill="#C2C2C2"></path>
<path d="M45.6858 61.3178L46.7984 64.7446C46.8429 64.8784 46.9642 64.9677 47.1018 64.9677H50.6986C51.0101 64.9677 51.1355 65.3651 50.8847 65.5476L47.9757 67.6645C47.8624 67.7456 47.8179 67.8916 47.8584 68.0214L48.971 71.4482C49.0681 71.7443 48.7282 71.9876 48.4774 71.8051L45.5684 69.6882C45.4551 69.6071 45.3054 69.6071 45.1922 69.6882L42.2832 71.8051C42.0324 71.9876 41.6965 71.7402 41.7896 71.4482L42.9022 68.0214C42.9467 67.8876 42.8982 67.7456 42.7849 67.6645L39.8759 65.5476C39.6251 65.3651 39.7545 64.9677 40.062 64.9677H43.6588C43.7963 64.9677 43.9218 64.8784 43.9622 64.7446L45.0748 61.3178C45.1719 61.0218 45.5887 61.0218 45.6817 61.3178H45.6858Z" fill="#FFC401"></path>
<path d="M65.0693 61.3178L66.1819 64.7446C66.2264 64.8784 66.3478 64.9677 66.4853 64.9677H70.0821C70.3936 64.9677 70.519 65.3651 70.2682 65.5476L67.3592 67.6645C67.246 67.7456 67.2015 67.8916 67.2419 68.0214L68.3545 71.4482C68.4516 71.7443 68.1118 71.9876 67.8609 71.8051L64.952 69.6882C64.8387 69.6071 64.689 69.6071 64.5757 69.6882L61.6667 71.8051C61.4159 71.9876 61.0801 71.7402 61.1731 71.4482L62.2858 68.0214C62.3303 67.8876 62.2817 67.7456 62.1684 67.6645L59.2595 65.5476C59.0086 65.3651 59.1381 64.9677 59.4456 64.9677H63.0423C63.1799 64.9677 63.3053 64.8784 63.3458 64.7446L64.4584 61.3178C64.5555 61.0218 64.9722 61.0218 65.0653 61.3178H65.0693Z" fill="#FFC401"></path>
<path d="M84.4531 61.3178L85.5657 64.7446C85.6102 64.8784 85.7316 64.9677 85.8691 64.9677H89.4659C89.7774 64.9677 89.9028 65.3651 89.652 65.5476L86.743 67.6645C86.6297 67.7456 86.5852 67.8916 86.6257 68.0214L87.7383 71.4482C87.8354 71.7443 87.4956 71.9876 87.2447 71.8051L84.3358 69.6882C84.2225 69.6071 84.0728 69.6071 83.9595 69.6882L81.0505 71.8051C80.7997 71.9876 80.4639 71.7402 80.5569 71.4482L81.6695 68.0214C81.714 67.8876 81.6655 67.7456 81.5522 67.6645L78.6433 65.5476C78.3924 65.3651 78.5219 64.9677 78.8294 64.9677H82.4261C82.5637 64.9677 82.6891 64.8784 82.7296 64.7446L83.8422 61.3178C83.9393 61.0218 84.356 61.0218 84.449 61.3178H84.4531Z" fill="#FFC401"></path>
<path d="M103.841 61.3178L104.953 64.7446C104.998 64.8784 105.119 64.9677 105.257 64.9677H108.854C109.165 64.9677 109.291 65.3651 109.04 65.5476L106.131 67.6645C106.017 67.7456 105.973 67.8916 106.013 68.0214L107.126 71.4482C107.223 71.7443 106.883 71.9876 106.632 71.8051L103.723 69.6882C103.61 69.6071 103.46 69.6071 103.347 69.6882L100.438 71.8051C100.187 71.9876 99.8516 71.7402 99.9446 71.4482L101.057 68.0214C101.102 67.8876 101.053 67.7456 100.94 67.6645L98.0309 65.5476C97.7801 65.3651 97.9096 64.9677 98.2171 64.9677H101.814C101.951 64.9677 102.077 64.8784 102.117 64.7446L103.23 61.3178C103.327 61.0218 103.744 61.0218 103.837 61.3178H103.841Z" fill="#FFC401"></path>
<path d="M123.224 61.3178L124.337 64.7446C124.381 64.8784 124.503 64.9677 124.64 64.9677H128.237C128.549 64.9677 128.674 65.3651 128.423 65.5476L125.514 67.6645C125.401 67.7456 125.356 67.8916 125.397 68.0214L126.51 71.4482C126.607 71.7443 126.267 71.9876 126.016 71.8051L123.107 69.6882C122.994 69.6071 122.844 69.6071 122.731 69.6882L119.822 71.8051C119.571 71.9876 119.235 71.7402 119.328 71.4482L120.441 68.0214C120.485 67.8876 120.437 67.7456 120.323 67.6645L117.414 65.5476C117.164 65.3651 117.293 64.9677 117.601 64.9677H121.197C121.335 64.9677 121.46 64.8784 121.501 64.7446L122.613 61.3178C122.711 61.0218 123.127 61.0218 123.22 61.3178H123.224Z" fill="#C2C2C2"></path>
<path d="M360.76 0.158142H175.622C172.565 0.158142 170.087 2.64198 170.087 5.70594V127.989C170.087 131.053 172.565 133.537 175.622 133.537H360.76C363.817 133.537 366.295 131.053 366.295 127.989V5.70594C366.295 2.64198 363.817 0.158142 360.76 0.158142Z" fill="#F4F4F4"></path>
<path d="M255.066 63.0697C254.828 62.9886 254.585 62.9116 254.33 62.8386C254.371 62.6683 254.411 62.502 254.443 62.3357C255.002 59.6267 254.638 57.4449 253.391 56.7271C252.198 56.0377 250.252 56.7555 248.282 58.475C248.091 58.6412 247.901 58.8156 247.711 58.9981C247.586 58.8765 247.46 58.7588 247.331 58.6493C245.267 56.8122 243.2 56.0377 241.958 56.7595C240.768 57.4489 240.416 59.501 240.914 62.0681C240.963 62.3154 241.019 62.5709 241.084 62.8264C240.793 62.9116 240.509 62.9967 240.238 63.0941C237.819 63.9376 236.273 65.2637 236.273 66.6385C236.273 68.0133 237.932 69.4814 240.453 70.3452C240.651 70.4141 240.857 70.479 241.072 70.5398C241.003 70.8196 240.942 71.0913 240.894 71.359C240.416 73.8815 240.789 75.8848 241.978 76.5702C243.204 77.2799 245.263 76.5499 247.266 74.7939C247.424 74.656 247.582 74.506 247.743 74.3519C247.95 74.5506 248.156 74.7412 248.362 74.9156C250.304 76.5905 252.222 77.2677 253.408 76.5783C254.634 75.8686 255.03 73.7152 254.512 71.0995C254.472 70.9007 254.427 70.6939 254.375 70.4871C254.52 70.4425 254.662 70.4019 254.799 70.3533C257.417 69.4813 259.124 68.0782 259.124 66.6385C259.124 65.1988 257.53 63.9254 255.062 63.0738L255.066 63.0697ZM248.925 59.209C250.612 57.7369 252.19 57.157 252.906 57.5706C253.671 58.0127 253.97 59.797 253.489 62.1329C253.456 62.283 253.424 62.433 253.387 62.5872C252.441 62.3682 251.409 62.2059 250.333 62.1046C249.706 61.2083 249.054 60.3932 248.403 59.6875C248.577 59.5172 248.755 59.355 248.929 59.2049L248.925 59.209ZM243.544 66.6547C243.839 66.0383 244.163 65.4219 244.515 64.8095C244.867 64.1971 245.239 63.6051 245.623 63.0414C246.303 62.9886 246.999 62.9643 247.703 62.9643C248.411 62.9643 249.107 62.9927 249.787 63.0414C250.163 63.601 250.535 64.189 250.887 64.8014C251.247 65.4219 251.575 66.0343 251.87 66.6385C251.575 67.2509 251.247 67.8714 250.887 68.4918C250.531 69.1123 250.163 69.7044 249.791 70.264C249.111 70.3127 248.411 70.337 247.699 70.337C246.987 70.337 246.295 70.3168 245.631 70.2722C245.243 69.7044 244.871 69.1123 244.515 68.4959C244.163 67.8835 243.835 67.2671 243.54 66.6507L243.544 66.6547ZM243.026 67.8065C243.232 68.2039 243.447 68.5973 243.673 68.9906C243.904 69.3921 244.143 69.7855 244.389 70.1667C243.641 70.0816 242.937 69.968 242.286 69.8261C242.488 69.1731 242.735 68.4959 243.026 67.8024V67.8065ZM243.026 65.507C242.743 64.8298 242.5 64.1688 242.302 63.524C242.953 63.378 243.649 63.2563 244.373 63.1671C244.135 63.5402 243.9 63.9254 243.673 64.3188C243.447 64.7122 243.232 65.1056 243.03 65.503L243.026 65.507ZM251.737 68.9866C251.971 68.581 252.19 68.1755 252.4 67.774C252.704 68.4716 252.963 69.1447 253.169 69.7896C252.505 69.9396 251.789 70.0613 251.037 70.1545C251.275 69.7774 251.506 69.3881 251.737 68.9906V68.9866ZM252.388 65.507C252.182 65.1137 251.963 64.7162 251.733 64.3148C251.506 63.9214 251.275 63.5402 251.037 63.1711C251.765 63.2644 252.465 63.3861 253.12 63.5361C252.922 64.1688 252.679 64.8298 252.388 65.507ZM247.711 60.3932C248.16 60.8798 248.613 61.4273 249.054 62.0194C248.609 61.9991 248.156 61.987 247.699 61.987C247.242 61.987 246.797 61.9991 246.356 62.0194C246.801 61.4314 247.254 60.8879 247.711 60.3932ZM242.447 57.603C243.212 57.161 244.903 57.7937 246.683 59.3793C246.797 59.4807 246.91 59.5861 247.027 59.6956C246.364 60.4094 245.708 61.2245 245.081 62.1086C244.005 62.21 242.977 62.3682 242.031 62.5831C241.97 62.3438 241.917 62.1086 241.873 61.8775C241.444 59.6794 241.727 58.0208 242.447 57.603ZM241.335 69.5908C241.141 69.5341 240.95 69.4773 240.772 69.4124C239.66 69.0312 238.737 68.5364 238.106 67.993C237.54 67.5064 237.253 67.0238 237.253 66.6304C237.253 65.795 238.495 64.7325 240.562 64.0106C240.813 63.9214 241.076 63.8403 241.347 63.7632C241.634 64.696 242.006 65.6693 242.46 66.6547C242.002 67.6564 241.622 68.6459 241.331 69.5868L241.335 69.5908ZM246.623 74.0518C245.737 74.8304 244.847 75.3779 244.066 75.6577C243.362 75.9051 242.803 75.9132 242.464 75.7186C241.743 75.3009 241.444 73.6949 241.853 71.5374C241.901 71.2901 241.954 71.0386 242.019 70.7791C242.953 70.9859 243.989 71.136 245.097 71.2252C245.729 72.1174 246.392 72.9366 247.06 73.6544C246.914 73.7963 246.768 73.9301 246.623 74.0559V74.0518ZM247.739 72.9447C247.278 72.4459 246.817 71.8903 246.364 71.2941C246.801 71.3103 247.246 71.3184 247.699 71.3184C248.152 71.3184 248.625 71.3063 249.079 71.286C248.634 71.8903 248.184 72.4459 247.735 72.9406L247.739 72.9447ZM253.667 74.3073C253.529 75.0413 253.258 75.532 252.918 75.7307C252.198 76.1484 250.656 75.605 248.998 74.1735C248.807 74.0072 248.617 73.8328 248.423 73.6503C249.066 72.9447 249.71 72.1255 250.337 71.213C251.441 71.1157 252.485 70.9535 253.432 70.7345C253.48 70.921 253.521 71.1076 253.557 71.2901C253.788 72.4459 253.82 73.4922 253.667 74.3113V74.3073ZM254.496 69.4205C254.371 69.4611 254.241 69.5016 254.112 69.5422C253.824 68.6257 253.432 67.6483 252.954 66.6426C253.412 65.6571 253.784 64.696 254.067 63.7835C254.302 63.8524 254.528 63.9214 254.747 63.9984C256.863 64.7284 258.149 65.8072 258.149 66.6385C258.149 67.5226 256.758 68.6743 254.496 69.4246V69.4205Z" fill="#53C0DD"></path>
<path d="M247.703 68.6784C248.828 68.6784 249.742 67.7618 249.742 66.6344C249.742 65.507 248.828 64.5905 247.703 64.5905C246.578 64.5905 245.664 65.507 245.664 66.6344C245.664 67.7618 246.578 68.6784 247.703 68.6784Z" fill="#53C0DD"></path>
<path d="M237.985 25.4558C238.312 24.7704 238.822 24.1661 239.453 23.7403C240.101 23.2983 240.861 23.0387 241.638 23.0022C241.715 22.986 241.796 22.986 241.881 22.986H241.857C239.474 22.986 237.548 24.9245 237.548 27.3131V32.2324L237.58 32.2648V27.3253C237.564 26.6764 237.702 26.0357 237.985 25.4558Z" fill="url(#paint0_linear_3406_17224)"></path>
<path d="M239.789 34.763C239.814 34.7954 239.838 34.8238 239.862 34.8562C239.66 34.5723 239.559 34.3939 239.559 34.3939C244.474 37.6382 247.833 35.3388 247.833 35.3388C245.619 34.0492 240.906 27.885 240.906 27.885C245.009 31.3889 246.781 32.3094 246.781 32.3094C245.725 31.4335 242.755 27.1428 242.755 27.1428C245.13 29.5558 249.847 32.9177 249.847 32.9177C251.134 29.3409 248.767 26.1452 248.581 25.8978C248.569 25.8897 248.561 25.8816 248.549 25.8735L245.7 22.9739H241.881C241.796 22.9739 241.715 22.9739 241.638 22.9901C240.862 23.0266 240.101 23.2861 239.454 23.7282C238.822 24.154 238.313 24.7583 237.985 25.4436C237.702 26.0235 237.568 26.6643 237.58 27.3132V32.2527L239.559 34.3939C239.628 34.5156 239.704 34.6372 239.785 34.7508L239.789 34.763Z" fill="url(#paint1_linear_3406_17224)"></path>
<path d="M239.789 34.763C239.814 34.7954 239.838 34.8238 239.862 34.8562C239.66 34.5723 239.559 34.3939 239.559 34.3939C244.474 37.6382 247.833 35.3388 247.833 35.3388C245.619 34.0492 240.906 27.885 240.906 27.885C245.009 31.3889 246.781 32.3094 246.781 32.3094C245.725 31.4335 242.755 27.1428 242.755 27.1428C245.13 29.5558 249.847 32.9177 249.847 32.9177C251.134 29.3409 248.767 26.1452 248.581 25.8978C248.569 25.8897 248.561 25.8816 248.549 25.8735L245.7 22.9739H241.881C241.796 22.9739 241.715 22.9739 241.638 22.9901C240.862 23.0266 240.101 23.2861 239.454 23.7282C238.822 24.154 238.313 24.7583 237.985 25.4436C237.702 26.0235 237.568 26.6643 237.58 27.3132V32.2527L239.559 34.3939C239.628 34.5156 239.704 34.6372 239.785 34.7508L239.789 34.763Z" fill="url(#paint2_linear_3406_17224)"></path>
<path d="M287.623 43.9525C287.32 43.9525 287.037 43.8714 286.778 43.7295L284.095 42.1317C283.691 41.9086 283.893 41.8275 284.015 41.787C284.561 41.6045 284.662 41.5639 285.224 41.2395C285.285 41.1989 285.366 41.2192 285.427 41.2597L287.486 42.4926C287.567 42.5331 287.668 42.5331 287.729 42.4926L295.776 37.8208C295.857 37.7802 295.897 37.6991 295.897 37.5977V28.2784C295.897 28.177 295.857 28.0959 295.776 28.0553L287.729 23.4038C287.648 23.3632 287.547 23.3632 287.486 23.4038L279.439 28.0553C279.358 28.0959 279.317 28.1973 279.317 28.2784V37.5977C279.317 37.6788 279.358 37.7802 279.439 37.8208L281.636 39.0942C282.825 39.7025 283.574 38.9928 283.574 38.2871V29.0895C283.574 28.9678 283.675 28.8461 283.816 28.8461H284.844C284.965 28.8461 285.087 28.9475 285.087 29.0895V38.2871C285.087 39.885 284.221 40.8137 282.708 40.8137C282.243 40.8137 281.882 40.8137 280.851 40.3067L278.735 39.0942C278.209 38.79 277.889 38.2263 277.889 37.618V28.2987C277.889 27.6903 278.213 27.1266 278.735 26.8225L286.782 22.1507C287.288 21.8668 287.971 21.8668 288.477 22.1507L296.524 26.8225C297.05 27.1266 297.37 27.6903 297.37 28.2987V37.618C297.37 38.2263 297.046 38.79 296.524 39.0942L288.477 43.766C288.214 43.8877 287.911 43.9485 287.632 43.9485L287.623 43.9525ZM290.104 37.545C286.576 37.545 285.847 35.9269 285.847 34.5521C285.847 34.4304 285.948 34.3088 286.09 34.3088H287.138C287.259 34.3088 287.36 34.3899 287.36 34.5115C287.522 35.5822 287.988 36.1094 290.124 36.1094C291.819 36.1094 292.543 35.7241 292.543 34.8157C292.543 34.2885 292.341 33.9073 289.699 33.6437C287.502 33.4206 286.131 32.938 286.131 31.178C286.131 29.5396 287.502 28.5704 289.8 28.5704C292.381 28.5704 293.652 29.4585 293.814 31.401C293.814 31.4619 293.793 31.5227 293.753 31.5835C293.712 31.6241 293.652 31.6646 293.591 31.6646H292.543C292.442 31.6646 292.341 31.5835 292.321 31.4822C292.078 30.371 291.455 30.006 289.8 30.006C287.943 30.006 287.721 30.6548 287.721 31.1374C287.721 31.7255 287.984 31.9039 290.484 32.2283C292.964 32.5528 294.133 33.0151 294.133 34.7549C294.113 36.5352 292.661 37.545 290.1 37.545H290.104Z" fill="#539D43"></path>
<path d="M288.141 55.5632C287.32 55.5632 286.535 55.6362 285.843 55.7579C283.808 56.1188 283.44 56.8731 283.44 58.2641V60.1012H288.246V60.7136H281.636C280.24 60.7136 279.014 61.5571 278.634 63.1549C278.193 64.988 278.172 66.1357 278.634 68.0498C278.973 69.4773 279.791 70.4912 281.186 70.4912H282.837V68.2891C282.837 66.6994 284.209 65.2962 285.839 65.2962H290.642C291.977 65.2962 293.045 64.1931 293.045 62.8467V58.2601C293.045 56.9542 291.944 55.9728 290.642 55.7538C289.816 55.6159 288.959 55.5551 288.137 55.5591L288.141 55.5632ZM285.544 57.0394C286.041 57.0394 286.446 57.453 286.446 57.96C286.446 58.4669 286.041 58.8765 285.544 58.8765C285.046 58.8765 284.642 58.4669 284.642 57.96C284.642 57.453 285.046 57.0394 285.544 57.0394Z" fill="url(#paint3_linear_3406_17224)"></path>
<path d="M293.648 60.7136V62.8548C293.648 64.5135 292.244 65.9085 290.646 65.9085H285.843C284.528 65.9085 283.44 67.0359 283.44 68.358V72.9447C283.44 74.2505 284.573 75.017 285.843 75.3941C287.364 75.8443 288.825 75.9254 290.646 75.3941C291.855 75.0413 293.049 74.3357 293.049 72.9447V71.1076H288.246V70.4952H295.452C296.848 70.4952 297.37 69.5179 297.855 68.0539C298.357 66.5452 298.337 65.0934 297.855 63.159C297.511 61.7639 296.852 60.7176 295.452 60.7176H293.648V60.7136ZM290.949 72.3323C291.447 72.3323 291.851 72.7419 291.851 73.2488C291.851 73.7558 291.447 74.1694 290.949 74.1694C290.451 74.1694 290.047 73.7558 290.047 73.2488C290.047 72.7419 290.451 72.3323 290.949 72.3323Z" fill="url(#paint4_linear_3406_17224)"></path>
<path d="M248.338 90.7925L238.187 94.3735L239.789 107.704L248.346 112.416L256.948 107.639L258.55 94.3086L248.334 90.7925H248.338Z" fill="#B2B2B2"></path>
<path d="M257.543 95.0832L248.318 91.928V111.293L256.05 107.002L257.543 95.0791V95.0832Z" fill="#A5120D"></path>
<path d="M239.328 95.14L240.704 107.063L248.318 111.297V91.9321L239.332 95.144L239.328 95.14Z" fill="#DC1B16"></path>
<path d="M250.855 102.237L248.314 103.429H245.636L244.377 106.584L242.039 106.629L248.314 92.6337L250.855 102.241V102.237ZM250.608 101.637L248.33 97.1189L246.461 101.56H248.314L250.608 101.637Z" fill="#F1F1F1"></path>
<path d="M248.314 92.6297L248.33 97.115L250.45 101.56H248.318V103.421H251.259L252.639 106.621L254.88 106.661L248.314 92.6256V92.6297Z" fill="#B2B2B2"></path>
<path d="M211.436 70.7142C210.987 70.7142 210.619 70.3451 210.619 69.895C210.619 69.4448 210.983 69.0758 211.436 69.0758C211.889 69.0758 212.253 69.4408 212.253 69.895C212.253 70.3492 211.889 70.7142 211.436 70.7142ZM202.418 70.7142C201.969 70.7142 201.601 70.3451 201.601 69.895C201.601 69.4448 201.965 69.0758 202.418 69.0758C202.871 69.0758 203.235 69.4408 203.235 69.895C203.235 70.3492 202.871 70.7142 202.418 70.7142ZM211.731 65.7869L213.362 62.9562C213.455 62.794 213.398 62.5871 213.236 62.4898C213.075 62.3965 212.868 62.4533 212.771 62.6155L211.12 65.4827C209.858 64.9068 208.438 64.5824 206.925 64.5824C205.412 64.5824 203.992 64.9028 202.729 65.4827L201.079 62.6155C200.986 62.4533 200.779 62.3965 200.613 62.4898C200.452 62.5831 200.395 62.7899 200.488 62.9562L202.118 65.7869C199.319 67.3117 197.401 70.1545 197.122 73.5124H216.72C216.441 70.1545 214.523 67.3117 211.723 65.7869" fill="#3DDA84"></path>
<path d="M204.194 37.6829C204.194 37.6829 203.385 38.1533 204.769 38.3155C206.448 38.5061 207.305 38.4818 209.15 38.129C209.15 38.129 209.636 38.4331 210.315 38.7008C206.172 40.4811 200.937 38.5994 204.19 37.6869M203.684 35.3632C203.684 35.3632 202.778 36.0364 204.162 36.1783C205.954 36.3649 207.37 36.377 209.818 35.9066C209.818 35.9066 210.158 36.2513 210.688 36.4379C205.679 37.9059 200.096 36.5555 203.68 35.3591" fill="#5381A0"></path>
<path d="M207.957 31.4213C208.976 32.6015 207.69 33.6599 207.69 33.6599C207.69 33.6599 210.283 32.3176 209.094 30.6386C207.981 29.0732 207.127 28.2946 211.744 25.6099C211.744 25.6099 204.497 27.4227 207.957 31.4213Z" fill="#E66F00"></path>
<path d="M213.439 39.4024C213.439 39.4024 214.037 39.8971 212.779 40.2783C210.388 41.0043 202.822 41.2233 200.723 40.3067C199.966 39.9782 201.382 39.52 201.831 39.4227C202.296 39.3213 202.559 39.3415 202.559 39.3415C201.718 38.7495 197.13 40.5054 200.229 41.0083C208.677 42.3831 215.632 40.3878 213.439 39.3983M204.582 32.9502C204.582 32.9502 200.735 33.8667 203.219 34.1993C204.267 34.3412 206.358 34.3088 208.309 34.1466C209.903 34.0127 211.501 33.7248 211.501 33.7248C211.501 33.7248 210.938 33.9641 210.534 34.2439C206.626 35.274 199.08 34.7954 201.253 33.741C203.089 32.8488 204.586 32.9502 204.586 32.9502M211.489 36.8191C215.462 34.7508 213.625 32.7637 212.342 33.0313C212.027 33.0962 211.889 33.153 211.889 33.153C211.889 33.153 212.006 32.9705 212.229 32.8894C214.766 31.9972 216.716 35.5254 211.412 36.9245C211.412 36.9245 211.472 36.8677 211.493 36.8191" fill="#5381A0"></path>
<path d="M209.089 21.2747C209.089 21.2747 211.29 23.4808 207.002 26.8712C203.567 29.5923 206.217 31.1415 207.002 32.9137C204.995 31.1009 203.522 29.5031 204.509 28.0148C205.958 25.833 209.975 24.7745 209.089 21.2706" fill="#E66F00"></path>
<path d="M204.975 42.4277C208.786 42.671 214.64 42.2939 214.782 40.4852C214.782 40.4852 214.515 41.1705 211.63 41.714C208.377 42.3263 204.364 42.2574 201.981 41.864C201.981 41.864 202.466 42.2695 204.975 42.4277Z" fill="#5381A0"></path>
<path d="M213.592 105.802L202.762 112.246L216.785 111.293L217.865 97.119L213.592 105.798V105.802Z" fill="url(#paint5_linear_3406_17224)"></path>
<path d="M216.805 111.285L215.599 102.947L212.318 107.29L216.805 111.285Z" fill="url(#paint6_linear_3406_17224)"></path>
<path d="M216.821 111.285L207.993 110.591L202.806 112.229L216.821 111.285Z" fill="url(#paint7_linear_3406_17224)"></path>
<path d="M202.822 112.233L205.027 104.991L200.172 106.029L202.818 112.229L202.822 112.233Z" fill="url(#paint8_linear_3406_17224)"></path>
<path d="M212.318 107.318L210.287 99.3495L204.477 104.808L212.314 107.318H212.318Z" fill="url(#paint9_linear_3406_17224)"></path>
<path d="M217.404 99.459L211.913 94.9656L210.384 99.9213L217.404 99.463V99.459Z" fill="url(#paint10_linear_3406_17224)"></path>
<path d="M214.835 93.3637L211.606 95.1521L209.567 93.3394L214.835 93.3637Z" fill="url(#paint11_linear_3406_17224)"></path>
<path d="M198.894 108.458L200.245 105.984L199.153 103.04L198.894 108.458Z" fill="url(#paint12_linear_3406_17224)"></path>
<path d="M199.08 102.947L200.181 106.077L204.963 105.003L210.425 99.9132L211.966 95.0061L209.539 93.2866L205.412 94.8358C204.113 96.0484 201.589 98.4451 201.499 98.4897C201.41 98.5343 199.833 101.519 199.08 102.947Z" fill="white"></path>
<path d="M202.948 97.3258C205.764 94.5276 209.397 92.873 210.793 94.2802C212.185 95.6915 210.708 99.1143 207.892 101.917C205.076 104.715 201.487 106.463 200.096 105.051C198.7 103.644 200.132 100.124 202.952 97.3258H202.948Z" fill="url(#paint13_linear_3406_17224)"></path>
<path d="M202.823 112.229L205.011 104.962L212.278 107.302C209.648 109.772 206.727 111.86 202.823 112.229Z" fill="url(#paint14_linear_3406_17224)"></path>
<path d="M210.437 99.901L212.302 107.31C214.499 104.999 216.469 102.509 217.432 99.4346L210.437 99.9051V99.901Z" fill="url(#paint15_linear_3406_17224)"></path>
<path d="M217.416 99.4671C218.164 97.2082 218.334 93.9679 214.814 93.3677L211.926 94.9656L217.416 99.4671Z" fill="url(#paint16_linear_3406_17224)"></path>
<path d="M198.894 108.425C198.999 112.152 201.682 112.209 202.822 112.242L200.181 106.061L198.89 108.425H198.894Z" fill="#9D1209"></path>
<path d="M210.449 99.9131C212.136 100.951 215.534 103.04 215.603 103.076C215.708 103.137 217.068 100.781 217.375 99.4468L210.445 99.9091L210.449 99.9131Z" fill="url(#paint17_radial_3406_17224)"></path>
<path d="M205.007 104.962L207.932 110.619C209.664 109.679 211.015 108.535 212.257 107.306L205.007 104.962Z" fill="url(#paint18_radial_3406_17224)"></path>
<path d="M200.172 106.069L199.76 111.017C200.541 112.087 201.617 112.181 202.746 112.096C201.928 110.06 200.298 105.984 200.172 106.069Z" fill="url(#paint19_linear_3406_17224)"></path>
<path d="M211.905 94.9778L217.719 95.797C217.408 94.4789 216.457 93.6273 214.834 93.3637L211.909 94.9778H211.905Z" fill="url(#paint20_linear_3406_17224)"></path>
<path d="M338.832 64.4972L328.956 54.598C328.389 54.0262 327.467 54.0262 326.896 54.598L324.845 56.6541L327.447 59.2617C328.049 59.0589 328.745 59.1928 329.227 59.6754C329.712 60.162 329.846 60.8636 329.639 61.4719L332.148 63.9863C332.755 63.7754 333.455 63.9133 333.94 64.3999C334.616 65.0772 334.616 66.1762 333.94 66.8575C333.264 67.5347 332.168 67.5347 331.488 66.8575C330.979 66.3465 330.853 65.5963 331.112 64.9677L328.774 62.6236V68.7919C328.944 68.8771 329.097 68.9866 329.231 69.1204C329.906 69.7977 329.906 70.8967 329.231 71.578C328.555 72.2552 327.455 72.2552 326.779 71.578C326.103 70.8967 326.103 69.7977 326.779 69.1204C326.941 68.9582 327.135 68.8284 327.345 68.7433V62.5182C327.131 62.433 326.941 62.3033 326.779 62.141C326.265 61.626 326.144 60.8717 326.407 60.2431L323.842 57.672L317.069 64.4607C316.498 65.0326 316.498 65.9572 317.069 66.5249L326.945 76.4242C327.515 76.996 328.434 76.996 329.004 76.4242L338.832 66.5736C339.402 66.0018 339.402 65.0772 338.832 64.5094" fill="#DD4C36"></path>
<path d="M336.449 39.086C335.352 39.0576 334.498 39.1671 333.786 39.4713C333.58 39.5524 333.252 39.5524 333.224 39.816C333.333 39.9255 333.349 40.1039 333.443 40.258C333.608 40.5338 333.896 40.9028 334.155 41.0975C334.442 41.3165 334.733 41.5395 335.033 41.7302C335.567 42.0586 336.173 42.2533 336.695 42.5818C336.999 42.7724 337.298 43.0238 337.602 43.2266C337.751 43.3361 337.848 43.5145 338.043 43.5835V43.5429C337.946 43.4172 337.917 43.2388 337.824 43.1009C337.687 42.963 337.549 42.8413 337.411 42.7035C337.015 42.1681 336.517 41.6977 335.983 41.3124C335.542 41.0083 334.583 40.5987 334.405 40.0877C334.405 40.0877 334.393 40.0755 334.377 40.0593C334.681 40.0309 335.037 39.9214 335.324 39.8403C335.789 39.7146 336.218 39.743 336.695 39.6213C336.914 39.5646 337.136 39.4956 337.355 39.4267V39.301C337.108 39.0536 336.93 38.7251 336.667 38.4899C335.967 37.8856 335.198 37.2935 334.401 36.7988C333.977 36.523 333.426 36.3446 332.973 36.1094C332.807 36.0282 332.532 35.9836 332.439 35.8498C332.192 35.5457 332.055 35.1482 331.877 34.7913C331.48 34.033 331.096 33.1935 330.752 32.3987C330.505 31.8633 330.356 31.324 330.052 30.8292C328.64 28.4892 327.103 27.0739 324.74 25.6829C324.23 25.395 323.627 25.2692 322.984 25.1192C322.64 25.107 322.296 25.0786 321.956 25.0624C321.738 24.9651 321.515 24.7055 321.325 24.5798C320.544 24.0851 318.525 23.0104 317.947 24.4298C317.575 25.326 318.497 26.206 318.813 26.6602C319.047 26.9766 319.347 27.3334 319.513 27.6903C319.61 27.9255 319.638 28.1729 319.731 28.4203C319.95 29.0246 320.156 29.7018 320.443 30.2655C320.593 30.5534 320.759 30.8576 320.953 31.1171C321.062 31.2672 321.256 31.3361 321.297 31.5835C321.107 31.8593 321.091 32.2729 320.981 32.6136C320.488 34.1668 320.678 36.0931 321.378 37.2368C321.596 37.5815 322.118 38.3358 322.818 38.0478C323.437 37.8005 323.3 37.0178 323.478 36.3283C323.518 36.1621 323.49 36.0526 323.575 35.9431V35.9715C323.769 36.3567 323.959 36.7298 324.137 37.1151C324.562 37.7883 325.302 38.4899 325.921 38.9603C326.249 39.2077 326.512 39.6335 326.925 39.7876V39.7471H326.896C326.815 39.6213 326.69 39.5686 326.581 39.4713C326.334 39.2239 326.059 38.9198 325.869 38.644C325.294 37.8735 324.784 37.0218 324.331 36.1418C324.113 35.716 323.919 35.2456 323.741 34.8197C323.66 34.6535 323.66 34.4061 323.522 34.325C323.316 34.6291 323.012 34.8887 322.863 35.2618C322.604 35.8539 322.575 36.5838 322.478 37.3381C322.422 37.3503 322.45 37.3381 322.422 37.3665C321.981 37.257 321.831 36.8028 321.665 36.4176C321.252 35.4402 321.184 33.8708 321.54 32.7434C321.637 32.4554 322.049 31.547 321.884 31.2712C321.803 31.0117 321.528 30.8576 321.374 30.6508C321.196 30.3912 321.002 30.0587 320.88 29.7707C320.552 29.0002 320.387 28.1486 320.031 27.3781C319.865 27.0212 319.577 26.6481 319.343 26.3196C319.084 25.9465 318.793 25.6869 318.586 25.2449C318.517 25.0949 318.42 24.8475 318.53 24.6812C318.558 24.5717 318.61 24.5312 318.724 24.5028C318.902 24.3527 319.412 24.5433 319.59 24.6285C320.099 24.8353 320.524 25.0259 320.949 25.3179C321.139 25.4558 321.345 25.7153 321.592 25.7843H321.879C322.32 25.8816 322.814 25.8127 323.223 25.9343C323.951 26.1695 324.61 26.5102 325.201 26.8833C326.997 28.0269 328.482 29.6491 329.482 31.5876C329.648 31.9039 329.716 32.1918 329.866 32.5244C330.153 33.1976 330.509 33.887 330.801 34.548C331.088 35.1928 331.363 35.8539 331.776 36.3932C331.982 36.6812 332.803 36.8353 333.175 36.9853C333.451 37.111 333.875 37.2205 334.122 37.3706C334.587 37.6585 335.057 37.9911 335.494 38.3074C335.712 38.4737 336.4 38.8184 336.44 39.0901L336.449 39.086Z" fill="#00546B"></path>
<path d="M322.446 27.1307C322.211 27.1307 322.049 27.1591 321.884 27.1996V27.228H321.912C322.021 27.447 322.215 27.6011 322.353 27.7917C322.462 28.0107 322.559 28.2337 322.668 28.4527C322.681 28.4406 322.697 28.4244 322.697 28.4244C322.891 28.2865 322.984 28.0675 322.984 27.7349C322.903 27.6376 322.887 27.5443 322.818 27.447C322.737 27.3091 322.559 27.2402 322.446 27.1307Z" fill="#00546B"></path>
<path d="M290.864 92.4755L288.222 97.0622L285.58 92.4755H276.784L288.222 112.331L299.66 92.4755H290.864Z" fill="#4DB986"></path>
<path d="M290.864 92.4755L288.222 97.0622L285.58 92.4755H281.36L288.222 104.39L295.084 92.4755H290.864Z" fill="#435466"></path>
<path d="M321.43 102.014C322.293 102.014 322.992 101.313 322.992 100.448C322.992 99.5839 322.293 98.8831 321.43 98.8831C320.568 98.8831 319.869 99.5839 319.869 100.448C319.869 101.313 320.568 102.014 321.43 102.014Z" fill="#00546B"></path>
<path d="M326.831 102.014C327.694 102.014 328.393 101.313 328.393 100.448C328.393 99.5839 327.694 98.8831 326.831 98.8831C325.969 98.8831 325.27 99.5839 325.27 100.448C325.27 101.313 325.969 102.014 326.831 102.014Z" fill="#00546B"></path>
<path d="M332.229 102.014C333.091 102.014 333.79 101.313 333.79 100.448C333.79 99.5839 333.091 98.8831 332.229 98.8831C331.366 98.8831 330.667 99.5839 330.667 100.448C330.667 101.313 331.366 102.014 332.229 102.014Z" fill="#00546B"></path>
<path d="M55.683 172.225C55.3027 172.225 54.9993 171.917 54.9993 171.54V166.758C54.9993 166.377 55.3068 166.073 55.683 166.073C56.0593 166.073 56.3668 166.381 56.3668 166.758V171.54C56.3668 171.921 56.0593 172.225 55.683 172.225Z" fill="#1E1E1E"></path>
<path d="M55.683 191.995C55.3027 191.995 54.9993 191.687 54.9993 191.31V187.396C54.9993 187.015 55.3068 186.711 55.683 186.711C56.0593 186.711 56.3668 187.019 56.3668 187.396V191.31C56.3668 191.691 56.0593 191.995 55.683 191.995Z" fill="#1E1E1E"></path>
<path d="M55.683 209.766C55.3027 209.766 54.9993 209.458 54.9993 209.081V204.23C54.9993 203.849 55.3068 203.545 55.683 203.545C56.0593 203.545 56.3668 203.853 56.3668 204.23V209.081C56.3668 209.462 56.0593 209.766 55.683 209.766Z" fill="#1E1E1E"></path>
<path d="M53.1625 181.78H38.6581C38.2778 181.78 37.9744 181.472 37.9744 181.094C37.9744 180.717 38.2819 180.409 38.6581 180.409H53.1625C53.5428 180.409 53.8462 180.717 53.8462 181.094C53.8462 181.472 53.5387 181.78 53.1625 181.78Z" fill="#1E1E1E"></path>
<path d="M82.3775 196.505C81.9972 196.505 81.6938 196.197 81.6938 195.82V186.095L77.3931 181.784H65.5387C65.1584 181.784 64.855 181.476 64.855 181.098C64.855 180.721 65.1625 180.413 65.5387 180.413H77.6763C77.8583 180.413 78.0323 180.486 78.1618 180.616L82.8671 185.332C82.9966 185.462 83.0694 185.636 83.0694 185.819V195.828C83.0694 196.209 82.7619 196.513 82.3856 196.513L82.3775 196.505Z" fill="#1E1E1E"></path>
<path d="M44.832 199.843H35.3728C35.1908 199.843 35.0168 199.77 34.8873 199.64L30.182 194.923C30.0526 194.794 29.9797 194.619 29.9797 194.437V183.629C29.9797 183.248 30.2872 182.944 30.6635 182.944C31.0397 182.944 31.3472 183.252 31.3472 183.629V194.153L35.648 198.464H44.8239C45.2043 198.464 45.5077 198.772 45.5077 199.149C45.5077 199.526 45.2002 199.834 44.8239 199.834L44.832 199.843Z" fill="#1E1E1E"></path>
<path d="M66.4489 158.498H44.9169C42.6556 158.498 40.8225 160.335 40.8225 162.602V163.668C40.8225 165.935 42.6556 167.772 44.9169 167.772H66.4489C68.7102 167.772 70.5433 165.935 70.5433 163.668V162.602C70.5433 160.335 68.7102 158.498 66.4489 158.498Z" fill="#444444"></path>
<path d="M55.6861 174.533L49.1433 181.091L55.6861 187.649L62.2288 181.091L55.6861 174.533Z" fill="#F4F4F4"></path>
<path d="M55.683 188.337C55.509 188.337 55.331 188.268 55.1975 188.135L48.6553 181.577C48.3883 181.309 48.3883 180.875 48.6553 180.604L55.1975 174.046C55.4645 173.778 55.8974 173.778 56.1685 174.046L62.7106 180.604C62.9776 180.871 62.9776 181.305 62.7106 181.577L56.1685 188.135C56.035 188.268 55.861 188.337 55.683 188.337ZM50.1119 181.09L55.683 186.675L61.2541 181.09L55.683 175.506L50.1119 181.09Z" fill="#1E1E1E"></path>
<path d="M26.0432 176.455V185.73H35.2961V176.455H26.0432Z" fill="#3EAAFF"></path>
<path d="M39.7666 216.466V217.532C39.7666 219.799 41.5997 221.636 43.861 221.636H67.509C69.7702 221.636 71.6034 219.799 71.6034 217.532V216.466C71.6034 214.199 69.7702 212.362 67.509 212.362H43.861C41.5997 212.362 39.7666 214.199 39.7666 216.466Z" fill="#444444"></path>
<path d="M82.3773 203.683C84.9313 203.683 87.0017 201.608 87.0017 199.048C87.0017 196.488 84.9313 194.412 82.3773 194.412C79.8233 194.412 77.7529 196.488 77.7529 199.048C77.7529 201.608 79.8233 203.683 82.3773 203.683Z" fill="#F4F4F4"></path>
<path d="M82.3774 204.368C79.4482 204.368 77.0652 201.98 77.0652 199.044C77.0652 196.108 79.4482 193.719 82.3774 193.719C85.3066 193.719 87.6896 196.108 87.6896 199.044C87.6896 201.98 85.3066 204.368 82.3774 204.368ZM82.3774 195.094C80.2048 195.094 78.4367 196.866 78.4367 199.044C78.4367 201.221 80.2048 202.994 82.3774 202.994C84.55 202.994 86.318 201.221 86.318 199.044C86.318 196.866 84.55 195.094 82.3774 195.094Z" fill="#1E1E1E"></path>
<path d="M74.3342 199.733H56.0268C55.6465 199.733 55.343 199.425 55.343 199.048C55.343 198.671 55.6505 198.362 56.0268 198.362H74.3342C74.7145 198.362 75.018 198.671 75.018 199.048C75.018 199.425 74.7105 199.733 74.3342 199.733Z" fill="#1E1E1E"></path>
<path d="M48.1335 194.408V203.683H63.2326V194.408H48.1335Z" fill="#F4F4F4"></path>
<path d="M63.2326 204.368H48.1335C47.7531 204.368 47.4497 204.06 47.4497 203.683V194.408C47.4497 194.027 47.7572 193.723 48.1335 193.723H63.2326C63.6129 193.723 63.9163 194.031 63.9163 194.408V203.683C63.9163 204.064 63.6088 204.368 63.2326 204.368ZM48.8172 202.994H62.5448V195.094H48.8172V202.994Z" fill="#1E1E1E"></path>
<path d="M57.4713 191.995H53.8583C53.478 191.995 53.1746 191.687 53.1746 191.31C53.1746 190.933 53.482 190.625 53.8583 190.625H57.4713C57.8516 190.625 58.155 190.933 58.155 191.31C58.155 191.687 57.8475 191.995 57.4713 191.995Z" fill="#1E1E1E"></path>
<path d="M65.5387 183.378C65.1584 183.378 64.855 183.069 64.855 182.692V179.071C64.855 178.69 65.1625 178.385 65.5387 178.385C65.915 178.385 66.2225 178.694 66.2225 179.071V182.692C66.2225 183.073 65.915 183.378 65.5387 183.378Z" fill="#1E1E1E"></path>
<path d="M74.3344 201.546C73.9541 201.546 73.6506 201.238 73.6506 200.86V197.239C73.6506 196.858 73.9581 196.554 74.3344 196.554C74.7106 196.554 75.0181 196.862 75.0181 197.239V200.86C75.0181 201.242 74.7106 201.546 74.3344 201.546Z" fill="#1E1E1E"></path>
<path d="M44.8319 201.655C44.4516 201.655 44.1482 201.347 44.1482 200.97V197.348C44.1482 196.967 44.4557 196.663 44.8319 196.663C45.2082 196.663 45.5157 196.971 45.5157 197.348V200.97C45.5157 201.351 45.2082 201.655 44.8319 201.655Z" fill="#1E1E1E"></path>
<path d="M38.6581 183.588C38.2778 183.588 37.9744 183.28 37.9744 182.903V179.282C37.9744 178.9 38.2819 178.596 38.6581 178.596C39.0344 178.596 39.3419 178.904 39.3419 179.282V182.903C39.3419 183.284 39.0344 183.588 38.6581 183.588Z" fill="#1E1E1E"></path>
<path d="M57.4713 172.708H53.8583C53.478 172.708 53.1746 172.4 53.1746 172.022C53.1746 171.645 53.482 171.337 53.8583 171.337H57.4713C57.8516 171.337 58.155 171.645 58.155 172.022C58.155 172.4 57.8475 172.708 57.4713 172.708Z" fill="#1E1E1E"></path>
<path d="M57.4713 210.103H53.8583C53.478 210.103 53.1746 209.795 53.1746 209.417C53.1746 209.04 53.482 208.732 53.8583 208.732H57.4713C57.8516 208.732 58.155 209.04 58.155 209.417C58.155 209.795 57.8475 210.103 57.4713 210.103Z" fill="#1E1E1E"></path>
<path d="M120.639 46.1506H38.9858V54.1438H120.639V46.1506Z" fill="url(#paint21_linear_3406_17224)"></path>
<path d="M110.496 37.1354H38.9858V45.1286H110.496V37.1354Z" fill="url(#paint22_linear_3406_17224)"></path>
<path d="M103.869 28.1161H38.9858V36.1094H103.869V28.1161Z" fill="url(#paint23_linear_3406_17224)"></path>
<path d="M129.973 19.0969H38.9939V27.0901H129.973V19.0969Z" fill="url(#paint24_linear_3406_17224)"></path>
<path d="M188.941 274.799C242.93 274.799 286.697 230.928 286.697 176.812C286.697 122.695 242.93 78.825 188.941 78.825C134.952 78.825 91.1853 122.695 91.1853 176.812C91.1853 230.928 134.952 274.799 188.941 274.799Z" fill="#1E1E1E"></path>
<path d="M188.941 267.925C239.143 267.925 279.839 227.132 279.839 176.812C279.839 126.492 239.143 85.699 188.941 85.699C138.739 85.699 98.043 126.492 98.043 176.812C98.043 227.132 138.739 267.925 188.941 267.925Z" fill="#F4F4F4"></path>
<path d="M188.941 262.734C236.283 262.734 274.66 224.265 274.66 176.812C274.66 129.358 236.283 90.8899 188.941 90.8899C141.6 90.8899 103.222 129.358 103.222 176.812C103.222 224.265 141.6 262.734 188.941 262.734Z" fill="url(#paint25_linear_3406_17224)"></path>
<path d="M111.722 175.571C111.483 175.571 111.245 175.559 111.002 175.534C107.235 175.141 104.5 171.763 104.893 167.987C106.891 148.752 115.521 130.617 129.184 116.922C138.845 107.237 150.805 99.9821 163.772 95.9389C167.389 94.8115 171.228 96.8351 172.353 100.461C173.478 104.086 171.459 107.935 167.842 109.062C156.991 112.444 146.974 118.523 138.878 126.638C127.428 138.115 120.202 153.307 118.527 169.411C118.159 172.943 115.185 175.571 111.718 175.571H111.722Z" fill="#F4F4F4"></path>
<path d="M177.888 106.256C177.665 106.256 177.439 106.244 177.212 106.223C176.99 106.199 176.767 106.167 176.549 106.122C176.33 106.077 176.112 106.021 175.897 105.956C175.683 105.891 175.473 105.814 175.266 105.729C175.06 105.643 174.858 105.546 174.659 105.441C174.461 105.335 174.267 105.218 174.081 105.096C173.895 104.97 173.713 104.836 173.539 104.694C173.365 104.553 173.195 104.398 173.037 104.24C172.879 104.082 172.725 103.912 172.584 103.737C172.442 103.563 172.309 103.381 172.183 103.194C172.058 103.007 171.945 102.813 171.839 102.614C171.734 102.415 171.637 102.213 171.552 102.006C171.467 101.799 171.39 101.588 171.326 101.373C171.261 101.158 171.204 100.939 171.16 100.72C171.115 100.501 171.083 100.274 171.058 100.055C171.034 99.832 171.026 99.6049 171.026 99.3778C171.026 99.1507 171.038 98.9277 171.058 98.7006C171.083 98.4775 171.115 98.2545 171.16 98.0355C171.204 97.8165 171.261 97.5975 171.326 97.3826C171.39 97.1676 171.467 96.9568 171.552 96.7499C171.637 96.5431 171.734 96.3403 171.839 96.1416C171.945 95.9429 172.062 95.7482 172.183 95.5617C172.309 95.3751 172.442 95.1926 172.584 95.0183C172.725 94.8439 172.879 94.6736 173.037 94.5154C173.195 94.3572 173.365 94.2031 173.539 94.0612C173.713 93.9192 173.895 93.7854 174.081 93.6597C174.267 93.534 174.461 93.4204 174.659 93.315C174.858 93.2096 175.06 93.1122 175.266 93.0271C175.473 92.9419 175.683 92.8648 175.897 92.8C176.112 92.7351 176.33 92.6783 176.549 92.6337C176.767 92.5891 176.994 92.5566 177.212 92.5323C177.661 92.4877 178.114 92.4877 178.559 92.5323C178.782 92.5566 179.005 92.5891 179.223 92.6337C179.441 92.6783 179.66 92.7351 179.874 92.8C180.089 92.8648 180.299 92.9419 180.506 93.0271C180.712 93.1122 180.914 93.2096 181.112 93.315C181.311 93.4204 181.505 93.538 181.691 93.6597C181.877 93.7854 182.059 93.9192 182.233 94.0612C182.407 94.2031 182.577 94.3572 182.735 94.5154C182.893 94.6736 183.046 94.8439 183.188 95.0183C183.33 95.1926 183.463 95.3751 183.588 95.5617C183.71 95.7482 183.827 95.9429 183.932 96.1416C184.038 96.3403 184.135 96.5431 184.22 96.7499C184.305 96.9568 184.381 97.1676 184.446 97.3826C184.511 97.5975 184.568 97.8165 184.612 98.0355C184.657 98.2545 184.689 98.4816 184.713 98.7006C184.737 98.9236 184.746 99.1507 184.746 99.3778C184.746 99.6049 184.733 99.828 184.713 100.055C184.689 100.278 184.657 100.501 184.612 100.72C184.568 100.939 184.511 101.158 184.446 101.373C184.381 101.588 184.305 101.799 184.22 102.006C184.135 102.213 184.038 102.415 183.932 102.614C183.827 102.813 183.71 103.007 183.588 103.194C183.463 103.381 183.33 103.563 183.188 103.737C183.046 103.912 182.893 104.082 182.735 104.24C182.577 104.398 182.407 104.553 182.233 104.694C182.059 104.836 181.877 104.97 181.691 105.096C181.505 105.222 181.311 105.335 181.112 105.441C180.914 105.546 180.712 105.643 180.506 105.729C180.299 105.814 180.089 105.891 179.874 105.956C179.66 106.021 179.441 106.077 179.223 106.122C179.005 106.167 178.778 106.199 178.559 106.223C178.337 106.248 178.11 106.256 177.884 106.256H177.888Z" fill="#F4F4F4"></path>
<mask id="mask0_3406_17224" style="mask-type:luminance" maskUnits="userSpaceOnUse" x="103" y="90" width="172" height="173">
<path d="M188.941 262.734C236.283 262.734 274.66 224.265 274.66 176.812C274.66 129.358 236.283 90.8899 188.941 90.8899C141.6 90.8899 103.222 129.358 103.222 176.812C103.222 224.265 141.6 262.734 188.941 262.734Z" fill="white"></path>
</mask>
<g mask="url(#mask0_3406_17224)">
<path d="M143.571 170.554C143.571 170.554 144.582 155.221 145.129 144.608C145.675 133.995 152.083 118.236 168.522 117.084C168.522 117.084 178.017 104.63 197.037 108.458C216.056 112.286 236.439 151.101 231.965 163.133C231.965 163.133 241.003 177.339 245.041 184.452C249.079 191.565 242.856 200.974 242.856 200.974C242.856 200.974 253.226 215.306 248.86 221.105C244.495 226.904 191.818 248.678 191.818 248.678C191.818 248.678 153.139 256.691 144.19 237.327C135.241 217.962 129.953 202.361 134.974 191.31C139.994 180.259 143.579 170.554 143.579 170.554H143.571Z" fill="black"></path>
<path d="M249.556 237.57C252.574 234.545 255.321 231.345 257.797 228.011C258.865 226.572 258.906 224.617 257.894 223.137C254.5 218.153 250.296 215.703 244.098 213.777C236.023 211.259 213.681 206.445 213.681 206.445L164.852 213.777C164.852 213.777 143.579 221.693 135.006 226.706C133.21 227.756 130.997 229.415 128.622 231.373C126.728 232.939 126.562 235.798 128.294 237.538C128.306 237.55 128.314 237.558 128.326 237.57C161.802 271.125 216.077 271.125 249.552 237.57H249.556Z" fill="#2B6FDF"></path>
<path d="M162.91 166.15C162.91 166.15 160.442 160.168 156.53 161.507C152.617 162.849 157.566 174.297 161.882 176.67C166.199 179.042 166.309 175.847 166.309 175.847L162.914 166.15H162.91Z" fill="#D35E24"></path>
<path d="M173.041 179.638C173.041 179.638 175.226 201.85 175.007 210.383C174.789 218.915 173.041 220.667 176.209 223.838C179.373 227.01 187.343 234.67 194.439 229.09C201.536 223.51 206.666 211.364 207.431 209.616C208.195 207.864 202.191 198.172 201.208 190.491C200.225 182.81 200.662 166.617 200.662 166.617L173.045 179.638H173.041Z" fill="#FF8338"></path>
<path d="M196.442 179.318L173.085 180.141C173.288 182.238 174.069 190.564 174.574 198.399C195.249 200.686 196.442 179.318 196.442 179.318Z" fill="#D35E24"></path>
<path d="M159.41 157.382C159.41 157.382 162.704 168.729 165.277 176.775C167.85 184.821 176.804 190.495 183.698 190.495C190.592 190.495 199.238 187.401 202.22 168.936C205.205 150.472 205.1 137.989 205.1 137.989L164.553 123.134L158.071 151.502L159.41 157.382Z" fill="#FF8338"></path>
<path d="M170.836 139.847C170.836 139.847 178.948 156.097 203.85 159.905L204.902 154.414L170.836 139.847Z" fill="#D35E24"></path>
<path d="M170.836 139.847C170.836 139.847 165.487 157.678 161.555 162.521L159.35 152.966L170.836 139.847Z" fill="#D35E24"></path>
<path d="M202.029 165.023C202.029 165.023 203.692 158.765 207.746 159.58C211.8 160.396 208.402 172.396 204.433 175.319C200.464 178.243 199.938 175.084 199.938 175.084L202.029 165.023Z" fill="#FF8338"></path>
<path d="M175.003 210.383C175.003 210.383 178.604 221.653 187.011 222.747C195.415 223.842 206.326 205.885 204.546 201.274C204.546 201.274 208.729 201.071 211.78 202.762C214.831 204.454 217.659 205.123 216.894 208.294C216.129 211.465 205.023 237.955 191.053 239.16C177.083 240.364 163.254 221.174 162.162 217.565C161.069 213.955 163.003 211.465 166.823 209.604C170.642 207.742 174.898 205.192 174.898 205.192C174.898 205.192 175.153 207.426 175.007 210.387L175.003 210.383Z" fill="#444444"></path>
<path d="M179.389 166.462C179.089 166.357 178.968 165.996 179.138 165.724C179.474 165.181 179.988 164.496 181.262 164.447C182.205 164.41 183.062 164.755 183.649 165.075C184.017 165.278 183.997 165.809 183.613 165.98C182.933 166.276 181.966 166.649 181.262 166.73C180.558 166.811 179.862 166.629 179.389 166.458V166.462Z" fill="#D35E24"></path>
<path d="M180.938 173.446C179.146 173.446 177.588 173.069 176.354 172.606C175.881 172.428 175.642 171.901 175.816 171.426C175.994 170.952 176.52 170.712 176.994 170.887C179.332 171.763 183.022 172.278 187.307 169.751C187.743 169.496 188.302 169.642 188.557 170.076C188.812 170.514 188.666 171.073 188.233 171.329C185.563 172.902 183.083 173.442 180.938 173.442V173.446Z" fill="#1E1E1E"></path>
<path d="M170.836 139.847C170.836 139.847 167.664 150.987 160.709 158.311L163.153 169.938L162.712 169.743C161.899 169.386 161.263 168.717 160.944 167.89L158.075 160.387L151.153 147.057L159.018 122.214L187.193 116.394L217.383 133.391L219.378 157.119L205.679 159.187L203.81 167.071C203.664 167.687 203.288 168.227 202.758 168.575L202.215 168.936L203.943 156.965C203.943 156.965 181.998 155.764 170.828 139.847H170.836Z" fill="black"></path>
</g>
<path d="M268.364 233.931L246.908 255.439C245.54 256.81 245.54 259.034 246.908 260.405L249.591 263.095C250.96 264.467 253.178 264.467 254.546 263.095L276.003 241.588C277.371 240.216 277.371 237.993 276.003 236.621L273.319 233.931C271.951 232.56 269.733 232.56 268.364 233.931Z" fill="#8B8B8B"></path>
<path d="M256.981 260.656L273.571 244.027L312.776 283.325C316.83 287.388 316.83 293.984 312.776 298.047L310.874 299.954C306.82 304.017 300.24 304.017 296.186 299.954L256.981 260.656Z" fill="#C2C2C2"></path>
<path d="M273.568 244.026L275.195 245.657L266.856 259.725L265.966 261.659C264.453 264.952 265.145 268.841 267.702 271.404L256.976 260.653L273.564 244.026H273.568Z" fill="#1E1E1E"></path>
<path d="M38.6581 113.357C38.3708 113.357 38.0998 113.174 38.0067 112.882C37.8894 112.521 38.0876 112.132 38.4437 112.015L61.1611 104.581C61.2622 104.549 61.3674 104.54 61.4686 104.553L71.9069 106.033L81.6371 104.553C81.6695 104.549 81.7059 104.544 81.7383 104.544H85.1772L86.1887 103.871L88.0821 102.269C88.1752 102.192 88.2844 102.14 88.4018 102.119L91.6425 101.535C91.6425 101.535 91.6789 101.531 91.6951 101.527L95.4011 101.158L99.7827 93.6476C99.8556 93.5219 99.9648 93.4245 100.094 93.3677L105.872 90.7845C105.997 90.7277 106.139 90.7115 106.276 90.7358L112.39 91.8672L119.98 89.4056L123.471 86.7737C123.516 86.7412 123.564 86.7128 123.617 86.6885L129.366 84.2755C129.714 84.1295 130.118 84.2958 130.264 84.6446C130.41 84.9933 130.248 85.3989 129.896 85.5449L124.224 87.9254L120.708 90.5776C120.647 90.6222 120.578 90.6587 120.506 90.6831L112.64 93.2299C112.531 93.2664 112.418 93.2704 112.305 93.2501L106.232 92.1268L100.851 94.5317L96.4004 102.156C96.2912 102.346 96.097 102.472 95.8785 102.492L91.8529 102.894L88.8185 103.437L87.0343 104.946C87.0343 104.946 86.9938 104.978 86.9736 104.995L85.7558 105.806C85.6425 105.879 85.513 105.919 85.3755 105.919H81.7787L71.9999 107.408C71.9352 107.416 71.8664 107.42 71.8017 107.408L61.42 105.935L38.8523 113.32C38.7835 113.345 38.7107 113.353 38.6379 113.353L38.6581 113.357Z" fill="#2B6FDF"></path>
<path d="M38.6539 115.453C38.306 115.453 38.0066 115.19 37.9742 114.837C37.9378 114.46 38.2089 114.123 38.5892 114.083L48.4368 113.085L57.4914 109.533L69.0544 101.414C69.192 101.316 69.3578 101.276 69.5237 101.292L79.4239 102.407L83.9188 101.049L93.8474 96.681C93.9323 96.6445 94.0294 96.6242 94.1225 96.6242H110.698L129.058 87.7145C129.398 87.5482 129.811 87.6901 129.973 88.0348C130.139 88.3755 129.997 88.7891 129.653 88.9514L111.151 97.93C111.058 97.9746 110.957 97.999 110.852 97.999H94.26L84.4246 102.322C84.4003 102.334 84.372 102.342 84.3477 102.35L79.6748 103.758C79.5857 103.786 79.4927 103.794 79.3996 103.782L69.6168 102.683L58.1994 110.696C58.1549 110.729 58.1064 110.753 58.0578 110.774L48.8414 114.391C48.7847 114.415 48.724 114.427 48.6593 114.436L38.7187 115.445C38.6944 115.445 38.6701 115.445 38.6499 115.445L38.6539 115.453Z" fill="#3EAAFF"></path>
<path d="M38.658 110.932C38.4354 110.932 38.2129 110.822 38.0835 110.619C37.8771 110.303 37.9661 109.877 38.2858 109.67L53.8339 99.5197C53.9755 99.4265 54.1455 99.39 54.3114 99.4143L63.5682 100.826L81.6572 85.7881C81.7624 85.6989 81.8959 85.6462 82.0335 85.634L129.588 81.4326C129.965 81.4002 130.296 81.68 130.333 82.0571C130.365 82.4343 130.086 82.7668 129.71 82.8033L82.3693 86.9845L64.2075 102.079C64.0578 102.204 63.8595 102.257 63.6653 102.229L54.3639 100.813L39.0342 110.822C38.9169 110.899 38.7874 110.932 38.662 110.932H38.658Z" fill="#1E1E1E"></path>
<path d="M82.0902 88.631C80.8158 88.631 79.78 87.5928 79.78 86.3153C79.78 85.0379 80.8158 83.9997 82.0902 83.9997C83.3646 83.9997 84.4004 85.0379 84.4004 86.3153C84.4004 87.5928 83.3646 88.631 82.0902 88.631ZM82.0902 84.9162C81.3215 84.9162 80.6944 85.5448 80.6944 86.3153C80.6944 87.0859 81.3215 87.7144 82.0902 87.7144C82.8589 87.7144 83.486 87.0859 83.486 86.3153C83.486 85.5448 82.8589 84.9162 82.0902 84.9162Z" fill="#1E1E1E"></path>
<path d="M106.163 93.7489C104.876 93.7489 103.833 92.7026 103.833 91.413C103.833 90.1234 104.876 89.0771 106.163 89.0771C107.449 89.0771 108.493 90.1234 108.493 91.413C108.493 92.7026 107.449 93.7489 106.163 93.7489ZM106.163 89.9936C105.382 89.9936 104.747 90.6303 104.747 91.413C104.747 92.1957 105.382 92.8324 106.163 92.8324C106.944 92.8324 107.579 92.1957 107.579 91.413C107.579 90.6303 106.944 89.9936 106.163 89.9936Z" fill="#2B6FDF"></path>
<path d="M110.856 99.8077C109.485 99.8077 108.368 98.6884 108.368 97.3137C108.368 95.9389 109.485 94.8196 110.856 94.8196C112.228 94.8196 113.344 95.9389 113.344 97.3137C113.344 98.6884 112.228 99.8077 110.856 99.8077ZM110.856 95.7361C109.986 95.7361 109.282 96.4458 109.282 97.3137C109.282 98.1815 109.99 98.8912 110.856 98.8912C111.722 98.8912 112.43 98.1815 112.43 97.3137C112.43 96.4458 111.722 95.7361 110.856 95.7361Z" fill="#3EAAFF"></path>
<path d="M38.6581 106.207C38.4073 106.207 38.2009 106 38.2009 105.749V104.832C38.2009 104.581 38.4073 104.374 38.6581 104.374C38.909 104.374 39.1153 104.581 39.1153 104.832V105.749C39.1153 106 38.909 106.207 38.6581 106.207ZM38.6581 100.712C38.4073 100.712 38.2009 100.505 38.2009 100.254V99.3373C38.2009 99.0859 38.4073 98.879 38.6581 98.879C38.909 98.879 39.1153 99.0859 39.1153 99.3373V100.254C39.1153 100.505 38.909 100.712 38.6581 100.712ZM38.6581 95.217C38.4073 95.217 38.2009 95.0102 38.2009 94.7587V93.8422C38.2009 93.5908 38.4073 93.384 38.6581 93.384C38.909 93.384 39.1153 93.5908 39.1153 93.8422V94.7587C39.1153 95.0102 38.909 95.217 38.6581 95.217ZM38.6581 89.7219C38.4073 89.7219 38.2009 89.5151 38.2009 89.2637V88.3471C38.2009 88.0957 38.4073 87.8889 38.6581 87.8889C38.909 87.8889 39.1153 88.0957 39.1153 88.3471V89.2637C39.1153 89.5151 38.909 89.7219 38.6581 89.7219ZM38.6581 84.2268C38.4073 84.2268 38.2009 84.02 38.2009 83.7686V82.8521C38.2009 82.6006 38.4073 82.3938 38.6581 82.3938C38.909 82.3938 39.1153 82.6006 39.1153 82.8521V83.7686C39.1153 84.02 38.909 84.2268 38.6581 84.2268Z" fill="#1E1E1E"></path>
<path d="M317.024 203.703C319.864 203.703 322.167 201.396 322.167 198.549C322.167 195.702 319.864 193.394 317.024 193.394C314.184 193.394 311.882 195.702 311.882 198.549C311.882 201.396 314.184 203.703 317.024 203.703Z" fill="#2B6FDF"></path>
<path d="M317.793 204.283C322.397 204.283 326.338 207.114 327.98 211.133H307.602C309.248 207.114 313.189 204.283 317.789 204.283H317.793Z" fill="#2B6FDF"></path>
<path d="M317 180.251C320.064 180.251 322.547 177.762 322.547 174.691C322.547 171.62 320.064 169.131 317 169.131C313.937 169.131 311.453 171.62 311.453 174.691C311.453 177.762 313.937 180.251 317 180.251Z" fill="#444444"></path>
<path d="M314.73 180.875C309.762 180.875 305.51 183.929 303.734 188.268H325.723C323.947 183.933 319.695 180.875 314.726 180.875H314.73Z" fill="#444444"></path>
<path d="M330.432 188.958H300.627C299.012 188.958 297.697 187.64 297.697 186.022V183.126C297.697 182.972 297.572 182.846 297.418 182.846H293.838C293.259 182.846 292.766 182.469 292.616 181.909C292.466 181.35 292.697 180.774 293.198 180.478L297.564 177.915C297.649 177.866 297.701 177.773 297.701 177.672V167.651C297.701 166.033 299.016 164.715 300.631 164.715H330.436C332.051 164.715 333.366 166.033 333.366 167.651V186.022C333.366 187.64 332.051 188.958 330.436 188.958H330.432ZM294.214 181.471H297.418C298.329 181.471 299.069 182.214 299.069 183.126V186.022C299.069 186.881 299.769 187.583 300.627 187.583H330.432C331.29 187.583 331.99 186.881 331.99 186.022V167.651C331.99 166.791 331.29 166.089 330.432 166.089H300.627C299.769 166.089 299.069 166.791 299.069 167.651V177.672C299.069 178.256 298.757 178.803 298.252 179.099L294.214 181.471Z" fill="#1E1E1E"></path>
<path d="M346.838 180.251C349.902 180.251 352.385 177.762 352.385 174.691C352.385 171.62 349.902 169.131 346.838 169.131C343.775 169.131 341.292 171.62 341.292 174.691C341.292 177.762 343.775 180.251 346.838 180.251Z" fill="#3EAAFF"></path>
<path d="M350.625 180.875C355.593 180.875 359.846 183.929 361.622 188.268H339.633C341.409 183.933 345.661 180.875 350.629 180.875H350.625Z" fill="#3EAAFF"></path>
<path d="M364.725 188.958H334.919C333.305 188.958 331.99 187.64 331.99 186.022V167.651C331.99 166.033 333.305 164.715 334.919 164.715H364.725C366.339 164.715 367.654 166.033 367.654 167.651V177.672C367.654 177.769 367.707 177.862 367.792 177.915L372.157 180.478C372.659 180.77 372.893 181.346 372.74 181.909C372.586 182.469 372.096 182.846 371.514 182.846H367.933C367.78 182.846 367.654 182.972 367.654 183.126V186.022C367.654 187.64 366.339 188.958 364.725 188.958ZM334.919 166.093C334.061 166.093 333.362 166.795 333.362 167.655V186.026C333.362 186.885 334.061 187.587 334.919 187.587H364.725C365.583 187.587 366.283 186.885 366.283 186.026V183.13C366.283 182.218 367.023 181.476 367.933 181.476H371.138L367.1 179.103C366.598 178.807 366.283 178.26 366.283 177.676V167.655C366.283 166.795 365.583 166.093 364.725 166.093H334.919Z" fill="#1E1E1E"></path>
<path d="M303.147 216.964C303.034 216.964 302.921 216.948 302.807 216.92C302.249 216.766 301.873 216.275 301.873 215.695V212.106C301.873 211.952 301.747 211.826 301.594 211.826C299.445 211.826 297.701 210.074 297.701 207.925V190.523C297.701 188.905 299.016 187.587 300.631 187.587H330.436C332.051 187.587 333.366 188.905 333.366 190.523V208.894C333.366 210.512 332.051 211.83 330.436 211.83H307.035C306.938 211.83 306.845 211.883 306.792 211.968L304.235 216.344C304.001 216.745 303.592 216.973 303.151 216.973L303.147 216.964ZM300.627 188.958C299.769 188.958 299.069 189.659 299.069 190.519V207.921C299.069 209.316 300.202 210.451 301.594 210.451C302.504 210.451 303.244 211.194 303.244 212.106V215.314L305.611 211.267C305.906 210.764 306.453 210.447 307.035 210.447H330.436C331.294 210.447 331.994 209.746 331.994 208.886V190.515C331.994 189.655 331.294 188.954 330.436 188.954H300.631L300.627 188.958Z" fill="#1E1E1E"></path>
<path d="M348.473 203.703C351.313 203.703 353.615 201.396 353.615 198.549C353.615 195.702 351.313 193.394 348.473 193.394C345.633 193.394 343.331 195.702 343.331 198.549C343.331 201.396 345.633 203.703 348.473 203.703Z" fill="#8B8B8B"></path>
<path d="M348.473 204.283C343.869 204.283 339.928 207.114 338.285 211.133H358.664C357.018 207.114 353.077 204.283 348.477 204.283H348.473Z" fill="#8B8B8B"></path>
<path d="M362.204 216.964C361.763 216.964 361.351 216.733 361.12 216.336L358.563 211.96C358.515 211.875 358.422 211.822 358.32 211.822H334.919C333.305 211.822 331.99 210.504 331.99 208.886V190.515C331.99 188.897 333.305 187.579 334.919 187.579H364.725C366.339 187.579 367.654 188.897 367.654 190.515V208.886C367.654 210.504 366.339 211.822 364.725 211.822H363.758C363.604 211.822 363.479 211.948 363.479 212.102V215.691C363.479 216.271 363.103 216.766 362.544 216.916C362.431 216.948 362.318 216.96 362.204 216.96V216.964ZM334.919 188.954C334.061 188.954 333.362 189.655 333.362 190.515V208.886C333.362 209.746 334.061 210.447 334.919 210.447H358.32C358.903 210.447 359.449 210.76 359.744 211.267L362.111 215.314V212.106C362.111 211.194 362.852 210.451 363.762 210.451H364.729C365.587 210.451 366.287 209.75 366.287 208.89V190.519C366.287 189.659 365.587 188.958 364.729 188.958H334.923L334.919 188.954Z" fill="#1E1E1E"></path>
<path d="M256.992 26.644C256.879 25.8816 256.551 25.1476 256.058 24.5555C255.572 23.9593 254.925 23.5011 254.209 23.2415C253.715 23.0672 253.205 22.982 252.679 22.982H245.708L248.557 25.8816C248.557 25.8816 248.577 25.8978 248.589 25.9059C248.581 25.8978 248.573 25.8816 248.573 25.8816C254.998 30.2615 252.918 35.0914 252.918 35.0914C252.918 35.0914 254.743 37.1597 254.006 38.9684C254.006 38.9684 254.006 38.9644 253.998 38.9563C253.929 38.8508 253.857 38.7454 253.772 38.644C253.772 38.644 253.772 38.644 253.772 38.6399C253.679 38.5264 253.577 38.4209 253.468 38.3236C253.468 38.3236 253.468 38.3236 253.464 38.3196C253.371 38.2344 253.27 38.1573 253.165 38.0843C252.91 37.91 252.602 37.764 252.246 37.7153C252.23 37.7153 252.214 37.7112 252.198 37.7112C252.145 37.7072 252.093 37.7031 252.04 37.7031C251.943 37.7031 251.842 37.7031 251.745 37.7194C251.708 37.7234 251.676 37.7315 251.639 37.7396C251.538 37.7599 251.433 37.7842 251.336 37.8207C251.324 37.8248 251.312 37.8329 251.296 37.837C251.211 37.8694 251.126 37.9059 251.041 37.9424C250.976 37.9748 250.907 38.0032 250.838 38.0397C250.766 38.0762 250.693 38.1127 250.62 38.1533C250.596 38.1655 250.571 38.1776 250.547 38.1898C250.442 38.2425 250.333 38.2993 250.219 38.3561C249.823 38.5507 249.362 38.7454 248.775 38.8589C248.775 38.8589 248.767 38.8589 248.763 38.8589C248.755 38.8589 248.747 38.8589 248.739 38.8589C248.407 38.9238 248.035 38.9644 247.606 38.9644C247.569 38.9644 247.537 38.9644 247.501 38.9644C247.468 38.9644 247.436 38.9644 247.408 38.9644C247.339 38.9644 247.274 38.9563 247.205 38.9522C247.136 38.9522 247.068 38.9441 247.003 38.94C246.886 38.9319 246.772 38.9238 246.655 38.9116C246.602 38.9076 246.55 38.8995 246.497 38.8914C246.093 38.8427 245.688 38.7697 245.296 38.6683C245.275 38.6643 245.251 38.6562 245.231 38.6521C245.154 38.6318 245.077 38.6156 245 38.5913C244.584 38.4656 244.179 38.3074 243.782 38.1249C243.73 38.1006 243.677 38.0762 243.625 38.0519C243.548 38.0154 243.475 37.9789 243.402 37.9383C243.313 37.8937 243.228 37.8451 243.143 37.7964C243.111 37.7802 243.078 37.764 243.046 37.7437C243.038 37.7437 243.034 37.7356 243.026 37.7315C242.767 37.5815 242.524 37.4233 242.294 37.2611C242.269 37.2449 242.245 37.2246 242.221 37.2084C241.998 37.0462 241.788 36.8839 241.594 36.7177C241.573 36.7014 241.549 36.6852 241.529 36.665C241.497 36.6366 241.468 36.6082 241.436 36.5798C241.294 36.4541 241.161 36.3324 241.035 36.2067C240.991 36.1621 240.942 36.1134 240.898 36.0688C240.78 35.9471 240.671 35.8295 240.566 35.716C240.526 35.6714 240.485 35.6308 240.445 35.5862C240.42 35.5578 240.4 35.5254 240.376 35.497C240.161 35.2456 239.992 35.0225 239.862 34.84C239.838 34.8076 239.813 34.7792 239.789 34.7467C239.704 34.6332 239.627 34.5115 239.563 34.3899L237.584 32.2486V38.1573C237.584 38.8143 237.73 39.4713 238.017 40.0553C238.353 40.7406 238.871 41.3368 239.502 41.7626C240.149 42.1965 240.918 42.448 241.695 42.4885C241.857 42.4966 252.465 42.4966 252.671 42.4966C253.136 42.4966 253.594 42.4358 254.035 42.2979C254.759 42.0708 255.426 41.6409 255.936 41.0691C256.454 40.4973 256.81 39.7876 256.964 39.0333C257.033 38.7048 257.049 38.3601 257.049 38.0276V27.4754C257.049 27.1915 257.041 26.9117 256.996 26.6278L256.992 26.644Z" fill="url(#paint26_linear_3406_17224)"></path>
</g>
<defs>
<linearGradient id="paint0_linear_3406_17224" x1="240.234" y1="22.0127" x2="237.527" y2="37.3319" gradientUnits="userSpaceOnUse">
<stop stop-color="#E29E3A"></stop>
<stop offset="1" stop-color="#D23929"></stop>
</linearGradient>
<linearGradient id="paint1_linear_3406_17224" x1="245.227" y1="21.591" x2="241.528" y2="42.5099" gradientUnits="userSpaceOnUse">
<stop stop-color="#F9AD42"></stop>
<stop offset="1" stop-color="#EE3E31"></stop>
</linearGradient>
<linearGradient id="paint2_linear_3406_17224" x1="245" y1="22.8563" x2="242.294" y2="38.1754" gradientUnits="userSpaceOnUse">
<stop stop-color="#E29E3A"></stop>
<stop offset="1" stop-color="#D23929"></stop>
</linearGradient>
<linearGradient id="paint3_linear_3406_17224" x1="277.776" y1="55.7657" x2="288.874" y2="65.1963" gradientUnits="userSpaceOnUse">
<stop stop-color="#5A9ED3"></stop>
<stop offset="1" stop-color="#306997"></stop>
</linearGradient>
<linearGradient id="paint4_linear_3406_17224" x1="293.009" y1="71.129" x2="289.016" y2="65.5616" gradientUnits="userSpaceOnUse">
<stop stop-color="#FFD33B"></stop>
<stop offset="1" stop-color="#FFE773"></stop>
</linearGradient>
<linearGradient id="paint5_linear_3406_17224" x1="213.219" y1="110.206" x2="213.219" y2="102.176" gradientUnits="userSpaceOnUse">
<stop stop-color="#FA7655"></stop>
<stop offset="0.41" stop-color="#E32B1E"></stop>
<stop offset="0.99" stop-color="#980000"></stop>
<stop offset="1" stop-color="#980000"></stop>
</linearGradient>
<linearGradient id="paint6_linear_3406_17224" x1="216.392" y1="109.355" x2="210.837" y2="107.861" gradientUnits="userSpaceOnUse">
<stop stop-color="#861101"></stop>
<stop offset="0.99" stop-color="#901209"></stop>
<stop offset="1" stop-color="#901209"></stop>
</linearGradient>
<linearGradient id="paint7_linear_3406_17224" x1="216.559" y1="111.608" x2="216.451" y2="107.911" gradientUnits="userSpaceOnUse">
<stop stop-color="#861101"></stop>
<stop offset="0.99" stop-color="#901209"></stop>
<stop offset="1" stop-color="#901209"></stop>
</linearGradient>
<linearGradient id="paint8_linear_3406_17224" x1="198.154" y1="108.996" x2="201.711" y2="111.38" gradientUnits="userSpaceOnUse">
<stop stop-color="white"></stop>
<stop offset="0.23" stop-color="#E47252"></stop>
<stop offset="0.46" stop-color="#DD3B20"></stop>
<stop offset="0.99" stop-color="#A50003"></stop>
<stop offset="1" stop-color="#A50003"></stop>
</linearGradient>
<linearGradient id="paint9_linear_3406_17224" x1="210.065" y1="102.4" x2="210.065" y2="110.86" gradientUnits="userSpaceOnUse">
<stop stop-color="white"></stop>
<stop offset="0.23" stop-color="#E3714E"></stop>
<stop offset="0.56" stop-color="#BD1A0D"></stop>
<stop offset="0.99" stop-color="#A70D00"></stop>
<stop offset="1" stop-color="#A70D00"></stop>
</linearGradient>
<linearGradient id="paint10_linear_3406_17224" x1="216.793" y1="96.9645" x2="216.793" y2="102.225" gradientUnits="userSpaceOnUse">
<stop stop-color="white"></stop>
<stop offset="0.18" stop-color="#E36342"></stop>
<stop offset="0.4" stop-color="#C72410"></stop>
<stop offset="0.99" stop-color="#A70D00"></stop>
<stop offset="1" stop-color="#A70D00"></stop>
</linearGradient>
<linearGradient id="paint11_linear_3406_17224" x1="211.661" y1="96.0656" x2="212.063" y2="93.729" gradientUnits="userSpaceOnUse">
<stop stop-color="white"></stop>
<stop offset="0.54" stop-color="#C71F11"></stop>
<stop offset="0.99" stop-color="#BE0905"></stop>
<stop offset="1" stop-color="#BE0905"></stop>
</linearGradient>
<linearGradient id="paint12_linear_3406_17224" x1="196.112" y1="100.602" x2="196.112" y2="106.355" gradientUnits="userSpaceOnUse">
<stop stop-color="white"></stop>
<stop offset="0.31" stop-color="#DD4024"></stop>
<stop offset="0.99" stop-color="#BE190B"></stop>
<stop offset="1" stop-color="#BE190B"></stop>
</linearGradient>
<linearGradient id="paint13_linear_3406_17224" x1="192.422" y1="111.818" x2="204.935" y2="93.0662" gradientUnits="userSpaceOnUse">
<stop stop-color="#BC0012"></stop>
<stop offset="0.07" stop-color="white"></stop>
<stop offset="0.17" stop-color="white"></stop>
<stop offset="0.27" stop-color="#C72F1C"></stop>
<stop offset="0.33" stop-color="#810C01"></stop>
<stop offset="0.46" stop-color="#A21601"></stop>
<stop offset="0.72" stop-color="#B21301"></stop>
<stop offset="0.99" stop-color="#E72609"></stop>
<stop offset="1" stop-color="#E72609"></stop>
</linearGradient>
<linearGradient id="paint14_linear_3406_17224" x1="209.734" y1="110.357" x2="204.713" y2="110.357" gradientUnits="userSpaceOnUse">
<stop stop-color="#8B0C01"></stop>
<stop offset="0.54" stop-color="#980C00"></stop>
<stop offset="0.99" stop-color="#A70D0E"></stop>
<stop offset="1" stop-color="#A70D0E"></stop>
</linearGradient>
<linearGradient id="paint15_linear_3406_17224" x1="217.764" y1="103.994" x2="214.05" y2="103.994" gradientUnits="userSpaceOnUse">
<stop stop-color="#7E110B"></stop>
<stop offset="0.99" stop-color="#9D0C00"></stop>
<stop offset="1" stop-color="#9D0C00"></stop>
</linearGradient>
<linearGradient id="paint16_linear_3406_17224" x1="218.134" y1="92.881" x2="218.134" y2="92.881" gradientUnits="userSpaceOnUse">
<stop stop-color="#79130D"></stop>
<stop offset="0.99" stop-color="#9D120B"></stop>
<stop offset="1" stop-color="#9D120B"></stop>
</linearGradient>
<radialGradient id="paint17_radial_3406_17224" cx="0" cy="0" r="1" gradientUnits="userSpaceOnUse" gradientTransform="translate(213.322 103.575) scale(3.67861 1.92672)">
<stop stop-color="#A70D00"></stop>
<stop offset="0.99" stop-color="#7E0E08"></stop>
<stop offset="1" stop-color="#7E0E08"></stop>
</radialGradient>
<radialGradient id="paint18_radial_3406_17224" cx="0" cy="0" r="1" gradientUnits="userSpaceOnUse" gradientTransform="translate(199.775 110.776) scale(7.69852 6.00711)">
<stop stop-color="#A20C00"></stop>
<stop offset="0.99" stop-color="#800E08"></stop>
<stop offset="1" stop-color="#800E08"></stop>
</radialGradient>
<linearGradient id="paint19_linear_3406_17224" x1="205.947" y1="111.442" x2="203.397" y2="110.184" gradientUnits="userSpaceOnUse">
<stop stop-color="#8A2114"></stop>
<stop offset="0.43" stop-color="#9D100A"></stop>
<stop offset="0.99" stop-color="#B2100C"></stop>
<stop offset="1" stop-color="#B2100C"></stop>
</linearGradient>
<linearGradient id="paint20_linear_3406_17224" x1="210.305" y1="97.1091" x2="211.225" y2="99.3074" gradientUnits="userSpaceOnUse">
<stop stop-color="#B21000"></stop>
<stop offset="0.44" stop-color="#900F08"></stop>
<stop offset="0.99" stop-color="#791C12"></stop>
<stop offset="1" stop-color="#791C12"></stop>
</linearGradient>
<linearGradient id="paint21_linear_3406_17224" x1="38.9858" y1="50.1492" x2="120.639" y2="50.1492" gradientUnits="userSpaceOnUse">
<stop stop-color="#F4F4F4"></stop>
<stop offset="0.26" stop-color="#ADADAD"></stop>
<stop offset="0.52" stop-color="#6F6F6F"></stop>
<stop offset="0.74" stop-color="#434343"></stop>
<stop offset="0.9" stop-color="#282828"></stop>
<stop offset="1" stop-color="#1E1E1E"></stop>
</linearGradient>
<linearGradient id="paint22_linear_3406_17224" x1="38.9858" y1="41.13" x2="110.496" y2="41.13" gradientUnits="userSpaceOnUse">
<stop stop-color="#F4F4F4"></stop>
<stop offset="0.31" stop-color="#DEEAF6"></stop>
<stop offset="0.74" stop-color="#C5DFF9"></stop>
<stop offset="1" stop-color="#BCDBFB"></stop>
</linearGradient>
<linearGradient id="paint23_linear_3406_17224" x1="38.9858" y1="32.1107" x2="103.869" y2="32.1107" gradientUnits="userSpaceOnUse">
<stop stop-color="#F4F4F4"></stop>
<stop offset="1"></stop>
</linearGradient>
<linearGradient id="paint24_linear_3406_17224" x1="38.9939" y1="23.0915" x2="129.973" y2="23.0915" gradientUnits="userSpaceOnUse">
<stop stop-color="#F4F4F4"></stop>
<stop offset="0.16" stop-color="#C5D4EF"></stop>
<stop offset="0.37" stop-color="#8EB0E9"></stop>
<stop offset="0.57" stop-color="#6394E4"></stop>
<stop offset="0.75" stop-color="#447FE1"></stop>
<stop offset="0.9" stop-color="#3173DF"></stop>
<stop offset="1" stop-color="#2B6FDF"></stop>
</linearGradient>
<linearGradient id="paint25_linear_3406_17224" x1="188.941" y1="187.384" x2="188.941" y2="314.773" gradientUnits="userSpaceOnUse">
<stop stop-color="#C2C2C2"></stop>
<stop offset="0.19" stop-color="#CFCFCF"></stop>
<stop offset="0.55" stop-color="#F3F3F3"></stop>
<stop offset="0.56" stop-color="#F4F4F4"></stop>
</linearGradient>
<linearGradient id="paint26_linear_3406_17224" x1="249.608" y1="22.3656" x2="245.914" y2="43.2845" gradientUnits="userSpaceOnUse">
<stop stop-color="#F9AD42"></stop>
<stop offset="1" stop-color="#EE3E31"></stop>
</linearGradient>
<clipPath id="clip0_3406_17224">
<rect width="389" height="303" fill="white"></rect>
</clipPath>
</defs>
</svg>