<svg version="1.1" id="Layer_1" xmlns="http://www.w3.org/2000/svg" x="0px" y="0px" viewBox="0 0 938.7 135" xml:space="preserve" width="124" height="45"><g><g><path fill="white" d="M137.8,25.4h-56v106.3H56.2V25.4H0V3.2h137.8V25.4z"></path><path fill="white" d="M170.9,68.5V3.2h25.6v65.5c0,32.3,17.5,43.5,44,43.5c24.8,0,42.9-11.3,42.9-43.5V3.2h25.6v65.3    c0,46.8-25.4,66.4-68.4,66.4C197,135,170.9,115.3,170.9,68.5z"></path><path fill="white" d="M430.6,88.8h-48.6v43h-24.8V3.2h82c32.2,0,49.9,10.7,49.9,41.4c0,22.1-11,36.7-31.3,42l35.8,45.1h-29.9L430.6,88.8z     M382.1,67.2h55.3c15.9,0,26.4-7.1,26.4-22.5c0-15.3-10.4-19.3-26.4-19.3h-55.3V67.2z"></path><path fill="white" d="M531.7,3.2h25.4v128.5h-25.4V3.2z"></path><path fill="white" d="M745.1,3.2v128.5h-25.4l-84.2-93.9v93.9h-25V3.2h25.4L720.1,97V3.2H745.1z"></path><path fill="white" d="M938.7,62.2v53.1C923.6,127.9,899,135,866.6,135c-48.8,0-76.7-19.7-76.7-64v-7.3C789.9,19.7,817.8,0,866,0    c30.3,0,52.3,6.7,71.8,25.6l-16.1,19.5C909.1,30.4,891,22.7,866,22.7c-29.7,0-50.5,11.1-50.5,40.9v7.6c0,29.8,20.8,41.1,54.5,41.1    c24.6,0,36.2-4.8,43.3-10.1V81.7h-64.5V62.2H938.7z"></path></g></g></svg>