<svg width="48" height="47" viewBox="0 0 48 47" fill="none" xmlns="http://www.w3.org/2000/svg">
<path d="M24.0912 0C11.2117 0 0.750977 10.4599 0.750977 23.3395C0.750977 36.219 11.2117 46.6797 24.0912 46.6797C36.9708 46.6797 47.4307 36.219 47.4307 23.3395C47.4307 10.4599 36.9708 0 24.0912 0ZM24.091 0.896676C36.4859 0.896728 46.5339 10.9448 46.5338 23.3397C46.5337 35.7344 36.4858 45.7824 24.091 45.7824C11.6961 45.7825 1.64809 35.7345 1.64804 23.3397C1.64799 10.9447 11.6961 0.896623 24.091 0.896676Z" fill="black"></path>
<path d="M46.5339 23.3396C46.5339 29.2918 44.1693 35.0002 39.9605 39.209C35.7517 43.4179 30.0432 45.7824 24.091 45.7824C18.1388 45.7824 12.4304 43.4179 8.22155 39.209C4.0127 35.0002 1.64819 29.2918 1.64819 23.3396C1.64819 17.3874 4.0127 11.6789 8.22155 7.47008C12.4304 3.26123 18.1388 0.896729 24.091 0.896729C30.0432 0.896729 35.7517 3.26123 39.9605 7.47008C44.1693 11.6789 46.5339 17.3874 46.5339 23.3396Z" fill="white"></path>
<path d="M34.8153 30.1641C27.7717 30.1641 20.4635 32.7706 12.9648 32.7706C9.26785 32.7706 6.60795 32.1629 4.95483 31.6145C6.56951 35.3494 9.24162 38.5304 12.6419 40.7653C16.0421 43.0003 20.022 44.1916 24.091 44.1925C28.1494 44.1921 32.1196 43.0074 35.5146 40.7837C38.9096 38.56 41.582 35.3939 43.204 31.6737C43.1944 31.6694 39.8116 30.1641 34.8153 30.1641Z" fill="#0D0C8C"></path>
<path d="M24.0911 2.48657C20.0345 2.48686 16.0661 3.67033 12.672 5.89198C9.27794 8.11364 6.60553 11.277 4.98218 14.9946C4.98958 14.998 8.37331 16.5046 13.3712 16.5046C20.4148 16.5046 27.723 13.8981 35.2217 13.8981C38.9133 13.8981 41.5705 14.5039 43.2242 15.0516C41.6077 11.3196 38.9353 8.14172 35.5358 5.90921C32.1363 3.67669 28.1581 2.48699 24.0911 2.48657Z" fill="#FE1300"></path>
<path d="M4.80176 18.9954V27.5467H7.75794V25.9299L10.4951 24.8921C12.0447 24.3046 13.0325 23.4937 13.0325 21.8632C13.0325 20.1703 12.0203 18.9954 9.45523 18.9954H4.80176ZM7.75794 21.1709H8.98611C9.63857 21.1709 9.99265 21.5467 9.99316 21.9883C9.99391 22.6179 9.55515 22.9895 8.71357 23.3086L7.75794 23.6711V21.1709Z" fill="black"></path>
<path d="M13.8372 18.9954V27.5467H21.3294V25.3711H16.7935V24.2964H20.4056V22.1833H16.7935V21.1709H21.3294V18.9954H13.8372Z" fill="black"></path>
<path d="M40.3523 19.9705L43.3086 18.8496V27.5467H40.3523V19.9705Z" fill="black"></path>
<path d="M22.5554 18.9954V27.5467H25.5116V25.9299L28.2488 24.8921C29.7984 24.3046 30.7861 23.4937 30.7861 21.8632C30.7861 20.1703 29.7739 18.9954 27.2089 18.9954H22.5554ZM25.5116 21.1709H26.7398C27.3922 21.1709 27.7463 21.5467 27.7468 21.9883C27.7476 22.6179 27.3088 22.9895 26.4672 23.3086L25.5116 23.6711V21.1709Z" fill="black"></path>
<path d="M30.6775 25.628L33.0658 24.7225C33.0658 24.7225 33.4515 25.7186 35.2574 25.7097C35.7489 25.707 36.5959 25.6156 36.5959 25.1241C36.5959 24.0074 31.3106 24.8417 31.2867 21.5248C31.2752 19.9302 32.5544 18.783 35.2504 18.783C38.2174 18.783 39.0573 19.9167 39.3097 20.9212L36.8759 21.844C36.6632 21.2828 36.2079 20.9542 35.3279 20.9542C34.8839 20.9542 34.1881 21.0682 34.1881 21.4851C34.1881 22.5519 39.517 21.7557 39.517 25.0707C39.517 26.7247 37.9601 27.8328 35.3276 27.8328C31.0253 27.8328 30.6775 25.628 30.6775 25.628Z" fill="black"></path>
</svg>