<svg width="428" height="313" viewBox="0 0 428 313" fill="none" xmlns="http://www.w3.org/2000/svg">
<g clip-path="url(#clip0_3044_10557)">
<path d="M337.778 0H231.57C230.739 0 230.066 0.673835 230.066 1.50505V65.699C230.066 66.5302 230.739 67.2041 231.57 67.2041H337.778C338.609 67.2041 339.282 66.5302 339.282 65.699V1.50505C339.282 0.673835 338.609 0 337.778 0Z" fill="#F4F4F4"/>
<path d="M254.146 37.0197C260.635 37.0197 265.895 31.7554 265.895 25.2617C265.895 18.768 260.635 13.5038 254.146 13.5038C247.657 13.5038 242.397 18.768 242.397 25.2617C242.397 31.7554 247.657 37.0197 254.146 37.0197Z" fill="#8CCCFF"/>
<mask id="mask0_3044_10557" style="mask-type:luminance" maskUnits="userSpaceOnUse" x="242" y="13" width="24" height="25">
<path d="M254.146 37.0197C260.635 37.0197 265.895 31.7554 265.895 25.2617C265.895 18.768 260.635 13.5038 254.146 13.5038C247.657 13.5038 242.397 18.768 242.397 25.2617C242.397 31.7554 247.657 37.0197 254.146 37.0197Z" fill="white"/>
</mask>
<g mask="url(#mask0_3044_10557)">
<path d="M254.317 38.8767C256.982 38.8767 259.143 36.7142 259.143 34.0466C259.143 31.379 256.982 29.2166 254.317 29.2166C251.651 29.2166 249.491 31.379 249.491 34.0466C249.491 36.7142 251.651 38.8767 254.317 38.8767Z" fill="#959595"/>
<path d="M248.806 20.728C248.121 24.7245 242.888 27.7022 242.221 31.8747C241.356 37.2882 249.287 40.6873 251.878 32.9676L253.183 30.1427" fill="black"/>
<path d="M259.689 20.4641C260.568 24.4236 265.94 27.1373 266.81 31.2773C267.939 36.64 260.184 40.4281 257.218 32.838L255.774 30.0826" fill="black"/>
<path d="M250.86 29.3046H257.514V33.6067C257.514 35.4452 256.024 36.9363 254.187 36.9363C252.35 36.9363 250.86 35.4452 250.86 33.6067V29.3046Z" fill="#7F4B20"/>
<mask id="mask1_3044_10557" style="mask-type:luminance" maskUnits="userSpaceOnUse" x="250" y="29" width="8" height="8">
<path d="M250.86 29.3046H257.514V33.6067C257.514 35.4452 256.024 36.9363 254.187 36.9363C252.35 36.9363 250.86 35.4452 250.86 33.6067V29.3046Z" fill="white"/>
</mask>
<g mask="url(#mask1_3044_10557)">
<path d="M251.356 35.9407C251.356 35.9407 256.45 35.2645 256.913 32.009L249.56 30.5966L249.421 35.297L251.356 35.9407Z" fill="black"/>
</g>
<path d="M249.153 26.1926C249.153 26.1926 248.482 25.1969 248.098 26.1648C247.635 27.3225 248.917 29.3925 249.667 29.5083C250.416 29.6241 249.158 26.1972 249.158 26.1972L249.153 26.1926Z" fill="#9F5827"/>
<path d="M258.814 23.9465C258.888 20.1074 254.937 19.2831 254.377 19.1813V19.172C254.377 19.172 254.363 19.172 254.345 19.172C254.326 19.172 254.312 19.1674 254.312 19.1674V19.1766C253.748 19.2415 249.754 19.8435 249.611 23.6779C249.458 27.8087 249.703 29.3878 250.485 31.4208C250.916 32.5369 251.901 33.3149 252.706 33.7918C253.451 34.2318 254.377 34.2596 255.145 33.8613C255.978 33.4306 257.01 32.7082 257.5 31.6199C258.398 29.6333 258.736 28.068 258.814 23.9372V23.9465Z" fill="#9F5827"/>
<path d="M259.203 26.4751C259.203 26.4751 259.93 25.5165 260.258 26.5028C260.656 27.6884 259.259 29.6797 258.505 29.7491C257.75 29.8186 259.203 26.4704 259.203 26.4704V26.4751Z" fill="#9F5827"/>
<path d="M256.506 29.3786C256.506 29.3786 256.459 29.3786 256.441 29.3786C255.83 29.36 255.266 29.1053 254.845 28.6608C254.423 28.2162 254.206 27.6373 254.22 27.026C254.238 26.4148 254.493 25.8498 254.937 25.4284C255.381 25.007 255.964 24.7847 256.57 24.8032C257.181 24.8217 257.746 25.0764 258.167 25.521C258.588 25.9656 258.805 26.5444 258.792 27.1557C258.773 27.767 258.519 28.332 258.074 28.7534C257.649 29.1563 257.093 29.3786 256.506 29.3786ZM256.506 25.2663C256.038 25.2663 255.599 25.4423 255.256 25.7664C254.905 26.0999 254.701 26.5537 254.687 27.0399C254.673 27.5262 254.849 27.9893 255.182 28.3459C255.515 28.7024 255.969 28.9016 256.455 28.9155C257.468 28.9386 258.296 28.1514 258.329 27.1464C258.343 26.6602 258.167 26.1971 257.834 25.8405C257.501 25.4886 257.047 25.2848 256.561 25.2709C256.543 25.2709 256.524 25.2709 256.506 25.2709V25.2663Z" fill="black"/>
<path d="M255.108 30.1659C254.451 30.1659 253.748 30.1335 253.206 30.101C252.813 30.0779 252.609 30.5502 252.887 30.8281C253.456 31.4023 254.368 31.9164 255.395 30.8976C255.668 30.629 255.488 30.1659 255.103 30.1659H255.108Z" fill="#D6D6D6"/>
<path d="M251.73 29.2443C251.73 29.2443 251.689 29.2443 251.666 29.2443C251.055 29.2258 250.49 28.9711 250.069 28.5265C249.648 28.082 249.431 27.5031 249.444 26.8918C249.481 25.6322 250.541 24.6366 251.795 24.669C253.054 24.706 254.053 25.7619 254.016 27.0215C253.979 28.2626 252.961 29.2443 251.73 29.2443ZM251.73 25.1321C250.749 25.1321 249.94 25.9147 249.912 26.9011C249.898 27.3873 250.074 27.8504 250.407 28.207C250.74 28.5636 251.194 28.7627 251.679 28.7766C252.688 28.7998 253.526 28.0125 253.553 27.0076C253.581 26.0027 252.79 25.1599 251.786 25.1321C251.767 25.1321 251.749 25.1321 251.735 25.1321H251.73Z" fill="black"/>
<path d="M259.939 20.8299C259.051 18.9544 257.403 17.3428 254.428 17.2363C254.428 17.2363 254.405 17.2363 254.396 17.2363C254.386 17.2363 254.373 17.2363 254.363 17.2363C251.383 17.1715 249.731 18.4867 248.737 20.3112C247.732 22.1497 249.093 25.6831 249.102 26.6371C249.111 27.5864 249.63 27.6744 249.63 27.6744C249.63 27.6744 249.389 25.4331 249.815 25.0116C250.106 24.7245 249.893 22.2053 249.893 22.2053C250.958 23.3862 253.734 23.6038 254.178 23.6363C254.178 23.6363 254.192 23.6363 254.211 23.6363C254.234 23.6363 254.243 23.6363 254.243 23.6363C254.692 23.6316 257.473 23.5668 258.602 22.4507C258.602 22.4507 258.25 24.9561 258.523 25.2571C258.926 25.7016 258.56 27.9245 258.56 27.9245C258.56 27.9245 259.083 27.8689 259.148 26.9196C259.213 25.9702 260.832 22.724 259.934 20.8299H259.939Z" fill="black"/>
<path d="M254.451 27.2669C254.451 27.2669 254.451 27.2669 254.447 27.2669L253.776 27.2484C253.646 27.2484 253.544 27.1372 253.549 27.0076C253.549 26.8779 253.66 26.7853 253.79 26.7806L254.461 26.7992C254.59 26.7992 254.692 26.9103 254.687 27.04C254.687 27.165 254.581 27.2669 254.456 27.2669H254.451Z" fill="black"/>
</g>
<path d="M328.08 15.2126H270.124V21.5524H328.08V15.2126Z" fill="url(#paint0_linear_3044_10557)"/>
<path d="M274.126 26.6001L274.783 28.647C274.825 28.7766 274.945 28.8646 275.08 28.8646H277.227C277.527 28.8554 277.652 29.2444 277.407 29.4203L275.667 30.68C275.556 30.7587 275.51 30.9022 275.556 31.0273L276.227 33.0695C276.32 33.3566 275.991 33.5974 275.75 33.4168L274.015 32.148C273.904 32.0692 273.756 32.0692 273.65 32.148L271.915 33.4168C271.669 33.5928 271.341 33.3566 271.438 33.0695L272.109 31.0273C272.151 30.8976 272.109 30.7587 271.998 30.68L270.258 29.4203C270.013 29.2444 270.138 28.8554 270.438 28.8554H272.585C272.72 28.86 272.84 28.7766 272.882 28.647L273.539 26.6001C273.631 26.313 274.038 26.313 274.131 26.6001H274.126Z" fill="#FFC500"/>
<path d="M286.763 26.6001L287.42 28.647C287.462 28.7766 287.582 28.8646 287.716 28.8646H289.863C290.164 28.8554 290.289 29.2444 290.044 29.4203L288.304 30.68C288.193 30.7587 288.147 30.9022 288.193 31.0273L288.864 33.0695C288.956 33.3566 288.628 33.5974 288.387 33.4168L286.652 32.148C286.541 32.0692 286.393 32.0692 286.286 32.148L284.551 33.4168C284.306 33.5928 283.977 33.3566 284.075 33.0695L284.746 31.0273C284.787 30.8976 284.746 30.7587 284.635 30.68L282.895 29.4203C282.649 29.2444 282.774 28.8554 283.075 28.8554H285.222C285.356 28.86 285.477 28.7766 285.518 28.647L286.175 26.6001C286.268 26.313 286.675 26.313 286.768 26.6001H286.763Z" fill="#FFC500"/>
<path d="M299.395 26.6001L300.052 28.647C300.094 28.7766 300.214 28.8646 300.349 28.8646H302.496C302.796 28.8554 302.921 29.2444 302.676 29.4203L300.936 30.68C300.825 30.7587 300.779 30.9022 300.825 31.0273L301.496 33.0695C301.589 33.3566 301.26 33.5974 301.02 33.4168L299.284 32.148C299.173 32.0692 299.025 32.0692 298.919 32.148L297.184 33.4168C296.938 33.5928 296.61 33.3566 296.707 33.0695L297.378 31.0273C297.42 30.8976 297.378 30.7587 297.267 30.68L295.527 29.4203C295.282 29.2444 295.407 28.8554 295.707 28.8554H297.855C297.989 28.86 298.109 28.7766 298.151 28.647L298.808 26.6001C298.9 26.313 299.307 26.313 299.4 26.6001H299.395Z" fill="#FFC500"/>
<path d="M312.028 26.6001L312.685 28.647C312.726 28.7766 312.847 28.8646 312.981 28.8646H315.128C315.429 28.8554 315.554 29.2444 315.308 29.4203L313.569 30.68C313.458 30.7587 313.411 30.9022 313.458 31.0273L314.128 33.0695C314.221 33.3566 313.892 33.5974 313.652 33.4168L311.917 32.148C311.806 32.0692 311.658 32.0692 311.551 32.148L309.816 33.4168C309.571 33.5928 309.242 33.3566 309.339 33.0695L310.01 31.0273C310.052 30.8976 310.01 30.7587 309.899 30.68L308.159 29.4203C307.914 29.2444 308.039 28.8554 308.34 28.8554H310.487C310.621 28.86 310.741 28.7766 310.783 28.647L311.44 26.6001C311.533 26.313 311.94 26.313 312.032 26.6001H312.028Z" fill="#FFC500"/>
<path d="M324.665 26.6001L325.322 28.647C325.364 28.7766 325.484 28.8646 325.618 28.8646H327.765C328.066 28.8554 328.191 29.2444 327.946 29.4203L326.206 30.68C326.095 30.7587 326.048 30.9022 326.095 31.0273L326.766 33.0695C326.858 33.3566 326.53 33.5974 326.289 33.4168L324.554 32.148C324.443 32.0692 324.295 32.0692 324.188 32.148L322.453 33.4168C322.208 33.5928 321.879 33.3566 321.976 33.0695L322.647 31.0273C322.689 30.8976 322.647 30.7587 322.536 30.68L320.797 29.4203C320.551 29.2444 320.676 28.8554 320.977 28.8554H323.124C323.258 28.86 323.379 28.7766 323.42 28.647L324.077 26.6001C324.17 26.313 324.577 26.313 324.67 26.6001H324.665Z" fill="#FFC500"/>
<path d="M314.036 47.6384C315.853 47.6384 317.326 46.1643 317.326 44.3458C317.326 42.5274 315.853 41.0532 314.036 41.0532C312.219 41.0532 310.746 42.5274 310.746 44.3458C310.746 46.1643 312.219 47.6384 314.036 47.6384Z" fill="#1E1E1E"/>
<path d="M324.79 47.6384C326.607 47.6384 328.08 46.1643 328.08 44.3458C328.08 42.5274 326.607 41.0532 324.79 41.0532C322.973 41.0532 321.5 42.5274 321.5 44.3458C321.5 46.1643 322.973 47.6384 324.79 47.6384Z" fill="#1E1E1E"/>
<path d="M314.036 57.5346C315.853 57.5346 317.326 56.0605 317.326 54.2421C317.326 52.4236 315.853 50.9495 314.036 50.9495C312.219 50.9495 310.746 52.4236 310.746 54.2421C310.746 56.0605 312.219 57.5346 314.036 57.5346Z" fill="#1E1E1E"/>
<path d="M324.79 57.5346C326.607 57.5346 328.08 56.0605 328.08 54.2421C328.08 52.4236 326.607 50.9495 324.79 50.9495C322.973 50.9495 321.5 52.4236 321.5 54.2421C321.5 56.0605 322.973 57.5346 324.79 57.5346Z" fill="#1E1E1E"/>
<path d="M304.694 43.466H243.004C242.624 43.466 242.319 43.1603 242.319 42.7806C242.319 42.4009 242.624 42.0952 243.004 42.0952H304.694C305.073 42.0952 305.379 42.4009 305.379 42.7806C305.379 43.1603 305.073 43.466 304.694 43.466Z" fill="#BCBCBC"/>
<path d="M299.895 47.0039H243.004C242.624 47.0039 242.319 46.6983 242.319 46.3186C242.319 45.9388 242.624 45.6332 243.004 45.6332H299.895C300.275 45.6332 300.58 45.9388 300.58 46.3186C300.58 46.6983 300.275 47.0039 299.895 47.0039Z" fill="#BCBCBC"/>
<path d="M276.005 50.5467H243.004C242.624 50.5467 242.319 50.241 242.319 49.8613C242.319 49.4815 242.624 49.1759 243.004 49.1759H276.005C276.384 49.1759 276.69 49.4815 276.69 49.8613C276.69 50.241 276.384 50.5467 276.005 50.5467Z" fill="#BCBCBC"/>
<path d="M287.86 54.0846H242.999C242.619 54.0846 242.314 53.779 242.314 53.3992C242.314 53.0195 242.619 52.7139 242.999 52.7139H287.86C288.239 52.7139 288.545 53.0195 288.545 53.3992C288.545 53.779 288.239 54.0846 287.86 54.0846Z" fill="#BCBCBC"/>
<path d="M263.748 57.6227H243.004C242.624 57.6227 242.319 57.3171 242.319 56.9373C242.319 56.5576 242.624 56.252 243.004 56.252H263.748C264.127 56.252 264.432 56.5576 264.432 56.9373C264.432 57.3171 264.127 57.6227 263.748 57.6227Z" fill="#BCBCBC"/>
<path opacity="0.2" d="M359.073 299.899C399.39 300.529 427.995 303.169 427.995 306.369C427.995 310.032 388.215 313.005 339.148 313.005C290.081 313.005 250.3 310.032 250.3 306.369C250.3 305.516 252.443 304.706 256.348 303.96L240.551 297.426L241.314 296.055C241.314 296.055 260.624 303.266 260.985 303.215C275.898 301.112 305.091 299.737 339.152 299.737C344.455 299.737 349.652 299.769 354.7 299.839L350.776 297.218L353.682 296.306L359.077 299.908L359.073 299.899Z" fill="#292929"/>
<path d="M241.291 297.57C242.036 297.57 242.749 297.13 243.054 296.398L269.749 232.714C270.156 231.736 269.702 230.616 268.726 230.208C267.754 229.801 266.63 230.255 266.223 231.232L239.528 294.916C239.121 295.893 239.574 297.014 240.551 297.422C240.791 297.523 241.046 297.57 241.291 297.57Z" fill="url(#paint1_linear_3044_10557)"/>
<g opacity="0.5">
<path d="M266.223 231.227C266.635 230.25 267.755 229.796 268.726 230.204C269.703 230.611 270.156 231.736 269.749 232.709L260.467 254.808L257.644 251.649L266.223 231.227Z" fill="#292929"/>
</g>
<path d="M241.291 297.57C242.036 297.57 242.749 297.13 243.054 296.398L269.749 232.714C270.156 231.736 269.702 230.616 268.726 230.208C267.754 229.801 266.63 230.255 266.223 231.232L239.528 294.916C239.121 295.893 239.574 297.014 240.551 297.422C240.791 297.523 241.046 297.57 241.291 297.57Z" fill="#CACACA"/>
<g opacity="0.5">
<path d="M266.223 231.227C266.635 230.25 267.754 229.796 268.726 230.204C269.702 230.611 270.156 231.736 269.749 232.709L263.77 246.972L260.92 243.874L266.223 231.227Z" fill="#292929"/>
</g>
<path d="M351.877 297.57C351.132 297.57 350.42 297.13 350.114 296.398L323.42 232.714C323.013 231.736 323.466 230.616 324.442 230.208C325.414 229.801 326.539 230.255 326.946 231.232L353.64 294.916C354.047 295.893 353.594 297.014 352.618 297.422C352.377 297.523 352.123 297.57 351.877 297.57Z" fill="#CACACA"/>
<g opacity="0.5">
<path d="M326.946 231.227C326.534 230.25 325.414 229.796 324.442 230.204C323.466 230.611 323.013 231.736 323.42 232.709L334.521 259.189L339.282 260.647L326.946 231.222V231.227Z" fill="#292929"/>
</g>
<g opacity="0.5">
<path d="M297.989 236.302L294.977 238.331C297.272 240.915 300.154 242.679 302.801 243.874C305.559 243.661 308.321 243.3 311.093 242.795C303.046 242.049 297.994 236.302 297.994 236.302H297.989Z" fill="#292929"/>
</g>
<path d="M374.667 140.271C373.191 135.149 371.257 130.282 368.92 125.702C358.31 104.914 339.412 90.0901 317.636 84.2227C305.161 80.8607 291.742 80.4392 278.393 83.5188C276.958 83.8476 275.524 84.2181 274.094 84.6349C259.588 88.8166 247.145 96.6892 237.493 106.937C236.35 108.151 235.244 109.401 234.18 110.679C226.859 119.478 221.45 129.749 218.341 140.785C214.375 154.868 214.153 170.191 218.498 185.284C230.917 228.439 275.945 253.354 319.066 240.92C362.187 228.49 387.082 183.427 374.658 140.271H374.667Z" fill="url(#paint2_linear_3044_10557)"/>
<g opacity="0.61">
<path d="M219.173 142.716C219.423 144.235 219.581 145.837 219.002 147.227C218.678 148.005 218.822 148.773 218.655 149.565C218.507 150.278 217.989 151.042 218.378 151.807C218.581 152.209 219.275 152.372 219.53 152.733C220.122 153.576 220.011 155.215 219.983 156.206C219.9 158.984 220.164 161.842 220.946 164.551C221.543 166.616 222.214 168.663 222.894 170.701C223.555 172.678 225.073 173.521 226.443 174.901C227.077 175.54 227.442 176.346 228.011 177.027C228.659 177.8 228.474 178.055 228.696 178.935C228.909 179.796 229.64 180.375 230.325 180.861C230.959 181.31 232.208 182.121 232.972 181.671C232.935 181.695 231.422 180.254 231.26 180.06C230.774 179.467 230.413 178.786 229.992 178.147C229.395 177.244 228.451 176.309 228.16 175.248C228.858 176.411 230.487 177.457 231.533 178.309C232.657 179.222 233.944 179.685 235.17 180.375C237.294 181.565 239.76 183.112 240.449 185.649C241.847 185.867 243.591 186.228 245.012 186.066C246.229 185.927 246.978 184.844 248.2 184.603C250.102 184.228 252.142 185.168 253.989 185.168C255.46 185.168 256.844 184.955 258.357 185.395C259.801 185.816 261.082 186.645 262.419 187.224C263.405 187.65 265.941 187.506 266.968 187.117C266.283 185.816 269.009 186.251 269.541 186.414C271.012 186.872 271.105 188.252 271.493 189.609C271.711 190.373 271.729 190.683 271.475 191.438C271.202 192.248 271.077 192.063 271.253 193.026C271.554 194.67 271.915 196.379 272.447 197.982C273.238 200.376 276.588 201.441 278.814 202.344C279.651 202.682 280.401 203.303 281.34 203.432C282.367 203.571 282.756 203.516 283.709 204.057C284.135 204.298 284.653 204.664 285.135 204.784C286.472 205.122 287.865 204.849 289.188 205.433C291.094 206.276 292.645 208.804 294.065 210.286C295.282 211.555 296.471 213.5 297.226 215.084C297.596 215.857 297.628 216.88 298.142 217.584C298.549 218.14 299.058 218.177 299.521 218.603C300.705 219.696 301.242 221.46 302.593 222.502C304.606 224.054 306.73 225.151 308.608 226.828C310.135 228.189 312.296 228.379 314.226 228.476C315.693 228.55 317.15 229.361 318.441 228.365C317.84 227.698 316.581 227.323 315.716 227.305C314.55 227.277 313.93 228.12 312.93 227.078C312.481 226.61 312.384 225.8 311.898 225.346C311.551 225.017 311.015 224.897 310.64 224.586C309.738 223.845 309.571 222.776 308.78 221.97C308.22 221.4 307.35 221.372 306.869 220.812C307.193 220.483 307.688 220.317 308.141 220.205C308.174 219.566 307.456 218.793 307.725 218.121C308.002 217.431 308.868 217.529 309.404 217.107C309.303 216.422 308.956 216.01 309.02 215.394C309.08 214.796 309.483 214.435 309.659 213.875C310.029 212.685 309.941 211.254 310.242 209.976C310.575 208.559 311.098 207.197 311.625 205.887C312.208 204.442 312.879 203.002 313.666 201.626C314.309 200.505 315.781 199.751 316.128 198.472C316.442 197.319 315.748 195.782 315.623 194.615C315.503 193.466 315.688 192.091 314.934 191.216C316.243 190.725 315.952 190.711 316.123 189.363C316.262 188.271 316.965 187.882 317.238 187.002C317.442 186.349 317.109 185.631 316.896 184.996C316.72 184.478 316.424 184.061 316.452 183.496C313.282 183.542 310.362 183.352 307.234 183.028C305.633 182.862 304.166 183.843 302.621 183.283C300.738 182.598 298.845 181.394 297.04 180.449C295.509 179.648 293.667 178.587 291.923 178.823C288.952 179.231 286.518 178.018 283.598 177.531C281.581 177.198 279.651 178.481 277.652 178.527C276.574 178.55 273.84 177.842 272.923 178.634C272.59 178.925 272.692 179.634 272.359 180.004C271.933 180.477 271.012 180.597 270.513 181.018C269.629 181.769 269.953 183.186 269.157 184.033C268.398 184.839 266.741 185.061 265.538 185.094C264.835 185.112 263.919 185.552 263.294 185.367C262.008 184.987 261.54 183.959 261.323 182.774C261.166 181.894 261.434 182.121 260.652 181.495C260.161 181.102 259.606 180.694 259.055 180.676C258.496 180.653 257.404 181.102 256.904 181.292C256.08 181.602 255.451 182.454 254.623 182.621C253.66 179.884 253.165 178.333 254.53 175.61C253.54 174.72 251.522 175.397 250.699 176.369C249.801 177.43 250.912 179.5 250.278 180.704C249.713 181.773 248.228 182.172 247.122 181.843C246.423 181.634 244.258 181.231 243.795 180.75C243.323 180.254 243.61 178.888 243.61 178.231C243.61 176.026 243.707 175.466 241.38 174.933C241.477 172.808 243.545 170.9 243.698 168.742C244.082 168.621 248.538 168.103 248.653 168.205C248.191 167.816 247.677 167.417 247.284 166.987C249.412 166.334 251.555 163.694 253.979 165.218C254.775 165.718 255.978 166.829 256.497 167.626C256.904 168.251 256.862 170.196 258.014 169.728C257.653 167.964 257.515 165.991 256.33 164.518C255.724 163.764 255.016 163.597 254.711 162.685C254.493 162.041 254.525 160.814 254.724 160.17C255.164 158.758 256.492 157.419 257.154 156.044C258.07 154.141 257.848 153.997 256.876 152.117C256.353 151.107 256.15 149.287 256.427 148.185C256.904 148.417 257.38 148.648 257.866 148.866C258.149 147.569 258.088 146.194 258.912 145.106C259.893 143.809 260.643 143.401 260.962 141.79C261.193 140.618 261.124 139.053 261.994 138.085C262.637 137.367 263.47 136.603 264.141 135.946C264.71 135.39 265.131 135.144 265.955 134.973C265.788 136.228 264.807 137.298 264.506 138.502C265.895 136.955 267.607 136.344 268.62 134.422C269.402 132.936 269.795 132.421 269.18 130.754C268.782 131.204 268.75 131.884 268.403 132.361C268.375 132.204 268.254 132.019 268.217 131.857C267.528 132.014 266.316 133.394 266.001 131.898C265.709 132.653 264.733 132.755 263.984 132.922C263.993 131.944 264.502 130.986 265.182 130.25C265.011 130.074 264.724 129.782 264.53 129.634C263.738 129.837 263.104 130.643 262.558 131.236C261.415 132.463 260.263 133.607 259.028 134.737C259.296 133.315 259.722 132.222 260.666 131.032C262.41 128.842 265.441 128.67 267.389 126.679C268.629 125.41 271.669 122.414 271.674 120.608C271.119 120.497 268.611 120.863 268.273 121.354C268.671 120.775 269.416 120.112 269.999 119.668C268.481 118.996 267.588 119.223 266.024 119.585C266.14 118.45 265.51 118.853 264.946 118.404C263.933 117.598 264.863 117.982 264.631 116.857C264.381 115.625 262.359 114.389 261.3 114.064C261.031 115.167 261.045 115.926 260.485 116.954C259.657 118.478 258.551 118.538 256.844 118.756C256.811 117.598 257.575 117.07 256.497 116.26C255.853 115.778 254.692 115.653 253.822 115.699C253.063 115.736 250.222 116.375 249.972 116.862C249.755 117.288 250.532 118.82 250.597 119.39C250.708 120.349 250.777 120.719 251.097 121.553C251.495 122.595 251.731 123.234 251.462 124.41C251.157 125.758 249.991 126.387 249.547 127.596C249.149 128.68 249.727 130.069 249.815 131.148C249.005 131.12 248.089 131.199 247.238 131.199C247.052 130.476 247.557 128.717 247.066 128.156C246.474 127.476 245.484 128.346 244.804 128.494C243.841 128.703 243.184 128.092 242.319 128.17C241.301 128.263 240.075 129.606 239.154 130.009C238.895 129.425 239.071 128.147 238.77 127.749C238.358 127.207 237.039 127.295 236.479 127.49C237.312 125.012 239.529 123.261 240.653 120.983C240.843 120.599 240.556 120.261 240.824 119.932C241.134 119.547 241.643 119.566 241.995 119.274C242.86 118.547 243.291 117.315 244.077 116.514C244.049 117.269 243.508 117.922 243.36 118.644C245.229 118.478 245.97 117.269 247.265 115.94C246.724 115.306 245.808 115.63 245.424 114.884C245.757 114.379 246.321 114.315 246.724 113.912C247.094 113.541 247.339 112.865 247.649 112.43C248.603 111.101 248.718 111.128 248.274 109.582C247.89 108.239 248.376 107.646 249.593 106.905C251.143 105.96 251.208 107.391 252.638 107.702C253.873 107.97 254.613 106.618 255.391 107.947C256.14 109.234 254.586 110.17 253.609 110.952C253.244 111.244 249.824 113.476 251.277 113.814C251.971 113.976 254.053 112.749 254.734 112.448C254.47 112.999 254.178 113.606 254.206 114.18C255.377 114.356 258.5 114.551 258.061 112.833C258.792 112.559 259.685 112.962 260.351 112.712C260.809 112.541 261.707 111.615 261.526 110.976C260.897 108.762 256.858 111.175 258.616 107.79C259.486 107.993 260.532 108.063 261.267 108.586C261.489 108.026 261.998 106.312 261.637 105.733C261.147 104.951 259.287 104.965 258.588 104.349C258.186 103.992 258.204 103.511 257.737 103.131C257.33 102.802 256.622 102.617 256.126 102.473C255.178 102.205 254.081 102.019 253.1 101.88C251.629 101.677 252.11 102.478 250.851 102.733C249.56 102.992 249.523 102.371 248.404 103.497C247.654 104.247 247.219 105.016 246.696 105.946C246.183 106.859 244.878 108.095 244.859 109.095C245.461 109.128 245.923 108.73 246.307 109.174C246.479 109.373 246.409 110.55 246.414 110.837C246.432 112.337 245.771 113.495 244.401 114.19C243.929 113.342 244.059 111.318 242.745 111.392C241.921 109.188 243.577 107.1 244.72 105.395C244.211 105.363 242.143 106.479 241.541 106.812C240.607 107.331 239.667 108.841 239.353 109.739C239.871 109.85 240.436 109.85 240.954 109.869C241.037 110.739 240.436 111.161 240.195 111.906C240.88 112.383 242.782 112.74 241.87 114.097C241.68 114.379 239.857 115.403 239.552 115.468C239.501 115.097 239.492 114.643 239.533 114.291C238.784 114.5 238.321 115.287 237.701 115.745C236.956 116.292 235.66 117.158 234.763 117.334C235.049 115.838 236.766 115.023 237.372 113.569C237.738 112.694 238.339 111.05 238.367 110.151C238.002 110.337 237.636 110.827 237.284 110.966C236.535 111.258 236.984 111.128 236.253 110.929C235.841 110.818 235.85 110.438 235.29 110.443C235.165 110.443 234.698 110.545 234.147 110.679C226.827 119.478 221.418 129.749 218.308 140.785C218.609 141.359 219.039 142.114 219.136 142.721L219.173 142.716Z" fill="#004AB4"/>
<path d="M238.534 107.072C239.302 106.766 239.677 105.571 240.533 105.164C241.343 104.779 242.175 104.867 242.957 104.33C243.948 103.649 244.563 102.904 245.697 102.404C246.562 102.024 247.617 101.635 248.381 101.061C249.075 100.537 249.972 100.014 250.611 99.4585C251.111 99.0185 250.935 98.5091 251.259 98.1248C251.629 97.6848 252.235 97.745 252.721 97.5274C253.804 97.0458 253.669 95.9251 254.553 95.0961C255.622 94.0959 256.807 93.341 258.112 92.688C259.037 92.225 259.967 91.4377 261.004 91.2571C260.749 92.5908 258.695 93.1048 258.634 94.4895C260.43 94.6469 263.095 93.0817 264.696 94.1607C265.399 94.633 266.214 95.7584 266.542 96.5225C266.741 96.9855 266.672 98.4628 267.366 98.5554C268.217 98.6712 268.254 97.0828 269.31 97.7774C269.897 98.1618 270.244 99.2362 269.948 99.6298C269.393 100.366 268.37 100.056 268.518 101.181C268.606 101.848 269.356 102.649 269.832 103.075C270.526 103.696 271.364 103.941 272.127 104.451C272.845 104.928 273.627 105.77 274.145 106.465C274.719 107.238 274.751 107.998 275.871 107.91C276.769 107.84 277.481 107.558 278.425 107.6C279.027 107.627 280.327 107.776 280.85 107.322C281.484 106.771 281.174 104.321 281.137 103.404C281.058 101.621 281.137 100.162 282.904 99.352C283.802 98.9444 284.774 98.787 285.357 97.8654C285.662 97.3838 285.685 96.8651 285.889 96.3419C286.185 95.5916 286.236 95.7491 286.847 95.462C288.078 94.8785 290.983 93.3225 290.919 91.7017C289.568 91.3358 288.175 90.6551 287.86 89.1176C287.74 88.5295 287.934 87.8765 287.559 87.3486C287.194 86.8299 286.102 86.3807 285.528 86.1677C284.875 85.9223 284.316 85.9037 283.663 85.8528C282.789 85.788 282.358 85.4036 281.586 85.1304C280.887 84.8803 280.202 85.1674 279.508 84.9498C278.536 84.6441 278.615 84.1255 278.402 83.5234C276.968 83.8522 275.533 84.2227 274.103 84.6395C259.597 88.8212 247.154 96.6938 237.502 106.942C237.849 107.118 238.205 107.206 238.538 107.076L238.534 107.072Z" fill="#004AB4"/>
<path d="M316.262 85.4175C317.373 85.2415 318.312 86.8577 318.978 87.5616C319.483 88.0896 319.668 88.849 320.172 89.3168C320.834 89.9327 321.403 89.7243 321.644 90.7338C321.801 91.3914 321.644 92.137 321.782 92.8038C321.93 93.5263 322.25 93.8736 322.708 94.4895C323.152 95.0869 323.582 95.5639 323.814 96.2354C324.105 97.0828 324.008 97.1477 325.017 97.319C325.489 97.3977 326.683 97.796 327.127 97.532C327.719 97.1801 327.571 95.939 327.974 95.3323C329.477 96.0779 330.847 97.1801 332.24 98.1016C332.721 98.4212 333.573 98.8611 333.943 99.301C334.285 99.7086 334.202 100.547 334.896 100.445C335.053 99.6947 334.614 98.0507 334.216 97.3792C333.966 96.9578 333.522 96.7401 333.263 96.2585C332.99 95.7491 333.045 95.4018 332.555 94.9989C331.601 94.2117 330.102 94.0635 329.121 93.341C328.413 92.8177 327.682 91.484 327.312 90.6783C328.112 90.5115 329.635 90.8728 330.176 91.3266C330.967 91.9888 331.685 92.9937 332.43 93.7393C333.179 94.4941 333.781 94.8322 334.822 94.9526C335.382 95.0174 337.001 95.0221 337.348 95.3833C335.877 96.5132 337.071 95.9853 337.566 97.1199C337.645 97.3005 337.436 97.5922 337.496 97.7636C337.589 98.0275 337.774 98.0646 337.908 98.2915C338.2 98.7824 338.57 99.0093 338.501 99.6993C338.394 100.723 337.163 100.774 336.326 101.251C335.174 101.904 334.725 102.311 333.397 101.774C332.374 101.362 331.509 100.737 331.088 99.7039C330.921 99.2872 330.213 96.8003 329.265 97.8053C328.635 98.4721 329.862 100.111 330.227 100.556C330.579 100.987 332.166 102.144 332.189 102.589C332.208 102.955 331.439 103.478 331.217 103.737C330.806 104.224 330.384 104.742 330.218 105.372C330.042 106.048 330.098 106.748 329.894 107.438C329.7 108.1 329.482 108.461 329.621 109.197C329.13 109.327 328.603 108.845 328.112 108.984C327.442 109.179 327.821 109.549 327.46 109.938C327.067 110.369 326.622 109.98 326.238 110.304C325.78 110.693 326.248 111.564 326.521 111.976C327.358 113.249 328.196 112.129 329.362 112.675C329.857 112.907 329.973 113.314 330.31 113.675C330.468 113.842 330.653 114.083 330.852 114.208C331.134 114.384 331.629 114.342 331.819 114.481C332.332 114.842 332.36 115.139 332.249 115.792C332.101 116.672 331.972 116.63 331.051 116.644C330.162 116.658 329.242 116.783 328.353 116.681C328.14 116.658 326.942 116.25 326.729 116.454C326.442 116.732 326.882 117.547 326.59 117.917C326.22 118.39 325.669 117.917 325.711 118.732C325.734 119.205 326.53 119.923 326.734 120.395C326.923 120.835 327.011 121.303 327.206 121.738C327.641 122.724 328.025 123.72 328.534 124.646C328.825 125.179 329.325 127.244 329.912 127.351C330.361 127.434 330.338 126.971 330.75 126.823C331.273 126.633 331.842 126.934 332.36 126.948C333.573 126.985 334.507 125.864 335.581 125.327C336.386 124.924 336.775 124.841 336.858 123.97C336.941 123.048 336.664 122.433 336.881 121.539C337.043 120.881 336.923 120.488 336.974 119.821C337.048 118.839 337.589 118.867 338.089 118.228C338.524 117.672 338.26 117.612 338.357 116.95C338.524 115.82 339.084 116.241 339.972 115.759C340.56 115.44 340.222 115.602 340.625 115.153C340.888 114.861 340.564 114.699 341.009 114.504C341.513 114.287 342.212 114.754 342.67 114.954C345.233 116.06 346.811 118.603 349.287 119.677C350.138 120.048 351.202 120.867 351.013 121.942C350.823 123.021 349.157 123.664 350.786 124.484C351.105 122.988 351.748 121.756 351.466 120.219C351.66 120.224 351.929 120.075 352.128 120.099C351.869 119.33 351.114 118.927 350.49 118.473C349.726 117.922 349.176 117.084 348.412 116.588C347.723 116.139 346.765 116.042 346.075 115.593C345.363 115.125 344.988 114.199 344.511 113.523C346.455 114.685 349.014 114.495 350.693 116.181C351.929 117.417 352.813 119.145 353.909 120.52C354.506 121.27 354.937 122.127 355.533 122.877C356.019 123.484 356.699 124.151 356.704 123.067C356.709 121.891 355.094 120.46 355.344 119.325C355.45 118.834 355.705 119.006 356.019 118.695C356.505 118.223 356.371 118.269 356.547 117.635C356.667 117.2 357.005 116.57 357 116.111C356.996 115.639 356.588 115 356.463 114.523C356.112 113.185 355.83 111.749 355.594 110.415C356.861 110.999 356.885 112.004 357.185 113.236C357.486 114.477 358.287 114.171 359.059 115.005C359.365 115.333 359.42 115.921 359.878 116.116C360.327 116.306 360.693 115.917 361.137 116.172C361.604 116.445 362.15 117.802 362.086 118.325C361.563 118.218 361.313 117.7 360.859 117.584C360.323 117.445 360.526 117.667 360.073 117.797C359.022 118.098 358.847 118.506 358.208 119.376C357.426 120.441 357.833 120.261 358.518 121.391C359.045 122.266 359.235 123.535 360.026 124.229C360.411 124.563 360.42 124.391 360.85 124.609C361.271 124.822 361.692 125.206 362.132 125.364C363.196 125.753 363.395 125.068 364.103 126.341C364.867 127.712 366.477 131.018 365.63 132.505C364.769 132.264 363.039 133.019 362.363 132.463C361.6 131.843 362.049 130.615 360.878 130.217C359.79 129.847 358.939 130.203 358.342 131.041C357.597 132.093 357.028 132.533 355.612 132.361C354.21 132.19 352.984 131.245 351.721 130.662C350.194 129.953 349.87 129.754 349.583 128.022C349.333 126.494 349.041 125.091 347.343 125.007C346.099 124.947 344.548 125.461 343.313 125.725C342.226 125.957 341.675 126.54 340.782 127.096C339.958 127.61 338.926 127.902 338.033 128.272C337.251 128.596 336.469 128.907 335.627 129.032C334.762 129.157 333.883 128.754 333.087 128.865C333.068 129.458 333.48 129.888 333.531 130.421C333.605 131.153 333.179 131.532 332.777 132.083C331.773 133.459 332.231 134.788 331.861 136.293C331.532 137.636 330.579 139.039 330.061 140.354C329.491 141.794 328.311 143.11 328.214 144.726C328.177 145.36 328.39 145.999 328.362 146.606C328.335 147.217 328.057 147.782 327.932 148.398C327.622 149.945 328.862 151.7 329.547 153.034C329.987 153.895 330.079 154.275 330.033 155.233C329.991 156.072 330.033 156.887 330.449 157.614C330.986 158.549 331.648 159.415 332.212 160.351C332.795 161.328 333.253 161.948 334.179 162.615C335.081 163.259 335.65 164.153 336.483 164.833C337.422 165.602 338.538 165.542 339.671 165.597C341.369 165.681 342.915 165.685 344.567 165.204C345.377 164.968 346.76 164.796 347.292 164.055C348.06 162.986 347.343 162.564 348.829 162.657C349.74 162.712 350.018 162.773 350.804 163.333C351.165 163.592 351.633 163.796 351.933 164.166C352.128 164.407 352.304 165.171 352.558 165.315C353.132 165.644 353.761 164.819 354.363 164.907C356.473 165.213 355.057 168.927 355.228 170.108C355.367 171.048 356.093 171.803 356.426 172.636C356.82 173.618 356.704 174.544 356.501 175.554C356.385 176.133 356.084 176.619 355.968 177.189C355.806 177.976 355.982 178.907 355.959 179.708C355.908 181.519 355.76 183.477 355.57 185.246C355.399 186.84 354.955 188.136 354.367 189.637C353.988 190.618 353.706 191.262 353.757 192.318C353.794 193.082 353.812 193.814 353.659 194.573C353.377 195.99 352.993 197.472 352.341 198.755C351.734 199.954 351.17 200.857 351.013 202.196C350.962 202.65 350.832 203.131 350.804 203.576C350.735 204.673 351.045 204.483 352.049 204.451C353.553 204.4 354.289 203.877 355.131 202.585C356.061 201.158 356.926 199.788 357.958 198.412C358.726 197.389 359.365 196.106 360.225 195.184C360.924 194.434 361.378 193.564 361.836 192.688C362.386 191.642 363.252 190.984 364.048 190.127C365.251 188.831 366.245 187.159 367.009 185.534C367.745 183.968 368.027 182.533 368.425 180.866C368.999 178.481 370.688 176.457 371.326 174.095C371.608 173.058 371.608 171.946 371.803 170.891C372.302 168.107 373.01 165.519 374.116 162.898C374.727 161.453 375.537 160.124 375.597 158.507C373.931 158.614 373.001 156.433 373.385 155.007C373.492 154.608 373.834 154.367 374.028 154.02C374.44 153.279 374.389 152.557 374.389 151.695C374.389 150.829 374.334 149.991 374.436 149.139C374.524 148.426 374.713 147.824 374.616 147.097C374.5 146.231 374.01 145.467 373.82 144.619C373.626 143.744 373.51 142.887 373.26 142.012C372.946 140.915 373.034 139.849 372.886 138.747C372.705 137.386 371.803 136.58 371.363 135.418C371.206 134.996 371.284 134.649 371.21 134.241C371.09 133.575 370.789 133.213 370.456 132.625C369.813 131.486 369.133 129.851 368.726 128.615C368.355 127.49 368.494 126.573 368.897 125.679C358.287 104.891 339.389 90.067 317.613 84.1996C316.887 84.3524 316.313 84.6997 316.234 85.3944L316.262 85.4175Z" fill="#004AB4"/>
<path d="M297.73 93.642C296.901 93.9939 296.582 94.8182 295.823 95.2998C294.907 95.8833 294.389 94.6932 293.695 94.9896L293.644 94.8182C293.181 94.8553 292.908 95.0868 292.755 95.5175C292.459 96.3511 292.982 96.2723 293.686 96.5502C294.195 96.7493 294.773 97.0828 295.291 97.1846C295.948 97.3143 296.351 96.9855 297.096 96.7077C298.544 96.1658 300.196 96.2307 301.649 95.8324C303.102 95.4341 302.991 94.6562 303.204 93.3734C301.418 93.9245 299.493 92.8871 297.725 93.642H297.73Z" fill="#004AB4"/>
<path d="M366.574 190.512L366.222 190.892C364.954 191.748 364.001 193.485 363.145 194.707C362.382 195.796 361.614 197.023 360.97 198.199C360.758 198.588 360.258 199.44 361.156 199.213C361.507 199.125 362.414 197.866 362.65 197.56C363.77 196.134 365.093 195.032 366.278 193.665C367.333 192.452 368.291 191.355 367.43 189.905C367.148 190.076 366.856 190.327 366.579 190.512H366.574Z" fill="#004AB4"/>
<path d="M262.04 172.437C261.17 171.895 260.268 170.914 259.217 170.747C258.417 170.622 257.889 171.432 257.121 171.594C256.603 171.9 253.854 174.327 256.052 174.368C256.538 174.378 257.279 173.266 258.047 173.169C258.384 173.127 259.722 173.007 260.064 173.1C260.883 173.322 260.99 174.128 261.605 174.642C262.257 175.188 262.887 175.207 263.835 175.086C266.464 174.753 262.961 173.002 262.045 172.433L262.04 172.437Z" fill="#004AB4"/>
<path d="M270.457 174.794C269.416 174.785 268.342 174.818 267.32 174.878L267.208 175.336C267.208 175.336 267.111 175.429 266.727 175.989C266.542 176.258 266.463 176.563 266.241 176.832C265.95 177.193 265.492 176.966 265.422 177.633C266.551 177.754 267.671 177.893 268.574 177.304C268.981 177.036 269.055 176.67 269.596 176.448C270.1 176.244 270.758 176.392 271.216 176.188C272.655 175.554 271.526 174.804 270.457 174.79V174.794Z" fill="#004AB4"/>
<path d="M275.089 174.984L274.95 174.906C274.455 174.642 273.946 175.086 274.413 175.475C274.663 175.684 275.454 175.545 275.713 175.489C275.774 175.1 275.501 174.994 275.089 174.98V174.984Z" fill="#004AB4"/>
<path d="M316.734 101.76C317.359 101.894 317.558 101.431 318.21 101.709C318.316 101.755 318.501 102.181 318.687 102.283C319.038 102.473 319.381 102.381 319.742 102.483C320.45 102.682 321.181 102.895 321.875 103.131C321.967 103.863 321.301 103.339 321.111 103.751C320.912 104.187 321.084 104.145 321.144 104.539C321.181 104.766 321.579 106.224 321.671 106.317C322.032 106.674 322.226 106.354 322.601 106.451C323.064 106.572 323.221 106.609 323.67 106.961C324.17 107.354 324.1 107.674 324.822 107.651C325.068 107.641 325.142 107.303 325.368 107.266C325.581 107.229 325.803 107.391 325.984 107.359C326.997 107.188 329.056 106.183 327.825 104.867C326.997 103.983 324.651 103.872 326.488 102.413C325.123 102.195 323.8 101.413 322.453 101.061C321.477 100.806 319.871 99.6391 318.964 100.269C318.798 99.616 318.622 98.8935 318.432 98.2313C318.224 98.2684 317.969 98.3564 317.812 98.4953L317.784 98.4027C316.938 97.6617 316.757 97.0273 315.929 98.1248C315.628 98.5231 315.207 99.0556 314.98 99.5141C314.531 100.412 314.73 100.26 315.457 100.801C315.748 101.019 316.456 101.695 316.734 101.755V101.76Z" fill="#004AB4"/>
<path d="M316.849 107.4C317.284 107.058 317.881 106.437 318.016 105.882C318.168 105.238 318.071 104.02 317.428 103.631C317.155 103.464 316.822 103.492 316.507 103.45C316.456 103.446 316.41 103.436 316.359 103.423C316.044 103.353 315.753 103.149 315.429 103.135C314.753 103.103 314.684 103.603 314.61 104.214C314.559 104.622 314.416 105.659 314.601 106.025C314.776 106.368 315.461 106.775 315.734 107.141C316.243 107.822 315.924 108.132 316.849 107.405V107.4Z" fill="#004AB4"/>
</g>
<path opacity="0.2" d="M256.158 124.424C256.158 124.424 264.15 116.056 271.188 112.583L271.285 118.946L273.066 117.945L274.408 119.557C274.408 119.557 275.195 119.098 275.639 118.45C276.083 117.802 276.106 116.385 276.106 116.385L276.898 117.741C276.898 117.741 277.657 117.042 277.749 116.477C277.842 115.912 277.985 113.379 277.985 113.379L279.197 116.412C279.197 116.412 279.859 115.773 279.952 113.99C280.044 112.207 279.669 111.596 280.044 108.781C280.419 105.965 279.998 104.367 279.998 104.367C279.998 104.367 282.344 103.617 283.279 102.348C284.218 101.079 283.561 100 283.561 100C283.561 100 294.731 94.8647 295.666 90.8774C296.605 86.8902 290.9 84.4034 279.646 87.2375C268.393 90.0716 275.213 93.3457 275.213 93.3457C275.213 93.3457 264.335 95.6843 257.533 99.8151C250.735 103.946 256.149 124.419 256.149 124.419L256.158 124.424Z" fill="#292929"/>
<path d="M242.083 117.098C250.958 106.368 261.253 100.25 265.08 103.437C265.098 103.455 265.117 103.474 265.135 103.492C264.946 102.334 264.488 101.417 263.738 100.792C259.735 97.4626 248.959 103.863 239.667 115.093C230.376 126.323 226.091 138.127 230.093 141.456C230.843 142.082 231.829 142.359 232.999 142.336C232.981 142.318 232.953 142.309 232.935 142.29C229.112 139.109 233.208 127.828 242.083 117.102V117.098Z" fill="#343434"/>
<path d="M254.164 127.156C261.716 118.029 265.964 108.521 265.135 103.492C265.117 103.474 265.098 103.455 265.08 103.437C261.258 100.255 250.957 106.373 242.082 117.098C233.207 127.828 229.108 139.104 232.934 142.285C232.953 142.304 232.976 142.313 232.999 142.332C238.08 142.221 246.613 136.279 254.164 127.152V127.156Z" fill="#1E1E1E"/>
<path d="M225.61 95.9066C221.58 95.7167 218.637 93.818 219.095 88.0201C219.557 82.2268 218.896 80.9024 217.822 77.9802C216.749 75.0581 210.877 70.2327 216.175 62.3972C221.473 54.557 233.046 57.8635 235.938 61.6284C238.83 65.3934 247.381 70.3624 250.5 75.8222C253.618 81.2821 251.925 88.6777 247.95 91.0626C243.975 93.4429 232.199 96.2122 225.605 95.9066H225.61Z" fill="#1E1E1E"/>
<path d="M232.916 87.3023C225.878 91.0811 217.79 99.0602 216.79 101.061C215.791 103.061 206.809 119.811 206.809 119.811C206.809 119.811 201.432 123.118 198.517 125.651C195.597 128.189 190.147 132.797 187.995 133.876C185.843 134.95 186.459 142.637 189.531 142.559C192.604 142.48 204.352 136.103 207.272 134.334C210.192 132.565 215.948 126.957 219.173 122.423C222.398 117.89 224.934 112.819 224.934 112.819C224.934 112.819 226.47 117.047 229.311 118.353C232.153 119.659 234.92 125.114 235.993 132.264C237.067 139.409 251.735 133.723 257.343 129.268C262.951 124.808 265.024 124.503 265.714 119.2C266.403 113.898 263.562 112.36 262.026 107.442C260.49 102.524 256.959 95.9158 255.881 94.684C255.881 94.684 266.019 91.7618 273.159 92.0721C273.159 92.0721 272.312 97.6848 271.854 99.9864C271.396 102.288 273.312 103.599 275.079 103.293C276.847 102.987 279.457 102.293 282.298 97.143C285.139 91.9934 288.285 84.6904 278.689 82.2314C269.092 79.7724 247.51 79.4667 232.921 87.3023H232.916Z" fill="#CCCCCC"/>
<path d="M230.843 84.9174C226.822 86.867 224.009 91.6044 226.618 94.985C229.228 98.3656 238.135 96.2168 240.208 91.0673C242.281 85.9177 240.824 80.0781 230.838 84.9174H230.843Z" fill="#959595"/>
<path d="M225.61 84.1486C228.437 88.8351 226.54 93.8643 231.227 93.2159C235.683 92.6 237.983 87.4504 237.983 85.5286C237.983 83.6068 238.446 74.2291 238.446 74.2291L223.856 80.68L225.61 84.144V84.1486Z" fill="#9F5827"/>
<path d="M229.871 91.1321C233.092 89.9003 233.013 81.4349 233.013 81.4349L226.271 85.4314C227.206 87.5663 227.382 89.6548 227.854 91.1414C228.405 91.3914 229.071 91.4424 229.871 91.1321Z" fill="#1E1E1E"/>
<path d="M233.786 82.1064C233.786 82.1064 231.551 86.9458 227.373 87.3301C223.194 87.7145 221.168 85.2231 219.474 80.0781C217.785 74.9285 216.712 73.0854 218.091 70.1633C219.474 67.2412 226.767 63.629 226.767 63.629L237.9 67.8571L237.294 79.1241L233.777 82.1064H233.786Z" fill="#9F5827"/>
<path d="M218.095 70.1632C218.095 70.1632 224.624 72.8538 230.306 68.6258C230.306 68.6258 230.612 70.3161 230.691 71.622C230.769 72.9279 231.153 76.1557 231.153 76.1557L232.768 75.8269C232.768 75.8269 232.231 71.1635 235.073 71.622C237.914 72.0851 236.456 77.3134 234.61 78.9991C234.61 78.9991 235.563 80.0457 235.378 83.1067C235.193 86.1678 235.299 90.3726 240.139 88.7611C240.139 88.7611 243.059 90.2846 244.438 88.0248C244.438 88.0248 246.28 87.7654 246.28 85.8436C246.28 83.9217 245.775 82.6066 247.353 82.3009C248.931 81.9953 246.798 73.8495 246.798 73.8495L230.57 61.4247L219.789 64.2496L218.1 70.1679L218.095 70.1632Z" fill="#1E1E1E"/>
<path d="M219.988 80.8746C218.076 80.8746 216.517 79.3186 216.517 77.4014C216.517 75.4842 218.072 73.9282 219.988 73.9282C221.903 73.9282 223.458 75.4842 223.458 77.4014C223.458 79.3186 221.903 80.8746 219.988 80.8746ZM219.988 74.3172C218.285 74.3172 216.901 75.7019 216.901 77.406C216.901 79.1102 218.285 80.4949 219.988 80.4949C221.69 80.4949 223.074 79.1102 223.074 77.406C223.074 75.7019 221.69 74.3172 219.988 74.3172Z" fill="black"/>
<path d="M226.956 78.6564C225.045 78.6564 223.486 77.1004 223.486 75.1832C223.486 73.266 225.041 71.71 226.956 71.71C228.872 71.71 230.427 73.266 230.427 75.1832C230.427 77.1004 228.872 78.6564 226.956 78.6564ZM226.956 72.099C225.253 72.099 223.87 73.4836 223.87 75.1878C223.87 76.892 225.253 78.2766 226.956 78.2766C228.659 78.2766 230.043 76.892 230.043 75.1878C230.043 73.4836 228.659 72.099 226.956 72.099Z" fill="black"/>
<path d="M223.643 81.773C223.523 81.5599 223.606 81.2913 223.828 81.1895C224.717 80.7773 227.044 79.6751 227.831 80.1475C228.918 80.8005 227.71 82.6899 226.049 83.1067C224.832 83.4123 223.916 82.2546 223.643 81.773Z" fill="#D6D6D6"/>
<path d="M218.095 70.3531C218.095 70.3531 218.058 70.3531 218.04 70.3439C216.448 69.8715 215.62 69.0704 215.583 69.038C215.509 68.9639 215.504 68.8435 215.583 68.7694C215.657 68.6953 215.777 68.6906 215.851 68.7694C215.86 68.7786 216.652 69.5381 218.151 69.9827C218.253 70.0104 218.308 70.1216 218.28 70.2188C218.257 70.3022 218.179 70.3578 218.095 70.3578V70.3531Z" fill="#CCCCCC"/>
<path d="M274.048 103.932C272.132 103.756 268.796 100.797 272.835 97.7914C276.282 95.2259 279.994 98.3656 279.642 100.862C279.29 103.358 276.861 104.187 274.052 103.932H274.048Z" fill="#959595"/>
<path d="M267.222 111.249C267.833 109.183 269.522 106.692 269.943 105.988C270.364 105.284 270.318 100.417 274.589 100.408C277.032 100.403 278.018 102.603 278.11 105.516C278.189 107.952 279.035 114.069 279.308 116C279.355 116.32 279.114 116.607 278.79 116.625C278.531 116.639 278.295 116.473 278.226 116.218L276.514 109.975L277.111 117.2C277.143 117.584 276.838 117.917 276.454 117.917C276.134 117.917 275.861 117.69 275.806 117.376L274.589 110.776V119.084C274.589 119.478 274.269 119.798 273.876 119.798C273.506 119.798 273.201 119.515 273.168 119.149L272.474 111.388L271.627 118.427C271.576 118.834 271.188 119.112 270.785 119.029C270.457 118.959 270.225 118.668 270.23 118.33L270.406 109.466L268.083 112.768C267.865 113.078 267.491 113.236 267.12 113.171C266.847 113.124 266.681 112.847 266.769 112.587L267.213 111.253L267.222 111.249Z" fill="#9F5827"/>
<path d="M184.904 136.881C184.95 134.584 187.426 132.07 191.086 133.69C194.746 135.311 194.806 141.535 191.567 143.156C188.328 144.777 184.784 142.79 184.904 136.881Z" fill="#959595"/>
<path opacity="0.2" d="M134.139 293.661C106.621 293.661 84.3127 296.051 84.3127 299.001C84.3127 299.126 84.3543 299.246 84.433 299.367C77.5523 299.13 70.0886 299.001 62.2871 299.001C27.8883 299.001 0 301.525 0 304.641C0 307.758 27.8837 310.282 62.2871 310.282C96.6905 310.282 124.574 307.758 124.574 304.641C124.574 304.507 124.519 304.373 124.417 304.238C127.563 304.303 130.816 304.34 134.143 304.34C161.661 304.34 183.969 301.951 183.969 299.001C183.969 296.051 161.661 293.661 134.143 293.661H134.139Z" fill="#292929"/>
<path d="M149.853 112.958C151.944 112.74 153.379 112.087 153.379 112.087C153.379 112.087 152.19 108.512 152.338 104.214C152.486 99.9123 151.13 94.4895 151.13 94.4895C151.13 94.4895 139.164 109.975 143.953 112.092C145.605 112.823 147.234 113.046 148.664 113.032L149.08 111.365L149.853 112.962V112.958Z" fill="#1E1E1E"/>
<path d="M117.952 285.904C117.758 282.612 118.341 275.249 118.341 275.249L111.178 274.475C111.178 274.475 109.758 284.358 108.791 287.65L109.693 293.902L116.139 295.352L118.198 288.928L117.952 285.904Z" fill="#CACACA"/>
<g opacity="0.2">
<path d="M118.341 275.249L111.178 274.475C111.178 274.475 110.48 279.329 109.73 283.367C114.274 282.941 116.773 281.676 118.003 280.801C118.128 277.944 118.341 275.253 118.341 275.253V275.249Z" fill="#292929"/>
</g>
<path d="M112.918 299.417C108.596 299.417 106.556 296.898 106.884 294.837C106.426 296.935 106.287 298.802 107.176 299.598C109.045 301.279 113.82 301.728 116.726 300.89C119.632 300.052 119.438 299.084 119.179 297.403C119.133 297.107 119.072 296.657 118.998 296.106C119.156 297.371 117.24 299.417 112.918 299.417Z" fill="black"/>
<path d="M116.898 289.521C116.31 290.42 113.557 289.901 111.248 289.762C108.939 289.623 109.226 285.904 109.226 285.904C108.675 286.256 108.8 287.345 108.647 288.141C108.3 289.91 107.398 292.517 106.889 294.837C106.556 296.898 108.601 299.417 112.923 299.417C117.245 299.417 119.165 297.371 119.003 296.106C118.67 293.522 118.115 288.618 117.957 285.904C117.957 285.904 117.485 288.623 116.902 289.517L116.898 289.521Z" fill="#1E1E1E"/>
<path d="M141.158 272.604C141.158 272.604 141.366 287.548 141.329 289.581C141.292 291.614 146.017 292.962 147.808 292.443C149.598 291.925 149.737 291.721 149.978 291.582C150.218 291.443 150.427 291.133 150.427 291.133L151.736 288.803C151.736 288.803 149.219 286.076 149.117 284.034C149.015 281.991 149.635 271.988 149.635 271.988L141.158 272.6V272.604Z" fill="#CACACA"/>
<g opacity="0.2">
<path d="M149.163 281.102C149.297 277.425 149.635 271.993 149.635 271.993L141.158 272.604C141.158 272.604 141.255 279.602 141.306 284.673C145.425 284.191 147.891 282.39 149.163 281.102Z" fill="#292929"/>
</g>
<path d="M164.868 298.306C168.885 298.135 169.111 297.996 168.598 297.246C167.649 296.208 165.65 295.291 164.211 294.787C162.143 294.064 159.006 292.554 159.006 292.554L150.112 288.613C150.112 289.202 149.492 290.512 145.873 290.165C142.255 289.822 141.32 286.886 141.32 286.886C140.386 286.988 140.635 288.678 140.566 289.591C140.497 290.503 139.775 291.925 139.807 293.786C139.807 293.921 139.807 294.05 139.812 294.185L145.869 295.532C145.869 295.532 146.901 295.963 148.432 296.546C150.39 297.273 160.829 298.482 164.859 298.311L164.868 298.306Z" fill="#1E1E1E"/>
<path d="M140.02 297.824C140.839 299.056 145.878 298.616 145.878 298.616V295.532L139.821 294.185C139.844 295.907 139.831 297.537 140.02 297.824Z" fill="black"/>
<path d="M164.868 298.306C160.838 298.477 150.403 297.269 148.441 296.542C151.542 297.723 156.701 299.547 159.561 299.751C163.836 300.061 168.695 300.2 169.107 298.649C169.232 298.176 169.014 297.699 168.598 297.246C169.111 297.996 168.88 298.135 164.868 298.306Z" fill="black"/>
<path d="M157.64 174.151L151.569 278.171C151.569 278.171 147.451 281.584 137.808 278.356L136.489 187.817L157.64 174.155V174.151Z" fill="#2B6FDF"/>
<path d="M120.35 278.314L139.284 190.859C139.284 190.859 151.514 180.31 152.694 179.041C153.874 177.777 155.813 170.946 155.813 170.946V166.644H119.313L106.598 276.383C106.598 276.383 109.559 281.264 120.345 278.314H120.35Z" fill="#2B6FDF"/>
<path d="M144.805 109.521L143.56 107.66L138.752 106.419L135.42 108.748L134.652 115.032L134.564 115.732L142.94 123.646L145.499 117.751L144.805 109.521Z" fill="#9F5827"/>
<path d="M139.053 108.785C139.053 108.785 140.746 114.606 145.239 114.666L144.948 111.249C144.948 111.249 141.514 109.021 141.431 109.007C141.348 108.994 139.053 108.781 139.053 108.781V108.785Z" fill="#1E1E1E"/>
<path d="M145.003 164.083L143.379 157.021L145.239 150.876L143.453 146.939L142.246 120.08L141.001 118.061L135.42 114.101L134.935 112.703L134.652 115.032L127.508 117.593L128.364 167.885H143.819L143.523 166.94L145.003 164.083Z" fill="#CACACA"/>
<path d="M153.642 118.76L146.507 115.5L145.142 113.55L145.313 115.574L142.94 118.214L142.246 120.08L143.453 146.939L145.239 150.876L143.379 157.021L145.003 164.083L143.523 166.94L143.819 167.885H155.813L153.642 118.76Z" fill="#D0D0D0"/>
<path d="M147.849 116.139C148.266 115.861 148.793 115.81 149.256 116.009L157.914 119.686L159.552 119.904L161.736 122.91C161.736 122.91 170.37 133.63 173.975 142.322C177.579 151.019 178.782 156.813 175.886 159.276C172.989 161.735 159.931 173.604 159.931 173.604L159.001 156.924L165.012 150.635L159.329 145.277L147.845 116.139H147.849Z" fill="#1E1E1E"/>
<path d="M135.129 165.338H152.338V169.474H134.564L135.129 165.338Z" fill="black"/>
<path d="M145.369 164.917H140.515C139.835 164.917 139.284 165.468 139.284 166.149V168.598C139.284 169.279 139.835 169.83 140.515 169.83H145.369C146.049 169.83 146.6 169.279 146.6 168.598V166.149C146.6 165.468 146.049 164.917 145.369 164.917Z" fill="#3EAAFF"/>
<path d="M139.201 109.438C139.201 109.438 142.329 112.082 147.062 110.966C151.167 109.998 149.964 101.955 150.024 99.5696C150.126 95.7074 148.682 92.0444 148.682 92.0444L138.631 89.5946L133.343 92.174C133.343 92.174 129.969 97.2681 130.104 97.532C130.238 97.796 131.094 103.751 131.293 104.015C131.492 104.279 133.606 107.391 133.606 107.391L139.196 109.438H139.201Z" fill="#9F5827"/>
<path d="M145.744 106.136C144.027 106.136 143.398 105.243 143.366 105.196C143.305 105.108 143.329 104.988 143.416 104.932C143.504 104.872 143.62 104.895 143.68 104.983C143.717 105.034 144.536 106.159 147.012 105.608C147.114 105.585 147.215 105.65 147.239 105.752C147.262 105.854 147.197 105.956 147.095 105.979C146.586 106.095 146.137 106.141 145.744 106.141V106.136Z" fill="black"/>
<path d="M146.711 103.992L145.61 103.941C145.475 103.937 145.434 103.751 145.554 103.691L146.183 103.372C146.211 103.358 146.243 103.358 146.271 103.367L147.155 103.663C147.243 103.691 147.257 103.812 147.183 103.862C147.044 103.955 146.877 104.001 146.711 103.997V103.992Z" fill="#A74E20"/>
<path d="M147.849 116.139C147.849 116.139 148.9 117.991 149.39 122.53C149.88 127.068 150.103 140.632 150.103 148.833C150.103 157.035 149.214 168.52 148.978 174.151C148.738 179.782 148.682 181.917 148.682 181.917C148.682 181.917 160.431 184.431 163.489 180.166C163.489 180.166 162.453 174.808 161.74 171.469C161.027 168.135 160.38 158.281 160.208 152.112C160.042 145.944 159.445 131.824 159.445 131.824L147.849 116.139Z" fill="#1E1E1E"/>
<path d="M131.566 116.139L131.274 115.954C130.937 115.741 130.525 115.685 130.145 115.815C128.933 116.222 126.749 117.014 125.148 117.723C124.357 118.07 116.717 121.437 116.717 121.437L114.478 174.211L115.625 180.064C115.625 180.064 125.24 185.422 137.808 181.542C137.808 181.542 137.045 172.627 135.786 162.893C134.527 153.159 131.14 125.322 131.034 121.659C130.923 117.996 131.048 116.334 131.048 116.334L131.571 116.144L131.566 116.139Z" fill="#1E1E1E"/>
<path d="M134.935 112.703L134.657 112.786C134.19 112.93 133.806 113.268 133.607 113.712L132.7 115.732L137.364 122.91L140.996 118.056L135.411 114.097L134.93 112.698L134.935 112.703Z" fill="#D6D6D6"/>
<path d="M142.939 118.214L146.165 122.53L148.076 117.116L147.844 116.139C147.678 115.431 147.234 114.819 146.613 114.444L145.142 113.55L145.313 115.574L142.939 118.218V118.214Z" fill="#D6D6D6"/>
<path d="M151.727 91.5766C147.428 84.3662 138.9 85.4869 135.133 87.0753C131.367 88.6637 129.71 93.7578 129.317 99.9771C128.919 106.196 129.317 111.355 129.317 111.355C129.317 111.355 130.303 111.814 132.061 112.217L132.426 110.892L132.621 112.337C134.462 112.708 136.998 112.981 140.043 112.698L136.864 105.136C136.864 105.136 134.81 105.27 133.421 102.621C132.033 99.9725 133.884 97.7913 135.406 99.5789C136.929 101.366 137.257 102.821 137.257 102.821L138.382 102.686L136.498 94.9433C136.498 94.9433 140.561 98.4489 147.076 98.7129L146.253 96.5965C146.253 96.5965 149.358 98.9768 151.074 98.9768C152.791 98.9768 152.661 98.0506 152.661 98.0506C152.661 98.0506 156.035 98.7777 151.736 91.5673L151.727 91.5766Z" fill="#1E1E1E"/>
<path d="M112.798 296.106C115.297 296.106 115.644 293.18 116.079 291.105C116.518 289.03 116.477 285.242 113.501 285.242C110.526 285.242 110.105 288.739 110.091 290.674C110.077 292.61 110.586 296.106 112.793 296.106H112.798Z" fill="#3EAAFF"/>
<path d="M150.047 289.239C147.937 287.701 147.738 285.307 148.909 284.825C150.079 284.344 151.528 286.446 153.457 288.104C155.387 289.757 160.315 292.967 161.694 293.485C163.073 294.004 161.212 295.277 157.487 293.624C153.767 291.971 151.699 290.452 150.042 289.243L150.047 289.239Z" fill="#3EAAFF"/>
<path d="M174.691 147.194C174.631 148.366 177.297 148.153 177.297 148.153C177.297 148.153 177.819 149.005 178.689 149.005C179.559 149.005 180.082 148.426 180.082 148.426C180.082 148.426 181.706 148.921 182.632 148.153C183.557 147.384 183.964 145.819 183.964 145.819L178.287 146.342L174.696 146.402V147.199L174.691 147.194Z" fill="#9F5827"/>
<path d="M114.709 102.015L114.616 102.983C114.602 103.122 114.477 103.223 114.339 103.205C114.005 103.159 113.367 103.02 112.617 102.621C111.498 102.029 111.775 101.302 111.775 101.302L113.478 100.973L114.297 101.621L114.718 102.019L114.709 102.015Z" fill="#CACACA"/>
<path d="M170.115 147.264C174.169 147.032 178.805 147.379 180.948 147.264C183.09 147.148 183.96 145.814 183.96 145.814C186.681 145.814 186.741 144.365 186.741 144.365C188.596 144.365 188.883 142.66 188.883 142.66C186.625 142.35 184.247 141.058 182.627 140.363C181.008 139.669 181.989 136.186 181.989 136.186C181.989 136.186 179.032 135.432 178.167 136.186C177.297 136.941 174.867 139.28 173.59 139.78C171.966 140.419 166.404 140.359 166.404 140.359L170.111 147.259L170.115 147.264Z" fill="#FF8238"/>
<path d="M184.626 135.607C183.159 136.816 180.045 134.825 178.37 137.812C177.139 140.007 174.779 142.684 175.765 143.031C176.751 143.378 179.356 142.17 180.286 140.363C180.286 140.363 182.044 140.35 183.65 141.049C185.255 141.748 186.657 142.415 188.397 142.66C189.795 142.86 192.178 140.817 191.146 137.682C190.109 134.547 186.958 133.69 184.631 135.607H184.626Z" fill="#9F5827"/>
<path d="M166.872 139.785H170.175C170.175 139.785 171.73 142.146 172.022 144.675C172.313 147.203 171.568 149.584 171.568 149.584L167.802 150.339L166.876 139.785H166.872Z" fill="#D6D6D6"/>
<path d="M83.0123 114.824C78.8154 117.181 75.2246 123.688 68.9964 131.889C62.7681 140.09 57.4838 144.763 60.7368 153.506C63.9851 162.249 74.2807 175.461 74.2807 175.461L77.1264 160.147L73.1979 150.862L80.1711 139.951L83.0169 114.824H83.0123Z" fill="#8CCCFF"/>
<path d="M90.4621 282.755L89.7495 293.397L96.7413 295.453L97.9027 294.56L99.7813 281.95L90.4621 282.755Z" fill="#CACACA"/>
<path opacity="0.2" d="M99.374 284.673L98.8836 287.97C98.8836 287.97 95.3576 289.211 90.0039 289.595C90.0039 289.595 90.1659 284.811 90.3324 284.673C90.499 284.534 99.374 284.673 99.374 284.673Z" fill="#292929"/>
<path d="M47.8131 277.657L43.2275 292.707L47.517 294.314L51.0013 293.87L51.8943 291.633L57.2851 278.643L47.8131 277.657Z" fill="#CACACA"/>
<path opacity="0.2" d="M44.9578 287.034C44.9578 287.034 52.6343 286.224 54.6842 284.913L56.8266 279.745L46.5032 281.95L44.9531 287.034H44.9578Z" fill="#292929"/>
<path d="M100.577 303.196L98.4531 302.4L98.4577 300.96L100.577 303.196Z" fill="#1E1E1E"/>
<path d="M86.7507 300.209C86.8201 301.469 87.0515 302.692 87.0515 302.692C87.0515 302.692 90.8227 303.289 98.4437 303.243V300.964C94.2977 301.585 88.8561 300.672 86.7461 300.214L86.7507 300.209Z" fill="#EBEBEB"/>
<path d="M115.703 299.126C116.171 300.237 114.343 300.27 109.262 300.992C104.177 301.719 98.4575 300.955 98.4575 300.955L100.581 303.192C108.184 302.881 115.176 301.302 115.597 300.881C115.87 300.608 116.309 299.862 115.708 299.121L115.703 299.126Z" fill="#EBEBEB"/>
<path d="M109.262 300.992C114.348 300.265 116.175 300.237 115.703 299.126C115.324 298.658 114.523 298.19 113.001 297.843C109.068 296.949 100.577 292.994 100.577 292.994C100.577 292.994 100.808 290.262 98.4531 290.869C98.4531 290.869 98.1801 293.393 96.2968 293.393C93.974 293.393 92.3405 291.702 90.7349 291.605C89.5735 291.536 89.9575 290.313 89.9575 290.313C88.1113 290.531 88.0187 291.827 87.9262 293.258C87.8383 294.689 87.0794 296.982 86.811 298.501C86.7231 298.991 86.7185 299.603 86.7509 300.205C88.8562 300.663 94.2979 301.575 98.4531 300.955C98.4531 300.955 104.172 301.714 109.258 300.992H109.262Z" fill="#004AB4"/>
<path d="M39.4238 299.371L39.6089 298.616C36.1477 299.339 34.2598 298.635 34.7364 297.718C34.2737 298.463 33.9775 299.218 33.9775 299.913C33.9775 300.483 35.1158 301.052 36.5595 301.154C38.0079 301.256 38.9888 301.154 38.9888 301.154L39.4238 299.376V299.371Z" fill="#CACACA"/>
<path opacity="0.2" d="M39.4238 299.371L39.6089 298.616C36.1477 299.339 34.2598 298.635 34.7364 297.718C34.2737 298.463 33.9775 299.218 33.9775 299.913C33.9775 300.483 35.1158 301.052 36.5595 301.154C38.0079 301.256 38.9888 301.154 38.9888 301.154L39.4238 299.376V299.371Z" fill="#292929"/>
<path d="M39.4237 299.371L38.9888 301.149C38.9888 301.149 39.1553 301.821 39.7708 301.876C40.3862 301.927 49.946 302.289 50.927 301.617C51.908 300.946 51.4314 299.237 51.4314 299.237C50.307 299.705 47.873 299.955 45.1939 299.936C42.3481 299.918 39.4284 299.371 39.4284 299.371H39.4237Z" fill="#EBEBEB"/>
<path d="M53.5184 288.41C53.5184 288.41 52.7873 290.396 51.3389 290.188C49.8906 289.98 49.5297 288.845 47.3086 289.257C45.0876 289.669 44.3472 289.104 44.5138 288.488C44.7544 287.609 45.157 286.442 45.157 286.442C45.157 286.442 44.5693 285.636 42.7647 288.688C40.9554 291.739 40.0069 292.624 37.9061 294.314C36.7724 295.226 35.5185 296.463 34.7365 297.718C34.2599 298.639 36.1478 299.343 39.6089 298.616L39.4238 299.371C39.4238 299.371 42.3436 299.918 45.1894 299.936C47.8685 299.95 50.3071 299.705 51.4269 299.237C51.4269 299.237 52.4217 294.638 52.94 292.93C53.4582 291.221 55.4387 289.165 53.5184 288.41Z" fill="#004AB4"/>
<path d="M69.8106 184.274C68.7232 185.733 80.3376 191.994 80.3376 191.994L81.4111 179.296L70.625 182.338L69.8106 184.279V184.274Z" fill="black"/>
<path d="M74.2623 179.74L69.8109 196.819L45.2681 281.94C45.2681 281.94 51.0382 284.441 59.5246 283.367L91.9522 198.699L87.7506 285.173C87.7506 285.173 95.8807 288.123 102.405 285.173L115.181 182.875L74.2576 179.745L74.2623 179.74Z" fill="#1E1E1E"/>
<path d="M107.504 109.688L107.36 109.577C107.36 109.577 107.407 109.623 107.504 109.688Z" fill="url(#paint3_linear_3044_10557)"/>
<path d="M107.157 106.525L107.356 109.577L107.499 109.688C107.865 109.929 107.944 110.475 110.424 110.179C111.867 110.008 112.599 109.438 113.006 108.693C111.918 110.341 108.291 108.151 107.152 106.53L107.157 106.525Z" fill="#1E1E1E"/>
<path d="M98.1478 85.899C93.1318 89.7196 97.2501 99.2361 97.5508 102.686C97.8516 106.132 97.176 113.476 97.176 113.476L107.809 117.672L107.361 109.577L107.162 106.525C108.3 108.151 111.928 110.341 113.015 108.688C113.492 107.813 113.792 106.525 113.996 105.516C114.015 105.414 114.038 105.279 114.061 105.127C112.895 103.728 112.802 101.718 112.802 101.718C113.732 102.311 114.607 102.431 115.116 102.445C115.444 98.259 115.81 91.3635 115.972 87.6958C116.199 82.6759 103.168 82.0739 98.1524 85.899H98.1478Z" fill="#FF8238"/>
<path d="M102.747 103.677C101.794 104.177 99.3603 105.09 99.3603 105.09C99.3603 105.09 98.2035 103.756 97.5511 102.686C96.5516 101.047 95.7696 99.2269 94.2704 95.2814C92.7711 91.3358 92.3593 83.5975 97.6344 80.1058C102.909 76.6141 107.648 79.8557 111.34 79.4806C115.037 79.1055 115.991 79.4389 115.162 82.0184C115.162 82.0184 117.656 80.856 118.901 81.7683C120.146 82.6806 118.235 86.302 118.235 86.302C118.235 86.302 120.812 86.0936 120.77 87.6727C120.729 89.2519 117.999 91.6229 115.731 92.4935L115.801 91.1645C115.801 91.1645 113.214 94.1144 110.054 94.2811L110.137 99.602L108.476 99.3612L107.893 96.7772C107.893 96.7772 107.018 93.9523 104.82 94.6145C102.618 95.2814 103.307 97.8099 104.02 98.824C104.733 99.8382 105.825 100.417 105.825 100.417C105.825 100.417 103.701 103.182 102.747 103.677Z" fill="#FFC500"/>
<path d="M94.2563 112.777C94.2563 112.777 95.5381 109.322 95.6769 108.98C95.8157 108.642 100.281 108.507 102.585 108.98C104.89 109.452 108.679 111.962 108.749 112.3C108.818 112.638 108.749 116.908 108.749 116.908L94.2563 112.772V112.777Z" fill="#D6D6D6"/>
<path d="M89.6521 114.268C89.6521 114.268 90.6701 112.235 92.0906 112.031C93.5112 111.828 102.159 112.305 105.824 113.147C109.494 113.995 111.863 115.417 112.673 117.246C113.487 119.075 89.6475 114.264 89.6475 114.264L89.6521 114.268Z" fill="#8CCCFF"/>
<path d="M83.012 114.824C85.011 113.726 92.6968 112.439 102.243 113.861C111.789 115.282 116.462 116.88 118.97 117.672C121.474 118.468 122.084 119.96 122.084 119.96C122.084 119.96 138.201 133.922 139.353 134.732C140.505 135.547 141.181 136.223 141.181 136.223C141.181 136.223 150.593 138.326 155.738 138.868C160.884 139.41 167.852 139.322 167.852 139.322C167.852 139.322 170.703 144.017 168.875 152.422C168.875 152.422 150.523 153.237 145.989 153.237C141.454 153.237 132.311 148.764 127.096 145.374C121.881 141.984 118.901 140.289 118.901 140.289L119.512 189.896C119.512 189.896 107.254 191.656 91.4104 188.947C75.5668 186.237 70.8239 183.797 69.8105 184.269C69.8105 184.269 72.9247 171.733 74.1463 164.278C75.3632 156.822 77.2604 150.519 78.3432 138.391C79.4259 126.258 79.9025 116.533 83.0167 114.824H83.012Z" fill="#8CCCFF"/>
<path d="M70.6208 153.83C70.5699 153.83 70.519 153.812 70.482 153.77C70.4079 153.691 70.4125 153.571 70.4912 153.501C70.5097 153.483 72.4393 151.691 73.0316 150.76C73.0871 150.672 73.2074 150.644 73.2953 150.7C73.3832 150.755 73.411 150.876 73.3555 150.964C72.7354 151.936 70.8336 153.705 70.7503 153.779C70.7133 153.812 70.667 153.83 70.6208 153.83Z" fill="black"/>
<path opacity="0.5" d="M118.906 140.289L113.224 137.173L118.998 148.153L118.906 140.289Z" fill="#1E1E1E"/>
<path d="M102.049 200.765C102.049 200.765 102.026 200.765 102.016 200.765L78.5148 196.74C78.4084 196.722 78.339 196.625 78.3575 196.518C78.376 196.416 78.4732 196.342 78.5796 196.361L102.081 200.385C102.188 200.404 102.257 200.501 102.239 200.607C102.225 200.7 102.141 200.765 102.049 200.765Z" fill="#292929"/>
<path d="M230.232 74.5672C230.149 74.5672 230.075 74.5116 230.047 74.4283C230.019 74.3264 230.075 74.2199 230.177 74.1921L232.782 73.4234C232.884 73.3909 232.99 73.4511 233.018 73.553C233.046 73.6549 232.99 73.7614 232.888 73.7892L230.283 74.5579C230.283 74.5579 230.246 74.5672 230.228 74.5672H230.232Z" fill="black"/>
<path d="M223.269 76.5956C223.185 76.5956 223.107 76.54 223.083 76.4567C223.056 76.3548 223.116 76.2483 223.218 76.2205L223.805 76.0584C223.907 76.0306 224.014 76.0908 224.041 76.1927C224.069 76.2946 224.009 76.4011 223.907 76.4289L223.319 76.591C223.319 76.591 223.287 76.6002 223.269 76.6002V76.5956Z" fill="black"/>
<path d="M246.446 83.4818C246.344 83.4818 246.261 83.3984 246.256 83.2966C246.182 81.1478 247.237 80.1244 247.283 80.0827C247.362 80.0086 247.482 80.0132 247.552 80.092C247.626 80.1707 247.621 80.2911 247.547 80.3606C247.538 80.3698 246.571 81.3192 246.64 83.2827C246.64 83.3892 246.562 83.4772 246.455 83.4818C246.455 83.4818 246.455 83.4818 246.446 83.4818Z" fill="#CCCCCC"/>
<path d="M240.135 89.1871C240.107 89.1871 240.075 89.1825 240.047 89.1686C238.288 88.2795 238.251 86.4734 238.251 86.3947C238.251 86.2882 238.335 86.2048 238.441 86.2002C238.548 86.2187 238.636 86.2836 238.636 86.3901C238.636 86.4595 238.673 88.0433 240.218 88.8259C240.311 88.8722 240.352 88.988 240.301 89.0853C240.269 89.1501 240.2 89.1918 240.13 89.1918L240.135 89.1871Z" fill="#CCCCCC"/>
<path d="M244.433 88.3767C244.433 88.3767 244.42 88.3767 244.41 88.3767C242.425 88.1313 242.198 86.5985 242.198 86.5799C242.185 86.4734 242.259 86.3808 242.36 86.3669C242.467 86.353 242.559 86.4271 242.573 86.529C242.583 86.5799 242.772 87.7886 244.452 87.997C244.558 88.0109 244.632 88.1035 244.619 88.21C244.605 88.3073 244.526 88.3767 244.429 88.3767H244.433Z" fill="#CCCCCC"/>
<path d="M224.929 113.009C224.837 113.009 224.758 112.944 224.74 112.847C223.865 107.558 223.856 104.441 223.856 104.409C223.856 104.302 223.944 104.219 224.046 104.219C224.147 104.219 224.235 104.307 224.235 104.409C224.235 104.441 224.245 107.53 225.115 112.782C225.133 112.888 225.064 112.985 224.957 113.004C224.948 113.004 224.934 113.004 224.925 113.004L224.929 113.009Z" fill="black"/>
<path d="M255.876 94.6793L253.091 95.7167L258.648 99.4307L258.014 98.1525C257.408 96.9346 256.691 95.7722 255.876 94.6793Z" fill="#1E1E1E"/>
<path d="M296.587 308.175C295.532 308.175 294.676 307.318 294.676 306.262V237.604C294.676 236.548 295.532 235.691 296.587 235.691C297.642 235.691 298.498 236.548 298.498 237.604V306.262C298.498 307.318 297.642 308.175 296.587 308.175Z" fill="#EFEFEF"/>
</g>
<defs>
<linearGradient id="paint0_linear_3044_10557" x1="270.124" y1="18.3848" x2="328.08" y2="18.3848" gradientUnits="userSpaceOnUse">
<stop stop-color="#F4F4F4"/>
<stop offset="0.16" stop-color="#C5D4EF"/>
<stop offset="0.37" stop-color="#8EB0E9"/>
<stop offset="0.57" stop-color="#6394E4"/>
<stop offset="0.75" stop-color="#447FE1"/>
<stop offset="0.9" stop-color="#3173DF"/>
<stop offset="1" stop-color="#2B6FDF"/>
</linearGradient>
<linearGradient id="paint1_linear_3044_10557" x1="256.408" y1="296.755" x2="252.96" y2="230.812" gradientUnits="userSpaceOnUse">
<stop stop-color="#CE34C3"/>
<stop offset="1" stop-color="#B93DFD"/>
</linearGradient>
<linearGradient id="paint2_linear_3044_10557" x1="310.695" y1="242.869" x2="282.43" y2="82.693" gradientUnits="userSpaceOnUse">
<stop stop-color="#103675"/>
<stop offset="0.04" stop-color="#123D7D"/>
<stop offset="0.26" stop-color="#2263AB"/>
<stop offset="0.48" stop-color="#2E82CF"/>
<stop offset="0.68" stop-color="#3698E9"/>
<stop offset="0.86" stop-color="#3CA5F9"/>
<stop offset="1" stop-color="#3EAAFF"/>
</linearGradient>
<linearGradient id="paint3_linear_3044_10557" x1="107.356" y1="109.633" x2="107.504" y2="109.633" gradientUnits="userSpaceOnUse">
<stop stop-color="#FF1D4B"/>
<stop offset="1" stop-color="#B83DFD"/>
</linearGradient>
<clipPath id="clip0_3044_10557">
<rect width="428" height="313" fill="white"/>
</clipPath>
</defs>
</svg>
