<svg width="449" height="308" viewBox="0 0 449 308" fill="none" xmlns="http://www.w3.org/2000/svg">
<g clip-path="url(#clip0_3406_17153)">
<path d="M224.5 307.995C348.488 307.995 449 305.976 449 303.485C449 300.994 348.488 298.974 224.5 298.974C100.512 298.974 0 300.994 0 303.485C0 305.976 100.512 307.995 224.5 307.995Z" fill="#E4E4E4"/>
<path d="M385.962 117.794H234.952V303.485H385.962V117.794Z" fill="#DDDDDD"/>
<path d="M385.961 117.794H337.284V303.485H385.961V117.794Z" fill="#CCCCCC"/>
<path d="M337.344 153.222H186.334V303.485H337.344V153.222Z" fill="#CCCCCC"/>
<path d="M217.847 153.222L219.929 157.961L206.974 171.045C205.796 172.054 204.614 187.39 204.614 187.39L211.522 194.804L221.468 192.612C222.477 188.905 207.253 188.96 209.166 186.043C212.089 181.578 223.463 169.612 229.601 163.266C231.971 160.814 232.505 157.125 230.929 154.098L230.473 153.222H217.847Z" fill="#444444"/>
<path d="M337.344 153.249H288.666V303.485H337.344V153.249Z" fill="#AAAAAA"/>
<path d="M288.73 191.54H137.721V303.489H288.73V191.54Z" fill="#AAAAAA"/>
<path d="M155.831 191.539H148.63L145.685 193.959C145.685 193.959 140.068 200.365 139.899 200.529C139.73 200.693 145.461 209.404 147.091 211.144C148.032 212.148 147.959 209.363 147.625 206.176C147.119 201.314 150.877 196.47 154.274 192.955L155.836 191.535L155.831 191.539Z" fill="#444444"/>
<path d="M288.73 191.594H240.053V303.485H288.73V191.594Z" fill="#7C7C7C"/>
<path d="M240.112 228.922H89.1033V303.485H240.112V228.922Z" fill="#666666"/>
<path d="M240.112 228.963H191.435V303.489H240.112V228.963Z" fill="#444444"/>
<path d="M191.495 267.089H40.4854V303.485H191.495V267.089Z" fill="#444444"/>
<path d="M191.499 267.107H142.822V303.485H191.499V267.107Z" fill="black"/>
<path d="M283.433 105.617V112.187C283.433 112.187 286.552 113.872 289.164 111.767V105.659C289.164 105.659 286.849 102.878 283.433 105.617Z" fill="#FF8238"/>
<path d="M309.471 110.128L306.548 105.777C306.548 105.777 305.763 103.586 308.457 102.07C308.457 102.07 310.758 100.892 311.996 102.969C313.233 105.047 314.973 109.037 314.973 109.037C314.973 109.037 315.087 110.274 313.174 111.397C311.265 112.52 309.466 110.133 309.466 110.133L309.471 110.128Z" fill="#FF8238"/>
<path d="M332.823 52.1194L335.659 54.4204C335.659 54.4204 336.303 54.8998 336.668 54.4478" fill="#1E1E1E"/>
<path d="M326.832 48.4533C326.832 48.4533 329.444 49.969 330.457 50.6173C331.467 51.261 335.01 53.7903 337.873 55.0275C337.873 55.0275 339.435 54.6167 340.161 54.7034C340.485 54.7445 340.513 55.1965 340.207 54.8038C340.115 54.6851 339.837 54.5436 339.618 54.466C339.618 54.466 341.106 54.8586 341.444 54.3108C341.513 54.1966 341.499 53.8497 341.303 53.7355C341.106 53.6214 341.613 53.6533 341.723 53.2881C341.832 52.9229 341.581 52.6581 340.586 52.4618C340.586 52.4618 340.937 52.0006 340.823 51.6354C340.7 51.2336 340.376 51.2702 339.111 50.8228C337.846 50.3753 337.677 50.2612 335.964 49.1107C335.964 49.1107 334.727 47.7365 333.266 46.6956C331.805 45.6546 328.855 44.8694 328.855 44.8694" fill="#FF8238"/>
<path d="M334.727 52.2472C334.727 52.2472 336.467 53.7355 339.896 54.5482" stroke="#1E1E1E" stroke-width="0.74" stroke-linecap="round" stroke-linejoin="round"/>
<path d="M334.923 51.4299C334.923 51.4299 338.152 53.4524 341.33 53.6487" stroke="#1E1E1E" stroke-width="0.74" stroke-linecap="round" stroke-linejoin="round"/>
<path d="M335.134 50.3799C335.134 50.3799 338.449 52.4983 340.595 52.4572" stroke="#1E1E1E" stroke-width="0.74" stroke-linecap="round" stroke-linejoin="round"/>
<path d="M328.266 49.2979C328.266 49.2979 329.307 47.4581 329.078 44.9014L328.234 44.5909L326.097 48.0881L328.261 49.2979H328.266Z" fill="#1E1E1E"/>
<path d="M281.767 107.293C281.552 107.229 281.401 107.037 281.378 106.814C281.214 104.937 279.917 96.2263 277.223 87.2415C273.899 76.1611 272.004 73.8783 273.488 70.1118C274.584 67.3315 280.566 61.3507 286.045 55.9589C291.58 50.5077 295.822 46.0153 295.822 46.0153L306.891 36.5785L312.845 41.0709C312.845 41.0709 318.53 45.1159 312.087 57.219C306.525 67.6647 303.945 72.3307 303.091 73.7779C302.868 74.1523 302.863 74.6134 303.073 74.9969C304.877 78.2795 311.836 93.4459 313.343 102.481C313.393 102.778 313.293 103.074 313.101 103.303C312.338 104.198 310.27 106.216 305.845 107.256C305.366 107.371 304.868 107.129 304.658 106.681C304.658 106.681 297.379 90.4784 294.562 85.2737C293.329 83.0001 291.192 79.7952 290.936 75.5858C290.758 72.6 292.872 67.7515 292.872 67.7515L286.397 73.9057C286.123 74.1523 286.009 74.5266 286.105 74.8827C287.045 78.3434 291.872 96.2811 290.374 106.06C290.356 106.193 290.287 106.307 290.192 106.394C289.548 106.946 286.858 108.836 281.771 107.288L281.767 107.293Z" fill="#1E1E1E"/>
<path d="M247.674 64.9391C247.674 64.9391 246.327 65.98 247.87 69.0937C249.715 72.8191 251.135 74.2207 251.811 74.0244C252.903 73.7048 253.227 67.6967 250.556 64.8478C249.501 63.7201 247.674 64.9346 247.674 64.9346V64.9391Z" fill="#1E1E1E"/>
<path d="M236.016 75.8917C236.016 75.8917 238.208 73.5907 239.67 71.623C241.131 69.6553 242.167 69.0115 243.939 67.9706C245.711 66.9297 248.094 65.0761 248.094 65.0761C248.094 65.0761 249.894 63.7019 251.633 65.7518C253.373 67.8017 251.099 69.5411 251.099 69.5411L246.058 73.0931C246.058 73.0931 242.519 78.316 238.345 79.7906C234.496 81.1511 234.076 77.937 236.012 75.8871L236.016 75.8917Z" fill="#FF8238"/>
<path d="M247.674 64.9392C247.674 64.9392 260.652 54.7719 262.168 53.005C263.606 51.3249 268.419 42.1803 269.766 37.1218C271.113 32.0678 272.465 29.8216 276.899 26.5071C281.337 23.1925 285.749 18.9238 293.164 21.622C299.84 24.0509 309.21 30.4608 311.704 32.0678C314.316 33.7525 327.079 43.1938 328.576 44.2074C328.663 44.2667 328.709 44.3717 328.686 44.4767C328.517 45.2574 327.882 48.1565 324.508 50.8867C324.416 50.9597 324.284 50.9643 324.193 50.8912C322.754 49.7955 313.288 42.6962 307.521 38.9754C307.521 38.9754 307.813 40.5915 305.722 43.2989C302.836 47.038 297.315 50.0101 291.219 51.2154C290.411 51.3752 289.648 50.736 289.717 49.9142C289.717 49.9005 289.717 49.8868 289.717 49.8777C289.74 49.6357 289.666 49.2979 289.639 48.7363C289.566 47.2982 288.146 45.4127 286.844 44.8739C285.214 44.1983 281.397 44.9287 278.922 41.8425C278.922 41.8425 274.78 51.6856 269.328 57.8079C264.355 63.396 254.053 72.1982 252.232 73.7505C252.072 73.8875 251.971 73.956 251.903 73.9925C251.889 74.0016 251.843 74.0153 251.843 74.0153C251.843 74.0153 252.364 73.9149 252.469 72.4494C252.688 69.4316 249.414 63.638 247.674 64.9346V64.9392Z" fill="#2B6FDF"/>
<path d="M279.095 42.0434C279.095 42.0434 277.456 40.1533 276.675 37.0579C276.652 36.9711 276.515 37.0031 276.52 37.0944C276.652 38.7654 276.949 43.9198 276.661 46.5586C276.661 46.5586 278.798 42.888 279.091 42.0434H279.095Z" fill="#1E1E1E"/>
<path d="M307.635 39.2585C307.635 39.2585 305.005 37.5556 299.991 34.5606C294.977 31.5702 292.466 29.9906 292.466 29.9906" stroke="#1E1E1E" stroke-width="0.74" stroke-linecap="round" stroke-linejoin="round"/>
<path d="M298.913 52.302C297.676 56.2055 295.064 61.684 292.872 67.747" stroke="#F9F9F9" stroke-width="0.74" stroke-miterlimit="10" stroke-linecap="round"/>
<path d="M289.187 110.041C289.187 110.041 289.52 109.544 290.137 109.704C291.105 109.955 290.625 110.754 290.557 111.685C290.475 112.863 290.808 113.666 290.808 113.666C291.803 115.246 291.064 116.967 290.758 117.547C290.689 117.675 290.561 117.752 290.42 117.752H274.351C274.182 117.752 274.036 117.643 273.985 117.483C273.127 114.899 275.73 114.465 275.73 114.465C278.808 113.876 280.661 113.118 281.461 112.908C282.26 112.698 282.219 111.813 282.219 111.813C282.219 111.813 281.84 109.79 283.945 109.877C283.945 109.877 285.123 110.005 284.999 112.068C284.999 112.068 285.561 112.415 287.296 112.151C288.538 111.959 289.173 111.142 289.173 111.142L289.196 110.046L289.187 110.041Z" fill="#AAAAAA"/>
<path d="M302.032 117.958C301.817 117.958 301.639 117.794 301.635 117.579C301.612 116.871 301.731 115.397 303.128 115.018C304.982 114.511 306.781 114.68 307.904 113.447C309.028 112.21 309.42 110.603 309.42 110.603C309.42 110.603 307.79 109.311 309.197 108.357C310.603 107.403 312.288 108.526 312.457 109.763C312.457 109.763 314.626 108.996 314.516 108.042L313.735 106.293C313.735 106.293 314.927 105.887 315.434 107.179C315.941 108.471 315.941 108.978 316.781 109.48C317.558 109.945 318.622 110.986 318.43 112.644C318.398 112.913 318.256 113.16 318.046 113.333L314.311 116.474C313.256 117.364 311.923 117.857 310.539 117.871L302.032 117.958Z" fill="#AAAAAA"/>
<path d="M272.994 22.8091C272.994 22.8091 275.177 25.3521 275.497 27.4933C275.816 29.6391 278.396 30.4335 280.739 28.2466C283.081 26.0597 282.013 22.8548 282.013 22.8548C282.013 22.8548 279.31 19.312 278.552 18.1204C277.798 16.9288 275.931 15.9381 274.145 17.8419C272.36 19.7457 272.994 22.8046 272.994 22.8046V22.8091Z" fill="#FF8338"/>
<path d="M275.022 20.741C275.022 20.741 275.588 22.6174 274.702 25.3384C274.702 25.3384 273.839 23.6948 272.949 22.8867L275.022 20.7455V20.741Z" fill="#1E1E1E"/>
<path d="M265.255 12.8381C264.789 14.2763 264.707 15.8148 264.935 17.3077C265.168 18.86 265.551 21.161 265.894 22.1243C266.793 24.6536 268.926 26.5619 271.963 24.9868C273.775 24.0464 275.365 21.3436 276.355 19.3211C277.41 17.1571 277.712 14.6871 277.1 12.3588C276.62 10.5371 275.565 8.76574 273.314 8.35941C269.287 7.6335 266.424 9.24511 265.259 12.8336L265.255 12.8381Z" fill="#FF8338"/>
<path d="M264.812 16.253C264.812 16.253 267.314 16.9287 269.378 13.0389C269.378 13.0389 270.451 14.3492 272.2 13.6735C272.2 13.6735 272.716 15.938 274.981 14.7875C274.981 14.7875 274.862 18.7184 279.232 19.1566C279.232 19.1566 280.862 14.1118 278.675 10.5005C277.182 8.0306 275.1 7.24534 272.442 7.08555C269.574 6.91663 264.022 9.35002 264.816 16.2576L264.812 16.253Z" fill="#FFC400"/>
<path d="M273.981 15.6094C273.981 15.6094 273.534 13.7558 275.05 13.249C276.566 12.7422 276.904 15.7189 276.059 16.9562C275.214 18.1934 274.091 16.5635 273.981 15.6094Z" fill="#FF8338"/>
<path d="M275.753 17.4355C275.753 17.4355 275.488 17.5908 275.063 17.6866" stroke="#1E1E1E" stroke-width="0.74" stroke-linecap="round" stroke-linejoin="round"/>
<path d="M275.981 7.91647C274.944 7.39601 273.766 7.16317 272.442 7.08099C271.561 7.03077 270.433 7.22252 269.305 7.71559C270.04 8.14018 272.342 9.14915 275.981 7.91647Z" fill="#1E1E1E"/>
<path d="M270.342 8.41872C272.667 8.41872 274.552 6.53412 274.552 4.20936C274.552 1.88459 272.667 0 270.342 0C268.016 0 266.131 1.88459 266.131 4.20936C266.131 6.53412 268.016 8.41872 270.342 8.41872Z" fill="#FFC400"/>
<path d="M289.753 49.7727L290.036 48.7363" stroke="#1E1E1E" stroke-width="0.74" stroke-linecap="round" stroke-linejoin="round"/>
<path d="M318.425 112.644C318.457 112.388 318.453 112.146 318.425 111.918L313.927 115.689C312.79 116.639 311.356 117.159 309.872 117.154L301.662 117.122L301.699 117.775C301.772 117.885 301.89 117.963 302.032 117.958L310.539 117.871C311.918 117.858 313.252 117.364 314.311 116.474L318.046 113.333C318.256 113.16 318.398 112.913 318.43 112.644H318.425Z" fill="#1E1E1E"/>
<path d="M290.415 117.752C290.557 117.752 290.689 117.675 290.753 117.547C290.822 117.415 290.918 117.223 291.004 116.985L290.931 116.995H273.908L273.853 117.004C273.88 117.154 273.922 117.314 273.976 117.483C274.031 117.643 274.177 117.752 274.342 117.752H290.411H290.415Z" fill="#1E1E1E"/>
<path d="M309.416 110.603C309.416 110.603 310.174 110.352 310.539 110.352" stroke="#1E1E1E" stroke-width="0.74" stroke-linecap="round" stroke-linejoin="round"/>
<path d="M145.178 196.429C145.178 196.429 146.584 196.26 144.954 198.566C144.954 198.566 144.872 202.3 146.132 205.67C147.397 209.039 148.662 213.842 146.639 214.938C146.639 214.938 143.607 215.864 139.981 208.03C139.981 208.03 139.812 206.934 137.707 204.405C135.602 201.876 134.757 201.091 134.675 198.958C134.671 198.835 134.62 196.374 136.584 195.699C138.552 195.023 139.534 194.772 140.936 193.48C140.936 193.48 141.274 193.087 141.694 193.562" fill="#2B6FDF"/>
<path d="M207.143 184.522C207.143 184.522 207.463 183.792 208.084 183.988C208.39 184.084 208.6 184.367 208.646 184.687C208.664 184.815 208.673 184.97 208.659 185.157L217.171 188.147C217.171 188.147 219.262 188.832 219.573 189.622C219.952 190.59 219.468 191.453 219.468 191.453L200.339 191.43C199.622 189.325 200.403 188.353 201.12 186.965C201.837 185.577 202.175 184.267 202.175 184.267" fill="#2B6FDF"/>
<path d="M229.98 83.9224C229.98 83.9224 232.34 80.9731 232.761 79.9642C233.181 78.9552 233.446 77.0514 234.774 75.7959C236.331 74.3212 237.587 73.1114 238.587 73.3671C238.587 73.3671 237.213 74.9924 236.185 76.3027C236.016 76.5172 235.957 76.814 236.067 77.0651C236.222 77.4166 236.665 77.6769 237.93 76.7638C240.035 75.248 241.09 74.0245 241.09 74.0245C241.09 74.0245 241.551 75.0335 241.386 75.8781C241.386 75.8781 241.807 76.677 241.514 77.6495C241.514 77.6495 241.893 78.4073 240.29 80.2198C239.56 81.0462 237.642 82.635 236.382 84.347C234.793 86.4973 232.87 89.3188 232.87 89.3188L229.975 83.927L229.98 83.9224Z" fill="#823C31"/>
<path d="M241.332 75.9465C241.332 75.9465 239.884 77.7225 237.898 78.8273" stroke="#1E1E1E" stroke-width="0.74" stroke-linecap="round" stroke-linejoin="round"/>
<path d="M238.61 80.0052C238.61 80.0052 240.496 78.9004 241.446 77.6814" stroke="#1E1E1E" stroke-width="0.74" stroke-linecap="round" stroke-linejoin="round"/>
<path d="M170.681 128.691C170.681 128.691 167.416 128.413 165.85 134.366C165.22 136.754 165.069 140.16 164.841 144.757C164.297 155.66 162.06 163.151 160.124 165.763C158.188 168.374 151.201 175.643 147.091 182.559C143.721 188.234 141.698 193.567 141.698 193.567C141.698 193.567 143.804 195.758 145.548 196.826C145.548 196.826 165.096 177.026 168.046 173.826C170.996 170.625 173.777 163.631 176.727 155.377L179.677 147.063C179.677 147.063 191.024 149.871 208.495 152.176C208.495 152.176 203.152 166.005 202.28 179.514C202.175 181.112 202.399 182.591 202.175 184.276C202.175 184.276 205.038 185.034 207.148 184.527C207.148 184.527 215.536 162.677 218.217 155.769C221.139 148.241 220.801 146.109 213.555 142.739C206.308 139.37 185.494 132.125 185.494 132.125L170.69 128.7L170.681 128.691Z" fill="#D5E1F9"/>
<path d="M180.051 133.59L180.745 131.02L170.681 128.691C170.681 128.691 167.991 128.463 166.32 132.873C167.019 133.156 171.781 134.914 180.047 133.595L180.051 133.59Z" fill="#1E1E1E"/>
<path d="M151.356 138.43C151.356 138.43 150.178 139.607 148.826 140.676C147.479 141.744 144.178 145.127 142.886 146.926C141.593 148.725 142.141 149.272 142.141 149.272C142.141 149.272 141.721 150.094 142.169 150.487C142.507 150.784 143.223 150.295 143.223 150.295C143.223 150.295 142.744 150.943 143.351 151.327C144.045 151.77 145.205 150.149 146.05 149.136C146.05 149.136 145.205 150.295 145.945 150.756C146.68 151.217 147.927 149.259 149.507 147.638C151.087 146.017 153.32 143.89 154.164 141.698C155.009 139.507 153.827 136.348 153.827 136.348L151.361 138.425L151.356 138.43Z" fill="#823C31"/>
<path d="M143.224 150.295C143.224 150.295 145.014 147.579 146.785 145.492" stroke="#1E1E1E" stroke-width="0.74" stroke-linecap="round" stroke-linejoin="round"/>
<path d="M142.141 149.268C142.141 149.268 144.361 146.058 145.749 144.753" stroke="#1E1E1E" stroke-width="0.74" stroke-linecap="round" stroke-linejoin="round"/>
<path d="M145.94 149.263C145.94 149.263 147.077 148.022 148.575 146.022" stroke="#1E1E1E" stroke-width="0.74" stroke-linecap="round" stroke-linejoin="round"/>
<path d="M230.729 83.1828C230.55 83.096 230.34 83.128 230.194 83.2649C228.423 84.9633 219.614 96.3906 214.728 99.0888C210.349 101.504 201.472 102.851 196.805 103.668C192.143 104.481 184.389 103.189 184.389 103.189L180.362 107.498C177.983 107.174 176.412 109.763 176.412 109.763C176.412 109.763 175.183 110.895 167.147 120.446C159.772 129.212 154.859 134.17 151.393 137.311C151.306 137.389 151.256 137.498 151.288 137.612C151.489 138.384 152.411 141.255 155.311 142.045C155.402 142.068 155.498 142.045 155.571 141.991C156.466 141.26 162.95 134.873 168.366 129.664C170.992 131.81 176.969 135.124 187.001 132.796C187.001 132.796 188.937 132.248 189.321 130.983C189.7 129.719 189.828 128.71 189.828 128.71C189.828 128.71 190.837 126.646 193.408 124.372C195.979 122.099 196.485 118.894 196.527 115.78C196.527 115.78 204.454 113.059 210.011 111.064C214.226 109.548 216.879 108.325 220.797 104.997C224.473 101.874 232.235 91.4736 234.167 88.0358C234.231 87.9217 234.299 87.8167 234.286 87.6843C234.231 86.9949 233.811 84.7487 230.729 83.1964V83.1828Z" fill="#80A8EB"/>
<path d="M195.006 116.191L196.526 115.771" stroke="#1E1E1E" stroke-width="0.74" stroke-linecap="round" stroke-linejoin="round"/>
<path d="M189.823 128.705C189.823 128.705 189.782 127.737 189.741 127.358" stroke="#1E1E1E" stroke-width="0.74" stroke-linecap="round" stroke-linejoin="round"/>
<path d="M176.973 113.411C176.581 114.748 176.298 115.94 175.119 118.72C172.864 124.039 171.005 125.993 168.813 126.838C167.649 127.285 167.188 127.778 167.224 128.427C167.265 129.13 168.151 129.664 168.631 130.043" stroke="#1E1E1E" stroke-width="0.74" stroke-linecap="round" stroke-linejoin="round"/>
<path d="M172.677 142.141C172.677 142.141 174.11 145.232 179.672 147.054" stroke="#1E1E1E" stroke-width="0.74" stroke-linecap="round" stroke-linejoin="round"/>
<path d="M194.755 98.5821C194.755 98.5821 198.545 98.0753 199.39 95.8839C200.234 93.6925 197.618 91.081 196.526 89.7342C196.138 89.2594 195.686 88.7298 195.266 88.2413C193.828 86.5795 191.636 85.7075 189.467 86.0636C187.649 86.3649 185.777 87.52 184.983 90.7432C183.211 97.9064 194.759 98.5775 194.759 98.5775L194.755 98.5821Z" fill="#823C31"/>
<path d="M191.216 91.3093C191.216 91.3093 194.444 90.6062 195.175 87.068C195.905 83.5297 194.052 80.2152 191.298 79.6263C188.545 79.0373 186.216 81.0005 184.951 85.1048C184.951 85.1048 180.709 85.6938 179.672 89.0083C178.631 92.3228 180.43 94.286 181.019 95.7743C181.608 97.2626 180.736 98.8651 179.362 99.9608C177.987 101.057 170.343 104.818 172.311 108.978C174.279 113.137 178.462 110.913 178.462 110.913C178.462 110.913 181.928 114.712 186.522 110.27C189.946 106.955 190.905 105.074 190.905 105.074L196.805 103.668C196.805 103.668 198.828 99.7645 192.508 93.1629L191.216 91.3093Z" fill="#1E1E1E"/>
<path d="M192.586 91.2317C192.586 91.2317 191.28 89.9488 190.394 90.9166C189.723 91.6517 190.476 93.3044 191.695 93.8112C192.558 94.1718 193.659 93.382 193.43 92.478C193.335 92.0991 193.156 91.7613 192.586 91.2362V91.2317Z" fill="#823C31"/>
<path d="M192.924 93.8431C192.924 93.8431 193.175 93.7153 193.535 93.2542" stroke="#1E1E1E" stroke-width="0.74" stroke-linecap="round" stroke-linejoin="round"/>
<path d="M144.306 187.695C142.635 191.078 141.694 193.567 141.694 193.567C141.694 193.567 143.479 196.11 145.557 196.84C145.557 196.84 147.438 194.9 150.146 192.156C146.598 190.663 144.858 188.494 144.31 187.695H144.306Z" fill="#823C31"/>
<path d="M202.317 178.907C202.189 180.518 202.235 182.564 202.171 184.267C202.171 184.267 205.034 185.079 207.143 184.577C207.143 184.577 207.787 182.714 208.897 179.957C205.778 180.555 202.783 179.126 202.317 178.907Z" fill="#823C31"/>
<path d="M208.49 152.167C208.49 152.167 209.052 151.322 209.559 150.93" stroke="#1E1E1E" stroke-width="0.74" stroke-linecap="round" stroke-linejoin="round"/>
<path d="M142.986 207.829C139.785 203.784 141.863 202.383 139.223 198.338C137.753 196.087 136.456 195.977 135.598 196.32C134.639 197.301 134.671 198.853 134.675 198.954C134.757 201.091 135.602 201.876 137.707 204.4C139.812 206.93 139.981 208.025 139.981 208.025C143.155 214.887 145.876 215.029 146.502 214.96C148.178 214.07 146.045 211.696 142.986 207.829Z" fill="#1E1E1E"/>
<path d="M200.152 190.768C200.198 190.978 200.257 191.197 200.335 191.434L219.463 191.457C219.463 191.457 219.614 191.193 219.678 190.791C219.678 190.782 219.678 190.773 219.678 190.768H200.18L200.143 190.777L200.152 190.768Z" fill="#1E1E1E"/>
<path d="M175.905 114.648L176.019 113.525" stroke="#1E1E1E" stroke-width="0.74" stroke-linecap="round" stroke-linejoin="round"/>
<path d="M243.77 71.5682C243.204 72.8237 240.811 74.1249 240.811 74.1249" stroke="#1E1E1E" stroke-width="0.74" stroke-linecap="round" stroke-linejoin="round"/>
<path d="M140.79 193.617C140.79 193.617 141.265 192.927 141.694 193.156C142.402 193.535 142.479 194.534 142.703 194.799L141.808 194.484L140.79 193.617Z" fill="#DD1250"/>
</g>
<defs>
<clipPath id="clip0_3406_17153">
<rect width="449" height="308" fill="white"/>
</clipPath>
</defs>
</svg>
