<svg width="88" height="30" viewBox="0 0 88 30" fill="none" xmlns="http://www.w3.org/2000/svg">
<g clip-path="url(#clip0_543_38940)">
<path d="M79.4619 12.2254C80.5205 12.2254 81.3788 11.3759 81.3788 10.328C81.3788 9.28015 80.5205 8.43066 79.4619 8.43066C78.4032 8.43066 77.5449 9.28015 77.5449 10.328C77.5449 11.3759 78.4032 12.2254 79.4619 12.2254Z" fill="#FF4500"></path>
<path d="M52.081 18.4185C53.0214 18.4185 53.5639 17.7204 53.5277 17.0402C53.5096 16.6822 53.4735 16.4495 53.4373 16.2706C52.8586 13.8004 50.8332 11.9746 48.428 11.9746C45.5706 11.9746 43.2559 14.5343 43.2559 17.6846C43.2559 20.835 45.5706 23.3947 48.428 23.3947C50.2183 23.3947 51.5023 22.7503 52.4246 21.73C52.8767 21.2288 52.7863 20.4591 52.2437 20.0832C51.7916 19.7789 51.231 19.8863 50.8151 20.2264C50.4172 20.5665 49.6577 21.2467 48.428 21.2467C46.9812 21.2467 45.7515 20.0116 45.4802 18.3827H52.081V18.4185ZM48.4099 14.1405C49.7119 14.1405 50.8332 15.1429 51.2491 16.5211H45.5706C45.9866 15.125 47.1078 14.1405 48.4099 14.1405Z" fill="#222222"></path>
<path d="M43.3653 13.1026C43.3653 12.5656 42.9674 12.136 42.4611 12.0466C40.8877 11.8139 39.4048 12.3866 38.5549 13.4427V13.2995C38.5549 12.6372 38.0123 12.2255 37.4698 12.2255C36.873 12.2255 36.3848 12.7088 36.3848 13.2995V22.0704C36.3848 22.6432 36.8188 23.1444 37.3975 23.1802C38.0304 23.216 38.5549 22.7327 38.5549 22.1062V17.5776C38.5549 15.5728 40.074 13.926 42.1717 14.1587C42.2441 14.1587 42.3164 14.1587 42.3887 14.1587C42.9313 14.1229 43.3653 13.6575 43.3653 13.1026V13.1026Z" fill="#222222"></path>
<path d="M80.5471 14.2478C80.5471 13.6571 80.0588 13.1738 79.462 13.1738C78.8652 13.1738 78.377 13.6571 78.377 14.2478C78.377 14.2836 78.377 21.7657 78.377 22.1058C78.377 22.6965 78.8652 23.1798 79.462 23.1798C80.0588 23.1798 80.5471 22.6965 80.5471 22.1058C80.5471 21.7836 80.5471 14.3015 80.5471 14.2478Z" fill="#222222"></path>
<path d="M64.4157 8.30543C64.4157 7.71474 63.9275 7.23145 63.3307 7.23145C62.7339 7.23145 62.2456 7.71474 62.2456 8.30543V13.0847C61.5042 12.3508 60.5819 11.9928 59.4787 11.9928C56.6214 11.9928 54.3066 14.5524 54.3066 17.7028C54.3066 20.8532 56.6214 23.4128 59.4787 23.4128C60.5819 23.4128 61.5223 23.0369 62.2637 22.303C62.3541 22.8042 62.8062 23.1801 63.3307 23.1801C63.9275 23.1801 64.4157 22.6968 64.4157 22.1061V8.30543V8.30543ZM59.4968 21.2828C57.8331 21.2828 56.4948 19.6897 56.4948 17.7028C56.4948 15.7338 57.8331 14.1229 59.4968 14.1229C61.1606 14.1229 62.4988 15.7159 62.4988 17.7028C62.4988 19.6897 61.1425 21.2828 59.4968 21.2828Z" fill="#222222"></path>
<path d="M75.736 8.30543C75.736 7.71474 75.2478 7.23145 74.651 7.23145C74.0542 7.23145 73.5659 7.71474 73.5659 8.30543V13.0847C72.8245 12.3508 71.9022 11.9928 70.7991 11.9928C67.9417 11.9928 65.627 14.5524 65.627 17.7028C65.627 20.8532 67.9417 23.4128 70.7991 23.4128C71.9022 23.4128 72.8426 23.0369 73.584 22.303C73.6744 22.8042 74.1266 23.1801 74.651 23.1801C75.2478 23.1801 75.736 22.6968 75.736 22.1061V8.30543V8.30543ZM70.7991 21.2828C69.1353 21.2828 67.7971 19.6897 67.7971 17.7028C67.7971 15.7338 69.1353 14.1229 70.7991 14.1229C72.4628 14.1229 73.801 15.7159 73.801 17.7028C73.801 19.6897 72.4628 21.2828 70.7991 21.2828Z" fill="#222222"></path>
<path d="M86.0436 22.1242V14.1409H87.0021C87.5085 14.1409 87.9606 13.765 87.9967 13.2459C88.0329 12.691 87.5808 12.2256 87.0383 12.2256H86.0436V10.722C86.0436 10.1492 85.6096 9.64802 85.0309 9.61222C84.398 9.57642 83.8735 10.0597 83.8735 10.6862V12.2435H82.9693C82.463 12.2435 82.0109 12.6194 81.9747 13.1385C81.9385 13.6934 82.3906 14.1588 82.9331 14.1588H83.8555V22.1421C83.8555 22.7327 84.3437 23.216 84.9405 23.216C85.5735 23.1802 86.0436 22.7148 86.0436 22.1242V22.1242Z" fill="#222222"></path>
<path d="M15.1546 30C23.5243 30 30.3092 23.2843 30.3092 15C30.3092 6.71573 23.5243 0 15.1546 0C6.78495 0 0 6.71573 0 15C0 23.2843 6.78495 30 15.1546 30Z" fill="#FF4500"></path>
<path d="M25.2641 14.9997C25.2641 13.7825 24.2694 12.8159 23.0578 12.8159C22.461 12.8159 21.9185 13.0486 21.5206 13.4245C20.0015 12.3505 17.9219 11.6524 15.6071 11.5629L16.6198 6.87317L19.9111 7.57126C19.9473 8.39465 20.6345 9.05694 21.4844 9.05694C22.3525 9.05694 23.0578 8.35885 23.0578 7.49966C23.0578 6.64047 22.3525 5.94238 21.4844 5.94238C20.8696 5.94238 20.3271 6.30038 20.0739 6.81947L16.4028 6.04978C16.2943 6.03188 16.1858 6.04978 16.1134 6.10348C16.023 6.15718 15.9688 6.24668 15.9507 6.35408L14.8294 11.5808C12.4785 11.6524 10.3626 12.3505 8.82547 13.4424C8.42762 13.0665 7.88509 12.8338 7.28831 12.8338C6.05858 12.8338 5.08203 13.8183 5.08203 15.0176C5.08203 15.9125 5.62456 16.6643 6.3841 17.0044C6.34793 17.2192 6.32985 17.434 6.32985 17.6667C6.32985 21.0319 10.2903 23.7705 15.173 23.7705C20.0558 23.7705 24.0162 21.0498 24.0162 17.6667C24.0162 17.4519 23.9982 17.2192 23.962 17.0044C24.7215 16.6643 25.2641 15.8946 25.2641 14.9997V14.9997ZM10.1095 16.5569C10.1095 15.6978 10.8147 14.9997 11.6828 14.9997C12.5508 14.9997 13.2561 15.6978 13.2561 16.5569C13.2561 17.4161 12.5508 18.1142 11.6828 18.1142C10.8147 18.1321 10.1095 17.4161 10.1095 16.5569V16.5569ZM18.9165 20.6918C17.8314 21.7658 15.7698 21.8374 15.173 21.8374C14.5582 21.8374 12.4966 21.7479 11.4296 20.6918C11.2668 20.5307 11.2668 20.2801 11.4296 20.119C11.5924 19.9579 11.8455 19.9579 12.0083 20.119C12.6955 20.7992 14.1422 21.0319 15.173 21.0319C16.2038 21.0319 17.6687 20.7992 18.3378 20.119C18.5005 19.9579 18.7537 19.9579 18.9165 20.119C19.0612 20.2801 19.0612 20.5307 18.9165 20.6918ZM18.6271 18.1321C17.7591 18.1321 17.0538 17.434 17.0538 16.5748C17.0538 15.7157 17.7591 15.0176 18.6271 15.0176C19.4952 15.0176 20.2005 15.7157 20.2005 16.5748C20.2005 17.4161 19.4952 18.1321 18.6271 18.1321Z" fill="white"></path>
</g>
<defs>
<clipPath id="clip0_543_38940">
<rect width="88" height="30" fill="white"></rect>
</clipPath>
</defs>
</svg>