<svg width="121" height="10" viewBox="0 0 121 10" fill="none" xmlns="http://www.w3.org/2000/svg">
<g clip-path="url(#clip0_2888_15596)">
<path d="M2.63522 2.22952L6.7653 9.7331L11.5475 9.7368L15.607 2.22845L17.6419 2.22952V0.868759H11.5213V2.22845H13.289L10.3329 7.69449L7.33698 2.22952L9.48539 2.22845L9.48489 0.868759H0.604561L0.602783 2.22952H2.63522ZM55.256 2.22597L55.2552 0.868809L63.444 0.869896V2.22597H61.4045V8.35125H63.2955C65.0478 8.35125 66.1965 7.19411 66.1965 5.62366H67.5474V9.7252L55.2552 9.72619V8.35313H57.3196L57.3169 2.22597H55.256ZM35.3536 8.58839C33.8521 8.56124 33.1919 6.90157 33.2207 5.25247C33.2506 3.54456 34.0678 2.05534 35.4745 2.07983C36.8811 2.10452 37.6238 3.62223 37.5936 5.3293C37.565 6.93983 36.9002 8.61654 35.3536 8.58839ZM35.3993 0.681885C31.2873 0.681885 29.1033 2.73328 29.1033 5.30732C29.1033 7.91692 31.2063 9.99724 35.423 9.99724C39.6384 9.99724 41.719 7.91692 41.719 5.30732C41.719 2.73328 39.5119 0.681885 35.3993 0.681885ZM81.5162 2.22952L85.6462 9.7331L90.4284 9.7368L94.4879 2.22845L96.5228 2.22952V0.868759H90.402V2.22845H92.1699L89.2139 7.69449L86.218 2.22952L88.3664 2.22845L88.3659 0.868759H79.4855L79.4837 2.22952H81.5162ZM114.237 8.58839C112.735 8.56124 112.075 6.90157 112.104 5.25247C112.134 3.54456 112.951 2.05534 114.358 2.07983C115.765 2.10452 116.507 3.62223 116.477 5.3293C116.448 6.93983 115.784 8.61654 114.237 8.58839ZM114.283 0.681885C110.171 0.681885 107.987 2.73328 107.987 5.30732C107.987 7.91692 110.09 9.99724 114.306 9.99724C118.522 9.99724 120.603 7.91692 120.603 5.30732C120.603 2.73328 118.395 0.681885 114.283 0.681885Z" fill="#161618"></path>
</g>
<defs>
<clipPath id="clip0_2888_15596">
<rect width="120" height="9.31526" fill="white" transform="translate(0.602783 0.682129)"></rect>
</clipPath>
</defs>
</svg>